<?xml version="1.0" encoding="UTF-8"?>
<svg id="Layer_2" data-name="Layer 2" xmlns="http://www.w3.org/2000/svg" viewBox="0 0 171.4 171.4">
  <defs>
    <style>
      .cls-1 {
        fill: #fff;
      }

      .cls-2 {
        fill: #ff9750;
      }

      .cls-3 {
        fill: #ff7100;
      }

      .cls-4 {
        fill: #febc97;
      }
    </style>
  </defs>
  <g id="Layer_1-2" data-name="Layer 1">
    <g>
      <path class="cls-2" d="M66.2,128.18c0-12.69-10.29-22.98-22.98-22.98-6.44,0-12.25,2.65-16.42,6.91-.12,.12-.24,.24-.36,.36-.12,.12-.24,.24-.36,.36-.12,.12-.24,.24-.36,.36-.12,.12-.24,.24-.35,.35-.12,.12-.24,.24-.35,.35-.12,.12-.24,.24-.36,.36-.12,.12-.24,.24-.36,.36-.12,.12-.24,.24-.36,.36-.12,.12-.24,.24-.35,.35-.12,.12-.24,.24-.35,.35-.12,.12-.24,.24-.36,.36-.12,.12-.24,.24-.36,.36-.12,.12-.24,.24-.35,.35-.12,.12-.24,.24-.35,.35-.12,.12-.24,.24-.36,.36-.12,.12-.24,.24-.35,.35-.12,.12-.24,.24-.36,.36-.12,.12-.24,.24-.35,.35-.12,.12-.24,.24-.35,.35-.12,.12-.24,.24-.36,.36-.12,.12-.24,.24-.36,.36-.12,.12-.24,.24-.36,.36-.12,.12-.24,.24-.35,.35-.12,.12-.24,.24-.35,.35-.12,.12-.24,.24-.36,.36-.12,.12-.24,.24-.36,.36-.12,.12-.24,.24-.35,.35-.12,.12-.24,.24-.35,.35-.12,.12-.24,.24-.36,.36-.12,.12-.24,.24-.35,.36-.12,.12-.24,.24-.36,.36-.12,.12-.24,.24-.35,.35-.12,.12-.24,.24-.35,.35-.12,.12-.24,.24-.36,.36-.12,.12-.24,.24-.36,.36-.12,.12-.24,.24-.36,.36-.12,.12-.24,.24-.35,.35-.12,.12-.24,.24-.35,.35-.12,.12-.24,.24-.36,.36-.12,.12-.24,.24-.36,.36-.12,.12-.24,.24-.35,.35-.12,.12-.24,.24-.35,.35-.12,.12-.24,.24-.36,.36-.12,.12-.24,.24-.35,.36-.12,.12-.24,.24-.36,.36-.12,.12-.24,.24-.35,.35-.12,.12-.24,.24-.35,.35-.12,.12-.24,.24-.36,.36-.12,.12-.24,.24-.36,.36-.12,.12-.24,.24-.36,.36-.12,.12-.24,.23-.35,.35-.12,.12-.24,.24-.36,.36-.12,.12-.24,.24-.36,.36-.12,.12-.24,.24-.36,.36-.12,.12-.24,.24-.35,.35-.12,.12-.24,.24-.35,.35-4.26,4.17-6.91,9.99-6.91,16.43,0,12.69,10.29,22.98,22.98,22.98,6.44,0,12.25-2.65,16.42-6.91,.12-.12,.24-.24,.36-.36,.12-.12,.24-.24,.36-.36,.12-.12,.24-.24,.35-.35,.12-.12,.24-.24,.35-.35,.12-.12,.24-.24,.36-.36,.12-.12,.24-.24,.36-.36,.12-.12,.24-.24,.35-.35,.12-.12,.24-.24,.35-.35,.12-.12,.24-.24,.35-.35,.12-.12,.24-.24,.36-.36,.12-.12,.24-.24,.36-.36,.12-.12,.24-.24,.35-.35,.12-.12,.24-.24,.35-.35,.12-.12,.24-.24,.35-.35,.12-.12,.24-.24,.36-.36,.12-.12,.24-.24,.36-.36,.12-.12,.24-.24,.35-.35,.12-.12,.24-.24,.35-.35,.12-.12,.24-.24,.36-.36,.12-.12,.24-.24,.36-.36,.12-.12,.24-.24,.35-.35,.12-.12,.24-.24,.35-.36,.12-.12,.24-.24,.35-.35,.12-.12,.24-.24,.36-.36,.12-.12,.24-.24,.36-.36,.12-.12,.24-.24,.35-.35,.12-.12,.24-.24,.35-.36,.12-.12,.24-.24,.35-.35,.12-.12,.24-.24,.36-.36,.12-.12,.24-.24,.36-.36,.12-.12,.24-.24,.35-.35,.12-.12,.24-.24,.35-.35,.12-.12,.24-.24,.36-.36,.12-.12,.24-.24,.36-.36,.12-.12,.24-.24,.35-.35,.12-.12,.24-.24,.35-.36,.12-.12,.24-.24,.35-.35,.12-.12,.24-.24,.36-.36,.12-.12,.24-.24,.36-.36,.12-.12,.24-.24,.35-.35,.12-.12,.24-.24,.35-.36,.12-.12,.24-.24,.35-.35,.12-.12,.24-.24,.36-.36,.12-.12,.24-.24,.36-.36,.12-.12,.24-.24,.35-.35,.12-.12,.24-.24,.35-.35,.12-.12,.24-.24,.36-.36,.12-.12,.24-.24,.36-.36,.12-.12,.24-.24,.35-.35,.12-.12,.24-.24,.35-.35,.12-.12,.24-.24,.35-.35,.12-.12,.24-.24,.36-.36,.12-.12,.24-.24,.36-.36,.12-.12,.24-.24,.35-.35,.12-.12,.24-.24,.35-.35,.12-.12,.24-.24,.35-.35,4.26-4.17,6.91-9.99,6.91-16.43Z"/>
      <path class="cls-4" d="M121.73,87.36c0-20.81-16.87-37.69-37.69-37.69-10.55,0-20.09,4.34-26.93,11.34-.2,.19-.39,.39-.58,.58-.2,.19-.39,.39-.58,.58-.2,.19-.39,.39-.58,.58-.2,.19-.39,.39-.58,.58-.2,.19-.39,.39-.58,.58-.2,.19-.39,.39-.58,.58-.2,.19-.39,.39-.58,.58-.2,.19-.39,.39-.58,.58-.2,.19-.39,.39-.58,.58-.2,.19-.39,.39-.58,.58-.2,.19-.39,.39-.58,.58-.2,.19-.39,.39-.58,.58-.2,.19-.39,.39-.58,.58-.2,.19-.39,.39-.58,.58-.2,.19-.39,.39-.58,.58-.2,.19-.39,.39-.58,.58-.2,.19-.39,.39-.58,.58-.2,.19-.39,.39-.58,.58-.2,.19-.39,.39-.58,.58-.2,.19-.39,.39-.58,.58-.2,.19-.39,.39-.58,.58-.2,.19-.39,.39-.58,.58-.2,.19-.39,.39-.58,.58-.2,.19-.39,.39-.58,.58-.2,.19-.39,.39-.58,.58-.2,.19-.39,.39-.58,.58-.2,.19-.39,.39-.58,.58-.2,.19-.39,.39-.58,.58-.2,.19-.39,.39-.58,.58-.2,.19-.39,.39-.58,.58-.2,.19-.39,.39-.58,.58-.2,.19-.39,.39-.58,.58-.2,.19-.39,.39-.58,.58-.2,.19-.39,.39-.58,.58-.2,.19-.39,.39-.58,.58-.2,.19-.39,.39-.58,.58-.2,.19-.39,.39-.58,.58-.2,.19-.39,.39-.58,.58-.2,.19-.39,.39-.58,.58-.2,.19-.39,.39-.58,.58-.2,.19-.39,.39-.58,.58-.2,.19-.39,.39-.58,.58-.2,.19-.39,.39-.58,.58-.2,.19-.39,.39-.58,.58-.2,.19-.39,.39-.58,.58-.2,.19-.39,.39-.58,.58-.2,.19-.39,.39-.58,.58-.2,.19-.39,.39-.58,.58-.2,.19-.39,.39-.58,.58-.2,.19-.39,.39-.58,.58-.2,.19-.39,.39-.58,.58-.2,.19-.39,.39-.58,.58-.2,.19-.39,.39-.58,.58-.2,.19-.39,.39-.58,.58-.2,.19-.39,.39-.58,.58-.2,.19-.39,.39-.58,.58-6.99,6.84-11.34,16.38-11.34,26.93,0,20.81,16.87,37.69,37.69,37.69,10.55,0,20.09-4.34,26.93-11.34,.2-.19,.39-.39,.58-.58,.2-.19,.39-.39,.58-.58,.2-.19,.39-.39,.58-.58,.2-.19,.39-.39,.58-.58,.2-.19,.39-.39,.58-.58,.2-.19,.39-.39,.58-.58,.2-.19,.39-.39,.58-.58,.2-.19,.39-.39,.58-.58,.2-.19,.39-.39,.58-.58,.2-.19,.39-.39,.58-.58,.2-.19,.39-.39,.58-.58,.2-.19,.39-.39,.58-.58,.2-.19,.39-.39,.58-.58,.2-.19,.39-.39,.58-.58,.2-.19,.39-.39,.58-.58,.2-.19,.39-.39,.58-.58,.2-.19,.39-.39,.58-.58,.2-.19,.39-.39,.58-.58,.2-.19,.39-.39,.58-.58,.2-.19,.39-.39,.58-.58,.2-.19,.39-.39,.58-.58,.2-.19,.39-.39,.58-.58,.2-.19,.39-.39,.58-.58,.2-.19,.39-.39,.58-.58,.2-.19,.39-.39,.58-.58,.2-.19,.39-.39,.58-.58,.2-.19,.39-.39,.58-.58,.2-.19,.39-.39,.58-.58,.2-.19,.39-.39,.58-.58,.2-.19,.39-.39,.58-.58,.2-.19,.39-.39,.58-.58,.2-.19,.39-.39,.58-.58,.2-.19,.39-.39,.58-.58,.2-.19,.39-.39,.58-.58,.2-.19,.39-.39,.58-.58,.2-.19,.39-.39,.58-.58,.2-.19,.39-.39,.58-.58,.2-.19,.39-.39,.58-.58,.2-.19,.39-.39,.58-.58,.2-.19,.39-.39,.58-.58,.2-.19,.39-.39,.58-.58,.2-.19,.39-.39,.58-.58,.2-.19,.39-.39,.58-.58,.2-.19,.39-.39,.58-.58,.2-.19,.39-.39,.58-.58,.2-.19,.39-.39,.58-.58,.2-.19,.39-.39,.58-.58,.2-.19,.39-.39,.58-.58,.2-.19,.39-.39,.58-.58,.2-.19,.39-.39,.58-.58,.2-.19,.39-.39,.58-.58,.2-.19,.39-.39,.58-.58,.2-.19,.39-.39,.58-.58,.2-.19,.39-.39,.58-.58,.2-.19,.39-.39,.58-.58,.2-.19,.39-.39,.58-.58,6.99-6.84,11.34-16.38,11.34-26.93Z"/>
      <path class="cls-2" d="M164.6,52.77c0-25.39-20.58-45.97-45.97-45.97-12.87,0-24.51,5.3-32.85,13.83-.24,.23-.48,.47-.71,.71-.24,.23-.48,.47-.71,.71-.24,.23-.48,.47-.71,.71-.24,.23-.48,.47-.71,.71-.24,.23-.48,.47-.71,.71-.24,.23-.48,.47-.71,.71-.24,.23-.48,.47-.71,.71-.24,.23-.48,.47-.71,.71-.24,.23-.48,.47-.71,.71-.24,.23-.48,.47-.71,.71-.24,.23-.48,.47-.71,.71-.24,.23-.48,.47-.71,.71-.24,.23-.48,.47-.71,.71-.24,.23-.48,.47-.71,.71-.24,.23-.48,.47-.71,.71-.24,.23-.48,.47-.71,.71-.24,.23-.48,.47-.71,.71-.24,.23-.48,.47-.71,.71-.24,.23-.48,.47-.71,.71-.24,.23-.48,.47-.71,.71-.24,.23-.48,.47-.71,.71-.24,.23-.48,.47-.71,.71-.24,.23-.48,.47-.71,.71-.24,.23-.48,.47-.71,.71-.24,.23-.48,.47-.71,.71-.24,.23-.48,.47-.71,.71-.24,.23-.48,.47-.71,.71-.24,.23-.48,.47-.71,.71-.24,.23-.48,.47-.71,.71-.24,.23-.48,.47-.71,.71-.24,.23-.48,.47-.71,.71-.24,.23-.48,.47-.71,.71-.24,.23-.48,.47-.71,.71-.24,.23-.48,.47-.71,.71-.24,.23-.48,.47-.71,.71-.24,.23-.48,.47-.71,.71-.24,.23-.48,.47-.71,.71-.24,.23-.48,.47-.71,.71-.24,.23-.48,.47-.71,.71-.24,.23-.48,.47-.71,.71-.24,.23-.48,.47-.71,.71-.24,.23-.48,.47-.71,.71-.24,.23-.48,.47-.71,.71-.24,.23-.48,.47-.71,.71-.24,.23-.48,.47-.71,.71-.24,.23-.48,.47-.71,.71-.24,.23-.48,.47-.71,.71-.24,.23-.48,.47-.71,.71-.24,.23-.48,.47-.71,.71-.24,.23-.48,.47-.71,.71-.24,.23-.47,.47-.71,.71-.24,.23-.48,.47-.71,.71-.24,.23-.48,.47-.71,.71-.24,.23-.48,.47-.71,.71-.24,.23-.48,.47-.71,.71-.24,.23-.48,.47-.71,.71-8.53,8.35-13.83,19.98-13.83,32.85,0,25.39,20.58,45.97,45.97,45.97,12.87,0,24.51-5.3,32.85-13.83,.24-.23,.48-.47,.71-.71,.24-.23,.48-.47,.71-.71,.24-.23,.48-.47,.71-.71,.24-.23,.48-.47,.71-.71,.24-.23,.48-.47,.71-.71,.24-.23,.48-.47,.71-.71,.24-.23,.48-.47,.71-.71,.24-.23,.48-.47,.71-.71,.24-.23,.48-.47,.71-.71,.24-.23,.48-.47,.71-.71,.24-.23,.48-.47,.71-.71,.24-.23,.48-.47,.71-.71,.24-.23,.48-.47,.71-.71,.24-.23,.48-.47,.71-.71,.24-.23,.48-.47,.71-.71,.24-.23,.48-.47,.71-.71,.24-.23,.48-.47,.71-.71,.24-.23,.48-.47,.71-.71,.24-.23,.48-.47,.71-.71,.24-.23,.48-.47,.71-.71,.24-.23,.48-.47,.71-.71,.24-.23,.48-.47,.71-.71,.24-.23,.48-.47,.71-.71,.24-.23,.48-.47,.71-.71,.24-.23,.48-.47,.71-.71,.24-.23,.48-.47,.71-.71,.24-.23,.48-.47,.71-.71,.24-.23,.48-.47,.71-.71,.24-.23,.48-.47,.71-.71,.24-.23,.48-.47,.71-.71,.24-.23,.48-.47,.71-.71,.24-.23,.48-.47,.71-.71,.24-.23,.48-.47,.71-.71,.24-.23,.48-.47,.71-.71,.24-.23,.48-.47,.71-.71,.24-.23,.48-.47,.71-.71,.24-.23,.48-.47,.71-.71,.24-.23,.48-.47,.71-.71,.24-.23,.48-.47,.71-.71,.24-.23,.48-.47,.71-.71,.24-.23,.48-.47,.71-.71,.24-.23,.48-.47,.71-.71,.24-.23,.48-.47,.71-.71,.24-.23,.48-.47,.71-.71,.24-.23,.48-.47,.71-.71,.24-.23,.48-.47,.71-.71,.24-.23,.48-.47,.71-.71,.24-.23,.48-.47,.71-.71,.24-.23,.48-.47,.71-.71,.24-.23,.48-.47,.71-.71,.24-.23,.48-.47,.71-.71,.24-.23,.48-.47,.71-.71,.24-.23,.48-.47,.71-.71,.24-.23,.48-.47,.71-.71,.24-.23,.48-.47,.71-.71,.24-.23,.48-.47,.71-.71,8.53-8.35,13.83-19.98,13.83-32.85Z"/>
      <circle class="cls-4" cx="118.63" cy="52.77" r="52.77"/>
      <circle class="cls-3" cx="118.63" cy="52.77" r="45.97"/>
      <path class="cls-1" d="M149.03,44.89l-12.3-11.46c-10.2-9.5-26-9.5-36.2,0l-12.3,11.46c-4.57,4.26-4.57,11.5,0,15.75l12.3,11.46c10.2,9.5,26,9.5,36.2,0l12.3-11.46c4.57-4.26,4.57-11.5,0-15.75Z"/>
      <circle cx="118.63" cy="52.77" r="15.81"/>
    </g>
  </g>
</svg>