<?xml version="1.0" encoding="UTF-8"?>
<svg id="Layer_2" data-name="Layer 2" xmlns="http://www.w3.org/2000/svg" xmlns:xlink="http://www.w3.org/1999/xlink" viewBox="0 0 465.67 686.87">
  <defs>
    <style>
      .cls-1 {
        fill: #606060;
      }

      .cls-1, .cls-2 {
        opacity: .1;
      }

      .cls-2, .cls-3 {
        fill: #fdbc86;
      }

      .cls-4 {
        fill: #f64a05;
      }

      .cls-5 {
        fill: #ffe3cc;
      }

      .cls-6 {
        fill: #fff1e9;
      }

      .cls-7 {
        fill: #fd8e35;
      }

      .cls-8 {
        fill: #fd7911;
      }

      .cls-9 {
        fill: #fda156;
      }

      .cls-10 {
        fill: #100d18;
      }

      .cls-11 {
        fill: #1c1b1a;
      }

      .cls-12 {
        fill: url(#radial-gradient-2);
      }

      .cls-12, .cls-13 {
        opacity: .25;
      }

      .cls-13 {
        fill: url(#radial-gradient);
      }
    </style>
    <radialGradient id="radial-gradient" cx="266.63" cy="481.47" fx="266.63" fy="481.47" r="9.9" gradientTransform="translate(-90.42 56.01) rotate(-10.55)" gradientUnits="userSpaceOnUse">
      <stop offset="0" stop-color="#ff7710"/>
      <stop offset="1" stop-color="#ff7710" stop-opacity="0"/>
    </radialGradient>
    <radialGradient id="radial-gradient-2" cx="314.95" cy="477.29" fx="314.95" fy="477.29" r="9.9" xlink:href="#radial-gradient"/>
  </defs>
  <g id="Layer_1-2" data-name="Layer 1">
    <g>
      <g>
        <path class="cls-2" d="M463.41,647.49L265.08,191.59h-84.76l-39.26,456.53c-.44,1.28-.57,2.58-.34,3.9,3.36,19.25,78.8,34.86,168.5,34.86s159.69-15.61,156.33-34.86c-.27-1.53-1-3.04-2.15-4.53Z"/>
        <path class="cls-1" d="M465.67,649.3c0,20.75-72.49,37.57-161.9,37.57s-161.91-16.82-161.91-37.57,72.49-37.56,161.91-37.56,161.9,16.82,161.9,37.56Z"/>
      </g>
      <g>
        <path class="cls-7" d="M148.45,269.97c2.21,17.66-10.32,33.78-27.98,35.99-17.67,2.21-33.78-10.32-36-27.98-2.21-17.67,10.32-33.79,27.98-36s33.78,10.32,35.99,27.99Z"/>
        <path class="cls-7" d="M361,243.36c2.21,17.66-10.32,33.78-27.99,35.99s-33.78-10.32-35.99-27.98c-2.21-17.67,10.32-33.79,27.98-36s33.78,10.32,36,27.99Z"/>
        <path class="cls-7" d="M260.33,272.04c2.21,17.67-10.32,33.78-27.99,36-17.67,2.21-33.78-10.32-35.99-27.98-2.21-17.67,10.32-33.78,27.98-35.99,17.67-2.21,33.78,10.31,36,27.98Z"/>
        <path class="cls-11" d="M196.8,37.02c-7.65,.96-13.08,7.94-12.12,15.6l.64,5.08c4.08,.67,8.94,.76,14.09,.11s9.84-1.93,13.63-3.58l-.64-5.08c-.96-7.65-7.94-13.08-15.59-12.13Z"/>
        <path class="cls-11" d="M398.63,193.79c4.77,38.11-70.97,78.96-169.17,91.26-98.2,12.29-181.67-8.63-186.44-46.74-4.77-38.11,70.97-78.96,169.17-91.26,98.2-12.29,181.67,8.63,186.44,46.74Z"/>
        <ellipse class="cls-9" cx="217.73" cy="191.3" rx="219.27" ry="61.43" transform="translate(-22.08 28.53) rotate(-7.14)"/>
        <path class="cls-3" d="M223.67,238.74c-112.12,14.04-207.39,1.83-223.07-27.21-.58,2.29-.75,4.58-.47,6.83,4.21,33.66,105.04,48.76,225.2,33.71,120.16-15.04,214.16-54.53,209.94-88.19-.28-2.25-1.01-4.42-2.13-6.5-8.04,32.01-97.36,67.32-209.48,81.36Z"/>
        <path class="cls-7" d="M200.51,53.76c-47.16,5.9-80.6,48.92-74.69,96.07l3.92,31.31c25.14,4.14,55.09,4.67,86.81,.7,31.72-3.97,60.61-11.86,83.96-22.08l-3.92-31.31c-5.9-47.16-48.92-80.6-96.07-74.69Z"/>
        <polygon class="cls-8" points="53.45 250.48 52.42 250.61 50.71 236.95 129.97 184.87 130.54 185.73 51.82 237.46 53.45 250.48"/>
        <polygon class="cls-8" points="127.4 162.48 47.1 172.53 50.16 171.11 127.27 161.45 127.4 162.48"/>
        <polygon class="cls-8" points="168.2 257.05 167.17 257.18 165.52 243.62 183.59 188.4 184.57 188.72 166.54 243.83 168.2 257.05"/>
        <polygon class="cls-8" points="393.34 207.93 392.31 208.05 390.68 195.04 301.64 164.31 301.97 163.33 391.63 194.27 393.34 207.93"/>
        <polygon class="cls-8" points="378.47 131.04 298.95 141 298.82 139.97 375.15 130.42 378.47 131.04"/>
        <polygon class="cls-8" points="283.75 242.58 282.73 242.71 281.07 229.49 250.01 180.53 250.89 179.98 282.07 229.13 283.75 242.58"/>
        <rect class="cls-11" x="194.46" y="7.36" width="3.1" height="46.78" transform="translate(-2.3 24.59) rotate(-7.14)"/>
        <path class="cls-11" d="M199.63,5.85c.46,3.66-2.14,7-5.8,7.46s-7-2.14-7.46-5.8c-.46-3.66,2.14-7,5.8-7.46s7,2.14,7.46,5.8Z"/>
        <path class="cls-4" d="M237.18,147.32c-43.02,5.39-82.43-23.36-91.09-65.09-15.41,17.8-23.5,41.82-20.34,67.02l3.92,31.31c25.14,4.14,55.09,4.67,86.81,.7,31.72-3.97,60.61-11.86,83.96-22.08l-3.92-31.31c-.6-4.75-1.58-9.36-2.9-13.81-12.96,17.74-32.91,30.31-56.43,33.26Z"/>
        <path class="cls-11" d="M213.85,160.3c-31.72,3.97-61.67,3.45-86.81-.7l1.13,9.01,.09,.69,.79,6.3,.34,2.71,.88,6.99c25.14,4.14,55.09,4.67,86.81,.7,31.72-3.97,60.61-11.86,83.96-22.08l-.88-6.99-.34-2.71-.79-6.3-.09-.69-1.13-9.01c-23.35,10.21-52.24,18.1-83.96,22.08Z"/>
        <rect class="cls-8" x="146.29" y="161.88" width="1.03" height="25.79" transform="translate(-20.58 19.59) rotate(-7.14)"/>
        <rect class="cls-8" x="175.07" y="163.73" width="1.03" height="25.79" transform="translate(-20.58 23.18) rotate(-7.14)"/>
        <rect class="cls-8" x="283.21" y="144.74" width="1.04" height="25.79" transform="translate(-17.39 36.47) rotate(-7.14)"/>
        <rect class="cls-8" x="255.77" y="153.63" width="1.03" height="25.79" transform="translate(-18.7 33.13) rotate(-7.14)"/>
        <rect class="cls-8" x="213.36" y="160.5" width="1.03" height="25.79" transform="translate(-19.88 27.91) rotate(-7.14)"/>
      </g>
      <g>
        <path class="cls-5" d="M291.3,453.04h0c22.1,0,40.04,17.94,40.04,40.04v64.45c0,17.68-14.35,32.03-32.03,32.03h-16.01c-17.68,0-32.03-14.35-32.03-32.03v-64.45c0-22.1,17.94-40.04,40.04-40.04Z" transform="translate(-113.98 82.71) rotate(-13.54)"/>
        <g>
          <g>
            <circle class="cls-7" cx="243.09" cy="433.65" r="17.56"/>
            <circle class="cls-7" cx="230.4" cy="453.87" r="17.56"/>
            <circle class="cls-7" cx="229.91" cy="481.8" r="17.56"/>
            <circle class="cls-7" cx="272.72" cy="507.82" r="17.56"/>
            <circle class="cls-7" cx="303.75" cy="499.09" r="17.56"/>
            <circle class="cls-7" cx="324.78" cy="482.81" r="17.56"/>
            <circle class="cls-7" cx="328.6" cy="454.59" r="17.56"/>
            <circle class="cls-7" cx="317.81" cy="432.88" r="17.56"/>
            <circle class="cls-7" cx="296.45" cy="422.42" r="17.56"/>
            <circle class="cls-7" cx="268.39" cy="422.37" r="17.56"/>
            <circle class="cls-7" cx="236.52" cy="499.25" r="15.27"/>
            <circle class="cls-7" cx="227.17" cy="440.56" r="9.04"/>
            <circle class="cls-7" cx="221.37" cy="467.52" r="10.64"/>
            <circle class="cls-7" cx="288.11" cy="511" r="10.64"/>
            <circle class="cls-7" cx="318.17" cy="499.57" r="9.57"/>
            <circle class="cls-7" cx="254.73" cy="513.65" r="8.41"/>
            <circle class="cls-7" cx="335.16" cy="469.78" r="8.41"/>
            <circle class="cls-7" cx="331.52" cy="438.88" r="8.41"/>
            <circle class="cls-7" cx="311.83" cy="419.56" r="8.41"/>
            <circle class="cls-7" cx="281.65" cy="413.9" r="8.41"/>
            <circle class="cls-7" cx="249.92" cy="419.1" r="8.41"/>
            <circle class="cls-7" cx="242.56" cy="506.4" r="10.64"/>
            <circle class="cls-7" cx="262.73" cy="446.56" r="6.85"/>
            <circle class="cls-7" cx="273.01" cy="444.65" r="6.85"/>
            <circle class="cls-7" cx="283.64" cy="441.96" r="6.15"/>
            <circle class="cls-7" cx="254.14" cy="503.93" r="7.43"/>
            <circle class="cls-7" cx="263.06" cy="437.49" r="7.43"/>
            <circle class="cls-7" cx="278.07" cy="434.4" r="7.43"/>
          </g>
          <path class="cls-6" d="M238.11,440.43c-5.49,3.37-6.33,11.89-5.43,15.6s3.69,9.43,3.88,10.44c.19,1.01-4.72,7.43-3.3,15.05,1.42,7.62,10.8,29.25,46.83,22.09,36.03-7.16,41.71-19.82,44.54-23.77,2.84-3.95,5.85-16.57,.6-23.18-5.25-6.61-7.13-7.9-7.64-8.25s-1.62-.79-.64-5.83c1.27-6.51-3.58-14.74-12.57-17.16-6.13-1.65-13.66,.16-17.7,8.06-4.04,7.9-6.83,12.88-12.86,13.26s-14.39-7.74-18.19-8.97c-3.8-1.23-8.81-2.68-17.51,2.67Z"/>
          <g>
            <circle class="cls-7" cx="262.73" cy="446.56" r="6.85"/>
            <circle class="cls-7" cx="273.01" cy="444.65" r="6.85"/>
            <circle class="cls-7" cx="283.64" cy="441.96" r="6.15"/>
            <circle class="cls-7" cx="281.13" cy="439.71" r="7.43"/>
            <circle class="cls-7" cx="262.19" cy="439.03" r="6.42"/>
          </g>
          <path class="cls-10" d="M271.03,465.35c-.57-.88-10.25,.09-9.96,.92s11.09,4.32,11.74,4.09-.7-3.33-1.79-5.01Z"/>
          <path class="cls-10" d="M290.08,459.95c.06-1.04,8.94-5.02,9.1-4.15s-7.48,9.26-8.16,9.38-1.05-3.23-.94-5.23Z"/>
          <path d="M278.33,472.51c.9-.77,8.18-3.29,9.98-3.14s-1.77,4.67-3.13,5.19-9.28,.03-6.85-2.05Z"/>
          <path class="cls-7" d="M240.84,449.18c-2.16,2.98,.4,8.51,1.57,8.42s7.93-8.47,7.24-10.06-6.7-1.26-8.8,1.64Z"/>
          <path class="cls-7" d="M303.66,434.06c3.28,1.66,3.54,7.74,2.46,8.2s-10.93-3.9-11.04-5.63c-.11-1.73,5.38-4.19,8.58-2.57Z"/>
          <circle class="cls-13" cx="259.85" cy="480.54" r="9.9"/>
          <circle class="cls-12" cx="306.59" cy="467.57" r="9.9"/>
          <ellipse cx="290.66" cy="487.38" rx="9.82" ry="7.51" transform="translate(-84.31 61.45) rotate(-10.55)"/>
          <path class="cls-7" d="M286.21,494.44c1.73,.56,3.75,.71,5.83,.33,3.93-.73,6.98-3.16,8-6.03-1.51-.17-3.13-.13-4.78,.18-4.08,.76-7.39,2.9-9.04,5.52Z"/>
        </g>
        <g>
          <path class="cls-5" d="M222.74,488.02c13.26-6.52,23.4,9.73,23.87,12.05,.47,2.31-15.63,27.93-15.63,27.93,0,0-28.63-29.95-8.23-39.98Z"/>
          <circle class="cls-10" cx="234.16" cy="493.57" r="2.09"/>
          <circle class="cls-10" cx="227.1" cy="493.14" r="2.09"/>
          <circle class="cls-10" cx="221.34" cy="498.23" r="2.09"/>
          <ellipse class="cls-10" cx="230.06" cy="501.65" rx="5.18" ry="3.44" transform="translate(-261.44 250.64) rotate(-38.31)"/>
          <path class="cls-5" d="M230.97,528s13.25,18.31,35.15,13.7c21.89-4.61-6.64-17.41-19.51-41.63l-15.63,27.93Z"/>
        </g>
        <g>
          <path class="cls-5" d="M342.18,462.99c-14.76-.63-17.5,18.33-17,20.63,.51,2.31,25.55,19.28,25.55,19.28,0,0,14.15-38.94-8.55-39.91Z"/>
          <circle class="cls-10" cx="333.96" cy="472.66" r="2.09"/>
          <circle class="cls-10" cx="340.24" cy="469.43" r="2.09"/>
          <circle class="cls-10" cx="347.57" cy="471.77" r="2.09"/>
          <ellipse class="cls-10" cx="340.96" cy="478.41" rx="3.44" ry="5.18" transform="translate(-207.86 688) rotate(-75.42)"/>
          <path class="cls-5" d="M350.74,502.9s-12.22,24.44-32.97,34.45c-20.75,10.01,8.42-33.97,7.42-53.73l25.55,19.28Z"/>
        </g>
        <g>
          <path class="cls-5" d="M371.75,581.06c-8.01,12.41-25.07,3.7-26.66,1.96s-.98-31.99-.98-31.99c0,0,39.96,10.94,27.64,30.04Z"/>
          <circle class="cls-10" cx="359.11" cy="582.19" r="2.09"/>
          <circle class="cls-10" cx="365.38" cy="578.92" r="2.09"/>
          <circle class="cls-10" cx="367.7" cy="571.59" r="2.09"/>
          <ellipse class="cls-10" cx="358.46" cy="573.15" rx="5.18" ry="3.44" transform="translate(-304.4 705.82) rotate(-69.3)"/>
          <path class="cls-5" d="M344.11,551.02s-20.79-8.87-37.18,6.35c-16.4,15.22,12.56,17.14,38.16,25.64l-.98-31.99Z"/>
        </g>
        <g>
          <path class="cls-5" d="M278.84,623.36c14.48-2.92,12.6-21.99,11.56-24.11s-29.43-12.59-29.43-12.59c0,0-4.41,41.2,17.87,36.7Z"/>
          <circle class="cls-10" cx="284.51" cy="612" r="2.09"/>
          <circle class="cls-10" cx="279.18" cy="616.65" r="2.09"/>
          <circle class="cls-10" cx="271.51" cy="616.12" r="2.09"/>
          <ellipse class="cls-10" cx="276.33" cy="608.09" rx="3.44" ry="5.18" transform="translate(-335.17 876.8) rotate(-89.28)"/>
          <path class="cls-5" d="M260.98,586.66s-5.17-26.27,12.58-40.96c17.75-14.69,11.15,34.62,16.85,53.56l-29.43-12.59Z"/>
        </g>
        <ellipse class="cls-6" cx="300.37" cy="553.28" rx="32.56" ry="28.2" transform="translate(-159.01 122.8) rotate(-18.36)"/>
      </g>
    </g>
  </g>
</svg>