<?xml version="1.0" encoding="UTF-8"?>
<svg id="Layer_2" data-name="Layer 2" xmlns="http://www.w3.org/2000/svg" xmlns:xlink="http://www.w3.org/1999/xlink" viewBox="0 0 163.38 218.89">
  <defs>
    <style>
      .cls-1 {
        fill: #ffe3cc;
      }

      .cls-2 {
        fill: #fff1e9;
      }

      .cls-3 {
        fill: #fd8e35;
      }

      .cls-4 {
        fill: #100d18;
      }

      .cls-5 {
        fill: url(#radial-gradient-2);
      }

      .cls-5, .cls-6 {
        opacity: .25;
      }

      .cls-6 {
        fill: url(#radial-gradient);
      }
    </style>
    <radialGradient id="radial-gradient" cx="55.82" cy="75.08" fx="55.82" fy="75.08" r="9.9" gradientTransform="translate(-19.5 12.13) rotate(-10.55)" gradientUnits="userSpaceOnUse">
      <stop offset="0" stop-color="#ff7710"/>
      <stop offset="1" stop-color="#ff7710" stop-opacity="0"/>
    </radialGradient>
    <radialGradient id="radial-gradient-2" cx="104.13" cy="70.89" fx="104.13" fy="70.89" r="9.9" xlink:href="#radial-gradient"/>
  </defs>
  <g id="Layer_1-2" data-name="Layer 1">
    <g>
      <path class="cls-1" d="M80.57,48.23h0c22.1,0,40.04,17.94,40.04,40.04v64.45c0,17.68-14.35,32.03-32.03,32.03h-16.01c-17.68,0-32.03-14.35-32.03-32.03V88.26c0-22.1,17.94-40.04,40.04-40.04Z" transform="translate(-25.04 22.11) rotate(-13.54)"/>
      <g>
        <g>
          <circle class="cls-3" cx="32.35" cy="28.83" r="17.56"/>
          <circle class="cls-3" cx="19.67" cy="49.05" r="17.56"/>
          <circle class="cls-3" cx="19.17" cy="76.99" r="17.56"/>
          <circle class="cls-3" cx="61.99" cy="103.01" r="17.56"/>
          <circle class="cls-3" cx="93.02" cy="94.28" r="17.56"/>
          <circle class="cls-3" cx="114.05" cy="78" r="17.56"/>
          <circle class="cls-3" cx="117.87" cy="49.78" r="17.56"/>
          <circle class="cls-3" cx="107.07" cy="28.07" r="17.56"/>
          <circle class="cls-3" cx="85.72" cy="17.61" r="17.56"/>
          <circle class="cls-3" cx="57.66" cy="17.56" r="17.56"/>
          <circle class="cls-3" cx="25.79" cy="94.43" r="15.27"/>
          <circle class="cls-3" cx="16.44" cy="35.75" r="9.04"/>
          <circle class="cls-3" cx="10.64" cy="62.71" r="10.64"/>
          <circle class="cls-3" cx="77.38" cy="106.18" r="10.64"/>
          <circle class="cls-3" cx="107.44" cy="94.76" r="9.57"/>
          <circle class="cls-3" cx="44" cy="108.84" r="8.41"/>
          <circle class="cls-3" cx="124.43" cy="64.96" r="8.41"/>
          <circle class="cls-3" cx="120.78" cy="34.07" r="8.41"/>
          <circle class="cls-3" cx="101.09" cy="14.75" r="8.41"/>
          <circle class="cls-3" cx="70.91" cy="9.09" r="8.41"/>
          <circle class="cls-3" cx="39.19" cy="14.29" r="8.41"/>
          <circle class="cls-3" cx="31.83" cy="101.59" r="10.64"/>
          <circle class="cls-3" cx="52" cy="41.75" r="6.85"/>
          <circle class="cls-3" cx="62.28" cy="39.83" r="6.85"/>
          <circle class="cls-3" cx="72.9" cy="37.14" r="6.15"/>
          <circle class="cls-3" cx="43.41" cy="99.12" r="7.43"/>
          <circle class="cls-3" cx="52.33" cy="32.68" r="7.43"/>
          <circle class="cls-3" cx="67.34" cy="29.59" r="7.43"/>
        </g>
        <path class="cls-2" d="M27.38,35.62c-5.49,3.37-6.33,11.89-5.43,15.6s3.69,9.43,3.88,10.44-4.72,7.43-3.3,15.05c1.42,7.62,10.8,29.25,46.83,22.09,36.03-7.16,41.71-19.82,44.54-23.77,2.84-3.95,5.85-16.57,.6-23.18-5.25-6.61-7.13-7.9-7.64-8.25s-1.62-.79-.64-5.83c1.27-6.51-3.58-14.74-12.57-17.16-6.13-1.65-13.66,.16-17.7,8.06-4.04,7.9-6.83,12.88-12.86,13.26s-14.39-7.74-18.19-8.97c-3.8-1.23-8.81-2.68-17.51,2.67Z"/>
        <g>
          <circle class="cls-3" cx="52" cy="41.75" r="6.85"/>
          <circle class="cls-3" cx="62.28" cy="39.83" r="6.85"/>
          <circle class="cls-3" cx="72.9" cy="37.14" r="6.15"/>
          <circle class="cls-3" cx="70.4" cy="34.9" r="7.43"/>
          <circle class="cls-3" cx="51.46" cy="34.22" r="6.42"/>
        </g>
        <path class="cls-4" d="M60.3,60.53c-.57-.88-10.25,.09-9.96,.92s11.09,4.32,11.74,4.09-.7-3.33-1.79-5.01Z"/>
        <path class="cls-4" d="M79.34,55.14c.06-1.04,8.94-5.02,9.1-4.15s-7.48,9.26-8.16,9.38-1.05-3.23-.94-5.23Z"/>
        <path d="M67.6,67.7c.9-.77,8.18-3.29,9.98-3.14s-1.77,4.67-3.13,5.19-9.28,.03-6.85-2.05Z"/>
        <path class="cls-3" d="M30.11,44.37c-2.16,2.98,.4,8.51,1.57,8.42s7.93-8.47,7.24-10.06-6.7-1.26-8.8,1.64Z"/>
        <path class="cls-3" d="M92.93,29.25c3.28,1.66,3.54,7.74,2.46,8.2s-10.93-3.9-11.04-5.63c-.11-1.73,5.38-4.19,8.58-2.57Z"/>
        <circle class="cls-6" cx="49.12" cy="75.72" r="9.9"/>
        <circle class="cls-5" cx="95.85" cy="62.76" r="9.9"/>
        <ellipse cx="79.93" cy="82.57" rx="9.82" ry="7.51" transform="translate(-13.76 16.03) rotate(-10.55)"/>
        <path class="cls-3" d="M75.47,89.63c1.73,.56,3.75,.71,5.83,.33,3.93-.73,6.98-3.16,8-6.03-1.51-.17-3.13-.13-4.78,.18-4.08,.76-7.39,2.9-9.04,5.52Z"/>
      </g>
      <g>
        <path class="cls-1" d="M12,83.21c13.26-6.52,23.4,9.73,23.87,12.05,.47,2.31-15.63,27.93-15.63,27.93,0,0-28.63-29.95-8.23-39.98Z"/>
        <circle class="cls-4" cx="23.42" cy="88.75" r="2.09"/>
        <circle class="cls-4" cx="16.37" cy="88.32" r="2.09"/>
        <circle class="cls-4" cx="10.61" cy="93.42" r="2.09"/>
        <ellipse class="cls-4" cx="19.33" cy="96.84" rx="5.18" ry="3.44" transform="translate(-55.87 32.84) rotate(-38.31)"/>
        <path class="cls-1" d="M20.24,123.19s13.25,18.31,35.15,13.7-6.64-17.41-19.51-41.63l-15.63,27.93Z"/>
      </g>
      <g>
        <path class="cls-1" d="M131.45,58.18c-14.76-.63-17.5,18.33-17,20.63,.51,2.31,25.55,19.28,25.55,19.28,0,0,14.15-38.94-8.55-39.91Z"/>
        <circle class="cls-4" cx="123.22" cy="67.85" r="2.09"/>
        <circle class="cls-4" cx="129.51" cy="64.61" r="2.09"/>
        <circle class="cls-4" cx="136.84" cy="66.96" r="2.09"/>
        <ellipse class="cls-4" cx="130.23" cy="73.6" rx="3.44" ry="5.18" transform="translate(26.22 181.11) rotate(-75.42)"/>
        <path class="cls-1" d="M140,98.09s-12.22,24.44-32.97,34.45c-20.75,10.01,8.42-33.97,7.42-53.73l25.55,19.28Z"/>
      </g>
      <g>
        <path class="cls-1" d="M161.02,176.24c-8.01,12.41-25.07,3.7-26.66,1.96s-.98-31.99-.98-31.99c0,0,39.96,10.94,27.64,30.04Z"/>
        <circle class="cls-4" cx="148.38" cy="177.37" r="2.09"/>
        <circle class="cls-4" cx="154.65" cy="174.11" r="2.09"/>
        <circle class="cls-4" cx="156.96" cy="166.77" r="2.09"/>
        <ellipse class="cls-4" cx="147.72" cy="168.33" rx="5.18" ry="3.44" transform="translate(-61.96 247) rotate(-69.3)"/>
        <path class="cls-1" d="M133.38,146.21s-20.79-8.87-37.18,6.35c-16.4,15.22,12.56,17.14,38.16,25.64l-.98-31.99Z"/>
      </g>
      <g>
        <path class="cls-1" d="M68.11,218.55c14.48-2.92,12.6-21.99,11.56-24.11-1.04-2.12-29.43-12.59-29.43-12.59,0,0-4.41,41.2,17.87,36.7Z"/>
        <circle class="cls-4" cx="73.78" cy="207.19" r="2.09"/>
        <circle class="cls-4" cx="68.45" cy="211.84" r="2.09"/>
        <circle class="cls-4" cx="60.77" cy="211.31" r="2.09"/>
        <ellipse class="cls-4" cx="65.6" cy="203.28" rx="3.44" ry="5.18" transform="translate(-138.48 266.33) rotate(-89.28)"/>
        <path class="cls-1" d="M50.24,181.85s-5.17-26.27,12.58-40.96c17.75-14.69,11.15,34.62,16.85,53.56l-29.43-12.59Z"/>
      </g>
      <ellipse class="cls-2" cx="89.63" cy="148.47" rx="32.56" ry="28.2" transform="translate(-42.21 35.8) rotate(-18.36)"/>
    </g>
  </g>
</svg>