<?xml version="1.0" encoding="UTF-8"?>
<svg id="Layer_2" data-name="Layer 2" xmlns="http://www.w3.org/2000/svg" viewBox="0 0 435.44 308.29">
  <defs>
    <style>
      .cls-1 {
        fill: #f64a05;
      }

      .cls-2 {
        fill: #fd8e35;
      }

      .cls-3 {
        fill: #fd7911;
      }

      .cls-4 {
        fill: #fdbc86;
      }

      .cls-5 {
        fill: #fda156;
      }

      .cls-6 {
        fill: #1c1b1a;
      }
    </style>
  </defs>
  <g id="Layer_1-2" data-name="Layer 1">
    <g>
      <path class="cls-2" d="M148.45,269.97c2.21,17.66-10.32,33.78-27.98,35.99-17.67,2.21-33.78-10.32-36-27.98-2.21-17.67,10.32-33.79,27.98-36s33.78,10.32,35.99,27.99Z"/>
      <path class="cls-2" d="M361,243.36c2.21,17.66-10.32,33.78-27.99,35.99s-33.78-10.32-35.99-27.98c-2.21-17.67,10.32-33.79,27.98-36s33.78,10.32,36,27.99Z"/>
      <path class="cls-2" d="M260.33,272.04c2.21,17.67-10.32,33.78-27.99,36-17.67,2.21-33.78-10.32-35.99-27.98-2.21-17.67,10.32-33.78,27.98-35.99,17.67-2.21,33.78,10.31,36,27.98Z"/>
      <path class="cls-6" d="M196.8,37.02c-7.65,.96-13.08,7.94-12.12,15.6l.64,5.08c4.08,.67,8.94,.76,14.09,.11s9.84-1.93,13.63-3.58l-.64-5.08c-.96-7.65-7.94-13.08-15.59-12.13Z"/>
      <path class="cls-6" d="M398.63,193.79c4.77,38.11-70.97,78.96-169.17,91.26-98.2,12.29-181.67-8.63-186.44-46.74-4.77-38.11,70.97-78.96,169.17-91.26,98.2-12.29,181.67,8.63,186.44,46.74Z"/>
      <ellipse class="cls-5" cx="217.73" cy="191.3" rx="219.27" ry="61.43" transform="translate(-22.08 28.53) rotate(-7.14)"/>
      <path class="cls-4" d="M223.67,238.74c-112.12,14.04-207.39,1.83-223.07-27.21-.58,2.29-.75,4.58-.47,6.83,4.21,33.66,105.04,48.76,225.2,33.71,120.16-15.04,214.16-54.53,209.94-88.19-.28-2.25-1.01-4.42-2.13-6.5-8.04,32.01-97.36,67.32-209.48,81.36Z"/>
      <path class="cls-2" d="M200.51,53.76c-47.16,5.9-80.6,48.92-74.69,96.07l3.92,31.31c25.14,4.14,55.09,4.67,86.81,.7s60.61-11.86,83.96-22.08l-3.92-31.31c-5.9-47.16-48.92-80.6-96.07-74.69Z"/>
      <polygon class="cls-3" points="53.45 250.48 52.42 250.61 50.71 236.95 129.97 184.87 130.54 185.73 51.82 237.46 53.45 250.48"/>
      <polygon class="cls-3" points="127.4 162.48 47.1 172.53 50.16 171.11 127.27 161.45 127.4 162.48"/>
      <polygon class="cls-3" points="168.2 257.05 167.17 257.18 165.52 243.62 183.59 188.4 184.57 188.72 166.54 243.83 168.2 257.05"/>
      <polygon class="cls-3" points="393.34 207.93 392.31 208.05 390.68 195.04 301.64 164.31 301.97 163.33 391.63 194.27 393.34 207.93"/>
      <polygon class="cls-3" points="378.47 131.04 298.95 141 298.82 139.97 375.15 130.42 378.47 131.04"/>
      <polygon class="cls-3" points="283.75 242.58 282.73 242.71 281.07 229.49 250.01 180.53 250.89 179.98 282.07 229.13 283.75 242.58"/>
      <rect class="cls-6" x="194.46" y="7.36" width="3.1" height="46.78" transform="translate(-2.3 24.59) rotate(-7.14)"/>
      <path class="cls-6" d="M199.63,5.85c.46,3.66-2.14,7-5.8,7.46s-7-2.14-7.46-5.8c-.46-3.66,2.14-7,5.8-7.46s7,2.14,7.46,5.8Z"/>
      <path class="cls-1" d="M237.18,147.32c-43.02,5.39-82.43-23.36-91.09-65.09-15.41,17.8-23.5,41.82-20.34,67.02l3.92,31.31c25.14,4.14,55.09,4.67,86.81,.7,31.72-3.97,60.61-11.86,83.96-22.08l-3.92-31.31c-.6-4.75-1.58-9.36-2.9-13.81-12.96,17.74-32.91,30.31-56.43,33.26Z"/>
      <path class="cls-6" d="M213.85,160.3c-31.72,3.97-61.67,3.45-86.81-.7l1.13,9.01,.09,.69,.79,6.3,.34,2.71,.88,6.99c25.14,4.14,55.09,4.67,86.81,.7,31.72-3.97,60.61-11.86,83.96-22.08l-.88-6.99-.34-2.71-.79-6.3-.09-.69-1.13-9.01c-23.35,10.21-52.24,18.1-83.96,22.08Z"/>
      <rect class="cls-3" x="146.29" y="161.88" width="1.03" height="25.79" transform="translate(-20.58 19.59) rotate(-7.14)"/>
      <rect class="cls-3" x="175.07" y="163.73" width="1.03" height="25.79" transform="translate(-20.58 23.18) rotate(-7.14)"/>
      <rect class="cls-3" x="283.21" y="144.74" width="1.04" height="25.79" transform="translate(-17.39 36.47) rotate(-7.14)"/>
      <rect class="cls-3" x="255.77" y="153.63" width="1.03" height="25.79" transform="translate(-18.7 33.13) rotate(-7.14)"/>
      <rect class="cls-3" x="213.36" y="160.5" width="1.03" height="25.79" transform="translate(-19.88 27.91) rotate(-7.14)"/>
    </g>
  </g>
</svg>