<?xml version="1.0" encoding="UTF-8"?>
<svg id="Layer_2" data-name="Layer 2" xmlns="http://www.w3.org/2000/svg" xmlns:xlink="http://www.w3.org/1999/xlink" viewBox="0 0 187.78 387.03">
  <defs>
    <style>
      .cls-1 {
        fill: none;
      }

      .cls-2 {
        clip-path: url(#clippath);
      }

      .cls-3 {
        fill: #f53405;
      }

      .cls-4 {
        fill: #fa7316;
      }

      .cls-5 {
        fill: #fff;
      }

      .cls-6 {
        fill: #fd8f3d;
      }

      .cls-7 {
        fill: #fd8124;
      }

      .cls-8 {
        fill: #fc7211;
      }

      .cls-9 {
        fill: #ffc37a;
      }

      .cls-10 {
        fill: #fca080;
      }

      .cls-11 {
        fill: #fd8934;
      }

      .cls-12 {
        fill: #feae85;
      }

      .cls-13 {
        fill: url(#Degradado_sin_nombre_2-4);
      }

      .cls-14 {
        fill: url(#Degradado_sin_nombre_2-2);
      }

      .cls-15 {
        fill: url(#Degradado_sin_nombre_2-3);
      }

      .cls-16 {
        fill: url(#Degradado_sin_nombre_2-5);
      }

      .cls-17 {
        clip-path: url(#clippath-1);
      }

      .cls-18 {
        clip-path: url(#clippath-4);
      }

      .cls-19 {
        clip-path: url(#clippath-3);
      }

      .cls-20 {
        clip-path: url(#clippath-2);
      }

      .cls-21 {
        clip-path: url(#clippath-5);
      }

      .cls-22 {
        opacity: .46;
      }

      .cls-23 {
        opacity: .67;
      }

      .cls-24 {
        opacity: .5;
      }

      .cls-25 {
        fill: url(#Degradado_sin_nombre_2);
      }

      .cls-26 {
        isolation: isolate;
      }
    </style>
    <clipPath id="clippath">
      <path class="cls-10" d="M117.8,134.81l-4.86-2.83c-.16-.09-.24-.3-.29-.58-.09-.56-.3-1.04-.31-1.65-.01-.9-.24-1.47-.66-1.71l4.86,2.83c.43,.25,.65,.82,.66,1.71,0,.6,.21,1.09,.31,1.65,.05,.28,.13,.49,.29,.58Z"/>
    </clipPath>
    <clipPath id="clippath-1">
      <path class="cls-1" d="M126.13,102.95l4.86,2.83s-.07-.04-.11-.06l-4.86-2.83s.07,.04,.11,.06Z"/>
    </clipPath>
    <clipPath id="clippath-2">
      <path class="cls-1" d="M104.82,132.02l4.86,2.83c.28,.16,.55,.32,.82,.48l-4.86-2.83c-.27-.16-.55-.32-.82-.48Z"/>
    </clipPath>
    <clipPath id="clippath-3">
      <path class="cls-1" d="M104.92,127.26l-4.86-2.83c0-1.5,0-3-.01-4.51l4.86,2.83c0,1.5,0,3.01,.01,4.51Z"/>
    </clipPath>
    <clipPath id="clippath-4">
      <path class="cls-1" d="M117.98,99.95l-4.86-2.83c1.31-.75,2.61-1.51,3.92-2.26l4.86,2.83c-1.31,.76-2.62,1.51-3.92,2.26Z"/>
    </clipPath>
    <linearGradient id="Degradado_sin_nombre_2" data-name="Degradado sin nombre 2" x1="104.91" y1="116.16" x2="135.35" y2="116.16" gradientUnits="userSpaceOnUse">
      <stop offset="0" stop-color="#fc7211"/>
      <stop offset="1" stop-color="#fc7211"/>
    </linearGradient>
    <clipPath id="clippath-5">
      <path class="cls-1" d="M104.91,122.75l-4.86-2.83c.31-.44,.6-.95,.94-1.29,.46-.46,.96-.86,1.45-1.17,1.3-.84,2.23-1.88,2.54-3.69,.09-.52,.13-.87-.11-1.13-.56-.59-1.07-1.24-1.63-1.82-.33-.34-.33-.78,.07-1.48,.8-1.37,1.59-2.74,2.37-4.12,.2-.35,.4-.58,.61-.71,.17-.1,.34-.12,.52-.08,.5,.11,1.07,.08,1.51,.3,.55,.28,1.09,.27,1.66-.06,.43-.25,.88-.68,1.37-1.32,.38-.49,.62-.88,.69-1.42,.13-.99,.24-1.98,.44-2.99,.12-.58,.42-1.21,.64-1.81l4.86,2.83c-.22,.61-.52,1.23-.64,1.81-.21,1.01-.31,2-.44,2.99-.07,.54-.31,.93-.69,1.42-.48,.64-.93,1.07-1.37,1.32-.58,.33-1.12,.34-1.66,.06-.44-.22-1.01-.19-1.51-.3-.19-.04-.36-.02-.52,.08-.21,.12-.41,.36-.61,.71-.78,1.38-1.57,2.75-2.37,4.12-.41,.7-.4,1.14-.07,1.48,.56,.58,1.07,1.23,1.63,1.82,.24,.26,.2,.61,.11,1.13-.31,1.81-1.24,2.86-2.54,3.69-.49,.32-.99,.71-1.45,1.17-.35,.35-.63,.86-.94,1.29Z"/>
    </clipPath>
    <linearGradient id="Degradado_sin_nombre_2-2" data-name="Degradado sin nombre 2" x1="111.75" y1="156.21" x2="124.14" y2="156.21" xlink:href="#Degradado_sin_nombre_2"/>
    <linearGradient id="Degradado_sin_nombre_2-3" data-name="Degradado sin nombre 2" x1="131.36" y1="146.74" x2="137.35" y2="146.74" xlink:href="#Degradado_sin_nombre_2"/>
    <linearGradient id="Degradado_sin_nombre_2-4" data-name="Degradado sin nombre 2" x1="111.75" y1="145.47" x2="124.14" y2="145.47" xlink:href="#Degradado_sin_nombre_2"/>
    <linearGradient id="Degradado_sin_nombre_2-5" data-name="Degradado sin nombre 2" x1="131.36" y1="136" x2="137.35" y2="136" xlink:href="#Degradado_sin_nombre_2"/>
  </defs>
  <g id="Layer_7" data-name="Layer 7">
    <g class="cls-24">
      <g>
        <g class="cls-22">
          <polygon class="cls-9" points="96.71 190.15 96.92 261.59 4.73 314.82 4.53 243.38 96.71 190.15"/>
        </g>
        <g>
          <g>
            <path class="cls-5" d="M87.43,248.3c.16-.09,.3-.02,.3,.16v.13c0,.19-.14,.42-.3,.51l-3.47,2c-.16,.09-.3,.02-.3-.16v-.13c0-.19,.14-.42,.3-.51l3.47-2Z"/>
            <path class="cls-3" d="M90.79,252.43c.14-.08,.25-.01,.25,.15v.22c0,.16-.11,.36-.25,.44l-4.12,2.38c-.14,.08-.25,.01-.26-.15v-.22c0-.16,.12-.37,.25-.45l4.12-2.38Z"/>
            <path class="cls-5" d="M88.08,250.02c.15-.09,.27-.02,.27,.15v.19c0,.16-.12,.38-.27,.47l-4.64,2.68c-.15,.09-.27,.01-.27-.15v-.19c0-.17,.12-.37,.27-.46l4.64-2.68Z"/>
            <path class="cls-5" d="M85.59,255.43c.14-.08,.25-.01,.25,.15v.22c0,.16-.11,.36-.25,.44l-4.12,2.38c-.14,.08-.25,.01-.25-.15v-.22c0-.16,.11-.36,.25-.45l4.12-2.38Z"/>
            <path class="cls-8" d="M85.77,253.05c.18-.11,.33-.02,.33,.19v.06c0,.21-.14,.46-.32,.56l-4.24,2.45c-.18,.11-.33,.02-.33-.19v-.06c0-.2,.14-.46,.32-.56l4.24-2.45Z"/>
            <path class="cls-5" d="M82.88,250.93c.16-.09,.29-.02,.29,.17v.13c0,.19-.13,.41-.29,.51l-3.47,2.01c-.16,.09-.29,.02-.29-.17v-.13c0-.19,.13-.41,.29-.51l3.47-2.01Z"/>
            <path class="cls-5" d="M80.54,258.34c.14-.08,.26-.02,.26,.15v.22c0,.16-.12,.36-.26,.44l-9.08,5.24c-.14,.08-.26,.02-.26-.14v-.22c0-.16,.12-.37,.26-.45l9.08-5.24Z"/>
            <path class="cls-5" d="M80.49,256.17c.17-.1,.31-.02,.31,.17v.04c0,.19-.14,.43-.31,.53l-8.99,5.19c-.17,.1-.31,.02-.31-.18v-.04c0-.19,.14-.42,.31-.52l8.99-5.19Z"/>
            <path class="cls-3" d="M82.45,253.27c.15-.09,.27-.02,.27,.15v.19c0,.16-.12,.38-.27,.47l-10.19,5.88c-.15,.09-.27,.02-.27-.15v-.19c0-.17,.12-.38,.27-.47l10.19-5.88Z"/>
            <path class="cls-8" d="M78.46,253.48c.16-.09,.29-.02,.29,.17v.13c0,.19-.13,.41-.29,.51l-7.83,4.52c-.16,.09-.29,.02-.29-.17v-.13c0-.19,.13-.41,.29-.51l7.83-4.52Z"/>
            <path class="cls-5" d="M69.39,258.72c.16-.09,.3-.02,.3,.16v.13c0,.19-.14,.42-.3,.51l-4.75,2.74c-.16,.09-.29,.02-.29-.17v-.13c0-.19,.13-.41,.29-.51l4.75-2.74Z"/>
            <path class="cls-8" d="M70.2,264.31c.14-.08,.25-.01,.25,.15v.22c0,.16-.11,.36-.25,.44l-5.58,3.22c-.14,.08-.25,.01-.25-.15v-.22c0-.16,.11-.36,.25-.45l5.58-3.22Z"/>
            <path class="cls-5" d="M70.15,262.14c.16-.09,.3-.02,.3,.17v.04c0,.19-.14,.43-.3,.53l-5.49,3.17c-.16,.09-.3,.02-.3-.18v-.04c0-.19,.14-.42,.3-.52l5.49-3.17Z"/>
            <path class="cls-5" d="M70.89,259.94c.14-.08,.27-.02,.27,.15v.19c0,.16-.12,.38-.27,.46l-6.28,3.62c-.15,.09-.27,.01-.27-.15v-.19c0-.17,.12-.37,.27-.46l6.28-3.62Z"/>
            <path class="cls-5" d="M93.89,246.66c.15-.09,.27-.02,.27,.15v.19c0,.16-.12,.38-.27,.47l-4.64,2.68c-.15,.09-.27,.01-.27-.15v-.19c0-.17,.12-.37,.27-.46l4.64-2.68Z"/>
          </g>
          <g>
            <path class="cls-5" d="M51.11,239.43c.29-.17,.52-.03,.52,.3,0,.32-.23,.72-.52,.89l-4.03,2.33c-.28,.16-.51,.03-.51-.29,0-.33,.23-.73,.51-.89l4.03-2.33Z"/>
            <path class="cls-5" d="M51.35,235.93c.28-.16,.51-.03,.51,.29,0,.33-.23,.73-.51,.89l-9.08,5.24c-.29,.17-.52,.03-.52-.3,0-.32,.23-.72,.52-.89l9.08-5.24Z"/>
            <path class="cls-3" d="M45.62,242.6c.29-.17,.52-.03,.52,.3,0,.32-.23,.72-.52,.89l-2.65,1.53c-.28,.16-.51,.03-.51-.29,0-.33,.23-.73,.51-.89l2.65-1.53Z"/>
            <path class="cls-8" d="M46.47,227.54c.27-.16,.49-.04,.49,.27,0,.31-.22,.69-.49,.85l-34.32,19.81c-.27,.16-.48,.02-.48-.29,0-.31,.21-.68,.48-.83l34.32-19.81Z"/>
            <path class="cls-8" d="M50.06,263.29c.29-.17,.52-.03,.52,.3,0,.32-.23,.72-.52,.89l-7.34,4.24c-.29,.17-.52,.03-.52-.29,0-.33,.23-.73,.52-.9l7.34-4.24Z"/>
            <g class="cls-26">
              <path class="cls-3" d="M45.72,277.56c.29-.17,.52-.03,.52,.29,0,.33-.23,.73-.52,.9l-2.65,1.53c-.28,.16-.51,.03-.51-.3,0-.32,.23-.72,.51-.88l2.65-1.53Z"/>
              <path class="cls-5" d="M51.45,270.89c.28-.16,.51-.03,.51,.3,0,.33-.23,.73-.51,.89l-9.08,5.24c-.29,.17-.52,.03-.52-.3,0-.33,.23-.73,.52-.9l9.08-5.24Z"/>
              <path class="cls-5" d="M44.62,271.47c.28-.16,.51-.03,.51,.3,0,.32-.23,.72-.51,.88l-18.44,10.65c-.29,.17-.52,.03-.52-.29,0-.33,.23-.73,.52-.9l18.44-10.65Z"/>
            </g>
            <path class="cls-5" d="M41.26,280.14c.28-.16,.51-.03,.51,.29,0,.33-.23,.73-.51,.89l-17.56,10.14c-.29,.17-.52,.03-.52-.3,0-.32,.23-.72,.52-.89l17.56-10.14Z"/>
            <path class="cls-5" d="M32.68,281.72c.24-.14,.44-.02,.44,.25v.17c0,.29-.2,.64-.44,.78l-11.98,6.92c-.24,.14-.44,.02-.44-.26v-.17c0-.28,.2-.63,.44-.76l11.98-6.92Z"/>
            <g class="cls-26">
              <path class="cls-8" d="M21.75,291.4c.25-.14,.45-.03,.45,.26v.14c0,.29-.2,.64-.45,.78l-7.54,4.35c-.25,.14-.45,.03-.45-.26v-.14c0-.29,.2-.64,.45-.78l7.54-4.35Z"/>
              <path class="cls-8" d="M19.21,289.5c.21-.12,.39-.02,.39,.21v.33c0,.23-.17,.53-.38,.65l-5.08,2.94c-.21,.12-.38,.02-.38-.21v-.33c0-.23,.16-.53,.37-.65l5.08-2.94Z"/>
              <path class="cls-8" d="M23.64,283.58c.29-.17,.52-.03,.52,.3,0,.32-.23,.72-.52,.89l-11.33,6.54c-.28,.16-.51,.03-.51-.29,0-.33,.23-.73,.51-.89l11.33-6.54Z"/>
            </g>
            <path class="cls-8" d="M22.28,279.33c.28-.16,.51-.03,.51,.3,0,.32-.23,.72-.51,.88l-9.99,5.76c-.28,.16-.51,.03-.51-.29,0-.33,.23-.73,.51-.89l9.99-5.77Z"/>
            <path class="cls-3" d="M40.57,277.17c.24-.14,.44-.02,.44,.25v.18c0,.28-.2,.63-.44,.76l-6.46,3.73c-.24,.14-.44,.02-.44-.25v-.18c0-.28,.2-.63,.44-.76l6.46-3.73Z"/>
            <path class="cls-3" d="M51.21,274.4c.29-.17,.52-.03,.52,.29,0,.33-.23,.73-.52,.9l-4.03,2.33c-.28,.16-.51,.03-.51-.3,0-.32,.23-.72,.51-.88l4.03-2.33Z"/>
            <path class="cls-3" d="M40.96,268.54c.28-.16,.51-.03,.51,.3,0,.32-.23,.72-.51,.88l-16.31,9.42c-.28,.16-.51,.03-.51-.29,0-.33,.23-.73,.51-.89l16.31-9.42Z"/>
            <path class="cls-8" d="M46.57,262.5c.27-.16,.49-.03,.49,.28,0,.31-.22,.68-.49,.84l-34.32,19.81c-.27,.16-.48,.03-.48-.28,0-.31,.21-.69,.48-.84l34.32-19.81Z"/>
            <path class="cls-5" d="M41.16,245.17c.28-.16,.51-.03,.51,.3,0,.32-.23,.72-.51,.88l-17.56,10.14c-.29,.17-.52,.03-.52-.29,0-.33,.23-.73,.52-.9l17.56-10.14Z"/>
            <path class="cls-5" d="M32.58,246.77c.24-.14,.44-.03,.44,.25v.17c0,.28-.2,.63-.44,.76l-11.98,6.92c-.24,.14-.44,.02-.44-.25v-.17c0-.29,.2-.63,.44-.76l11.98-6.92Z"/>
            <path class="cls-5" d="M22.18,244.38c.28-.16,.51-.04,.51,.29,0,.33-.23,.73-.51,.89l-9.99,5.76c-.28,.16-.51,.03-.51-.3,0-.33,.23-.72,.51-.88l9.99-5.77Z"/>
            <path class="cls-8" d="M40.47,242.22c.24-.14,.44-.03,.44,.25v.17c0,.29-.2,.63-.44,.76l-6.46,3.73c-.24,.14-.44,.03-.44-.25v-.17c0-.29,.2-.63,.44-.76l6.46-3.73Z"/>
            <path class="cls-5" d="M44.52,236.51c.28-.16,.51-.03,.51,.3,0,.33-.23,.73-.51,.89l-18.44,10.65c-.29,.17-.52,.03-.52-.3,0-.33,.23-.73,.52-.9l18.44-10.65Z"/>
            <path class="cls-3" d="M40.86,233.59c.28-.16,.51-.04,.51,.29,0,.33-.23,.73-.51,.89l-16.31,9.42c-.28,.16-.51,.03-.51-.3,0-.33,.23-.72,.51-.88l16.31-9.42Z"/>
            <g class="cls-26">
              <path class="cls-8" d="M21.65,256.44c.25-.14,.45-.03,.45,.26v.14c0,.29-.2,.64-.45,.78l-7.54,4.35c-.25,.14-.45,.03-.45-.26v-.14c0-.29,.2-.64,.45-.78l7.54-4.35Z"/>
              <path class="cls-5" d="M19.11,254.55c.21-.12,.39-.03,.39,.21v.32c0,.24-.17,.53-.38,.65l-5.08,2.94c-.21,.12-.38,.03-.38-.21v-.32c0-.24,.16-.53,.37-.65l5.08-2.94Z"/>
              <path class="cls-8" d="M23.54,248.62c.29-.17,.52-.03,.52,.3,0,.33-.23,.73-.52,.9l-11.33,6.54c-.28,.16-.51,.03-.51-.3,0-.33,.23-.73,.51-.89l11.33-6.54Z"/>
            </g>
            <path class="cls-5" d="M49.96,228.34c.29-.17,.52-.05,.52,.29,0,.33-.23,.73-.52,.9l-7.34,4.24c-.29,.17-.52,.03-.52-.3,0-.33,.23-.72,.52-.89l7.34-4.24Z"/>
            <path class="cls-5" d="M59.36,222.91c.28-.16,.51-.04,.51,.29,0,.33-.23,.73-.51,.89l-7.35,4.24c-.28,.16-.51,.03-.51-.3,0-.33,.23-.72,.51-.88l7.35-4.24Z"/>
            <g>
              <path class="cls-5" d="M45.85,248.08c.24-.14,.44-.03,.44,.24v.19c0,.28-.2,.61-.44,.75l-5.12,2.96c-.24,.14-.44,.03-.44-.24v-.19c0-.28,.2-.61,.44-.75l5.12-2.96Z"/>
              <path class="cls-3" d="M50.8,254.17c.21-.12,.38-.02,.38,.23v.32c0,.23-.16,.53-.37,.65l-6.1,3.52c-.2,.12-.38,.02-.38-.21v-.32c0-.24,.17-.54,.37-.66l6.1-3.52Z"/>
              <path class="cls-5" d="M46.8,250.61c.22-.13,.4-.03,.41,.22v.28c0,.24-.18,.56-.4,.69l-6.86,3.96c-.22,.13-.4,.02-.4-.23v-.28c0-.25,.17-.55,.39-.68l6.86-3.96Z"/>
              <path class="cls-5" d="M43.12,258.61c.21-.12,.38-.02,.38,.23v.32c0,.23-.16,.53-.37,.65l-6.1,3.52c-.21,.12-.38,.02-.38-.21v-.32c0-.24,.16-.54,.37-.66l6.1-3.52Z"/>
              <path class="cls-8" d="M43.39,255.09c.27-.16,.48-.02,.48,.28v.09c0,.31-.21,.68-.48,.83l-6.27,3.62c-.27,.16-.48,.03-.48-.28v-.09c0-.3,.21-.68,.48-.83l6.27-3.62Z"/>
              <path class="cls-5" d="M39.12,251.96c.24-.14,.43-.03,.43,.25v.19c0,.28-.19,.61-.43,.75l-5.13,2.96c-.24,.14-.43,.03-.43-.25v-.19c0-.28,.19-.61,.43-.75l5.13-2.96Z"/>
              <path class="cls-5" d="M35.67,262.91c.21-.12,.39-.02,.39,.22v.32c0,.23-.17,.53-.38,.65l-13.42,7.75c-.21,.12-.39,.02-.39-.21v-.32c0-.24,.17-.54,.38-.66l13.42-7.75Z"/>
              <path class="cls-5" d="M35.59,259.7c.25-.14,.45-.03,.45,.25v.07c0,.29-.2,.64-.45,.78l-13.29,7.67c-.25,.14-.45,.03-.45-.26v-.07c0-.28,.2-.63,.45-.77l13.29-7.67Z"/>
              <path class="cls-3" d="M38.48,255.41c.22-.13,.4-.03,.41,.22v.28c0,.24-.18,.56-.4,.69l-15.05,8.69c-.22,.13-.41,.02-.41-.22v-.28c0-.25,.18-.56,.4-.69l15.05-8.69Z"/>
              <path class="cls-8" d="M32.59,255.73c.24-.14,.43-.03,.43,.25v.19c0,.28-.19,.61-.43,.75l-11.56,6.68c-.24,.14-.43,.03-.43-.25v-.19c0-.28,.19-.61,.43-.75l11.56-6.68Z"/>
              <path class="cls-5" d="M19.19,263.47c.24-.14,.44-.03,.44,.24v.19c0,.28-.2,.61-.44,.75l-7.02,4.05c-.24,.14-.43,.03-.43-.25v-.19c0-.28,.19-.61,.43-.75l7.02-4.05Z"/>
              <path class="cls-8" d="M20.39,271.73c.21-.12,.38-.02,.38,.23v.32c0,.23-.16,.53-.37,.65l-8.25,4.76c-.21,.12-.38,.02-.38-.21v-.32c0-.24,.16-.54,.37-.66l8.25-4.76Z"/>
              <path class="cls-5" d="M20.31,268.52c.24-.14,.44-.02,.44,.25v.07c0,.29-.2,.64-.44,.78l-8.12,4.69c-.24,.14-.44,.02-.44-.26v-.07c0-.28,.2-.63,.44-.76l8.12-4.69Z"/>
              <path class="cls-5" d="M21.41,265.27c.21-.12,.4-.03,.4,.23v.28c0,.24-.18,.56-.39,.68l-9.27,5.35c-.22,.13-.4,.02-.4-.23v-.28c0-.25,.17-.55,.39-.68l9.27-5.35Z"/>
              <path class="cls-5" d="M55.39,245.65c.22-.13,.4-.03,.41,.22v.28c0,.24-.18,.56-.4,.69l-6.86,3.96c-.22,.13-.4,.02-.4-.23v-.28c0-.25,.17-.55,.39-.68l6.86-3.96Z"/>
            </g>
            <path class="cls-5" d="M59.46,257.86c.28-.16,.51-.03,.51,.3,0,.32-.23,.72-.51,.88l-7.35,4.24c-.28,.16-.51,.03-.51-.29,0-.33,.23-.73,.51-.89l7.35-4.24Z"/>
          </g>
        </g>
        <g>
          <polygon class="cls-4" points="70.96 231.58 70.97 232.89 66.01 239.25 70.99 239.86 70.99 241.2 64.48 240.49 64.48 239.83 70.96 231.58"/>
          <polygon class="cls-4" points="80.77 222.66 73.47 239.56 72.28 240.25 79.57 223.35 80.77 222.66"/>
          <polygon class="cls-4" points="82.07 225.17 88.59 225.91 88.59 226.57 82.09 234.79 82.09 233.45 87.05 227.1 82.07 226.48 82.07 225.17"/>
        </g>
      </g>
      <g>
        <g class="cls-23">
          <polygon class="cls-8" points="184.48 246.68 184.71 327.11 80.94 387.03 80.71 306.59 184.48 246.68"/>
        </g>
        <g>
          <path class="cls-3" d="M93.99,324.94v1.75s-1.46,.85-1.46,.85l.02,7.98c0,.24-.05,.58-.14,1-.1,.42-.29,.86-.57,1.31,.28,.12,.47,.34,.57,.67,.1,.32,.15,.59,.15,.81l.02,8.32,1.46-.84v1.75s-2.5,1.45-2.5,1.45c-.13,.08-.28,.09-.4,.03-.14-.05-.2-.26-.2-.6l-.02-8.6c0-.41-.09-.74-.27-.96-.17-.23-.43-.27-.77-.12v-1.59c.17-.1,.33-.25,.46-.45,.13-.2,.25-.4,.34-.61,.09-.22,.15-.43,.18-.65,.04-.21,.06-.38,.06-.5l-.02-8.27c0-.39,.08-.69,.24-.89,.15-.2,.28-.33,.37-.38l2.5-1.45Z"/>
          <polygon class="cls-3" points="110.66 316.24 98.16 345.21 96.11 346.4 108.61 317.42 110.66 316.24"/>
          <path class="cls-3" d="M115.23,312.68c.1-.06,.21-.07,.38-.05,.16,.02,.24,.23,.24,.61l.02,8.27c0,.12,.02,.27,.05,.44,.04,.18,.1,.32,.17,.44,.09,.12,.18,.19,.31,.24,.13,.06,.29,.02,.48-.09v1.59c-.33,.24-.58,.57-.75,1-.16,.43-.25,.85-.25,1.26l.02,8.6c0,.34-.07,.63-.2,.84-.13,.21-.27,.35-.41,.44l-2.5,1.45v-1.75s1.47-.85,1.47-.85l-.02-8.32c0-.22,.04-.54,.12-.97,.1-.44,.28-.88,.56-1.32-.28-.13-.46-.35-.56-.66-.09-.32-.13-.6-.13-.85l-.02-7.98-1.47,.85v-1.75s2.5-1.45,2.5-1.45Z"/>
        </g>
        <g>
          <path class="cls-5" d="M169.52,282.92c.29-.17,.52-.03,.52,.3,0,.32-.23,.72-.52,.89l-4.03,2.33c-.28,.16-.51,.03-.51-.29,0-.33,.23-.73,.51-.89l4.03-2.33Z"/>
          <path class="cls-5" d="M169.76,279.42c.28-.16,.51-.03,.51,.29,0,.33-.23,.73-.51,.89l-9.08,5.24c-.29,.17-.52,.03-.52-.3,0-.32,.23-.72,.52-.89l9.08-5.24Z"/>
          <path class="cls-3" d="M164.03,286.09c.29-.17,.52-.03,.52,.3,0,.32-.23,.72-.52,.89l-2.65,1.53c-.28,.16-.51,.03-.51-.29,0-.33,.23-.73,.51-.89l2.65-1.53Z"/>
          <path class="cls-8" d="M164.88,271.03c.27-.16,.49-.04,.49,.27,0,.31-.22,.69-.49,.85l-34.32,19.81c-.27,.16-.48,.02-.48-.29s.21-.68,.48-.83l34.32-19.81Z"/>
          <path class="cls-8" d="M168.47,306.78c.29-.17,.52-.03,.52,.3,0,.32-.23,.72-.52,.89l-7.34,4.24c-.29,.17-.52,.03-.52-.29,0-.33,.23-.73,.52-.9l7.34-4.24Z"/>
          <g class="cls-26">
            <path class="cls-3" d="M164.13,321.05c.29-.17,.52-.03,.52,.29,0,.33-.23,.73-.52,.9l-2.65,1.53c-.28,.16-.51,.03-.51-.3,0-.32,.23-.72,.51-.88l2.65-1.53Z"/>
            <path class="cls-5" d="M169.86,314.37c.28-.16,.51-.03,.51,.3,0,.33-.23,.73-.51,.89l-9.08,5.24c-.29,.17-.52,.03-.52-.3,0-.33,.23-.73,.52-.9l9.08-5.24Z"/>
            <path class="cls-5" d="M163.03,314.96c.28-.16,.51-.03,.51,.3,0,.32-.23,.72-.51,.88l-18.44,10.65c-.29,.17-.52,.03-.52-.29,0-.33,.23-.73,.52-.9l18.44-10.65Z"/>
          </g>
          <path class="cls-5" d="M159.67,323.62c.28-.16,.51-.03,.51,.29,0,.33-.23,.73-.51,.89l-17.56,10.14c-.29,.17-.52,.03-.52-.3,0-.32,.23-.72,.52-.89l17.56-10.14Z"/>
          <path class="cls-5" d="M151.09,325.21c.24-.14,.44-.02,.44,.25v.17c0,.29-.2,.64-.44,.78l-11.98,6.92c-.24,.14-.44,.02-.44-.26v-.17c0-.28,.2-.63,.44-.76l11.98-6.92Z"/>
          <g class="cls-26">
            <path class="cls-8" d="M140.16,334.89c.25-.14,.45-.03,.45,.26v.14c0,.29-.2,.64-.45,.78l-7.54,4.35c-.25,.14-.45,.03-.45-.26v-.14c0-.29,.2-.64,.45-.78l7.54-4.35Z"/>
            <path class="cls-8" d="M137.62,332.99c.21-.12,.39-.02,.39,.21v.33c0,.23-.17,.53-.38,.65l-5.08,2.94c-.21,.12-.38,.02-.38-.21v-.33c0-.23,.16-.53,.37-.65l5.08-2.94Z"/>
            <path class="cls-8" d="M142.05,327.07c.29-.17,.52-.03,.52,.3,0,.32-.23,.72-.52,.89l-11.33,6.54c-.28,.16-.51,.03-.51-.29,0-.33,.23-.73,.51-.89l11.33-6.54Z"/>
          </g>
          <path class="cls-8" d="M140.69,322.82c.28-.16,.51-.03,.51,.3,0,.32-.23,.72-.51,.88l-9.99,5.76c-.28,.16-.51,.03-.51-.29,0-.33,.23-.73,.51-.89l9.99-5.77Z"/>
          <path class="cls-3" d="M158.98,320.66c.24-.14,.44-.02,.44,.25v.18c0,.28-.2,.63-.44,.76l-6.46,3.73c-.24,.14-.44,.02-.44-.25v-.18c0-.28,.2-.63,.44-.76l6.46-3.73Z"/>
          <path class="cls-3" d="M169.62,317.88c.29-.17,.52-.03,.52,.29,0,.33-.23,.73-.52,.9l-4.03,2.33c-.28,.16-.51,.03-.51-.3,0-.32,.23-.72,.51-.88l4.03-2.33Z"/>
          <path class="cls-3" d="M159.37,312.03c.28-.16,.51-.03,.51,.3,0,.32-.23,.72-.51,.88l-16.31,9.42c-.28,.16-.51,.03-.51-.29,0-.33,.23-.73,.51-.89l16.31-9.42Z"/>
          <path class="cls-8" d="M164.98,305.98c.27-.16,.49-.03,.49,.28,0,.31-.22,.68-.49,.84l-34.32,19.81c-.27,.16-.48,.03-.48-.28,0-.31,.21-.69,.48-.84l34.32-19.81Z"/>
          <path class="cls-5" d="M159.57,288.66c.28-.16,.51-.03,.51,.3,0,.32-.23,.72-.51,.88l-17.56,10.14c-.29,.17-.52,.03-.52-.29,0-.33,.23-.73,.52-.9l17.56-10.14Z"/>
          <path class="cls-5" d="M150.99,290.26c.24-.14,.44-.03,.44,.25v.17c0,.28-.2,.63-.44,.76l-11.98,6.92c-.24,.14-.44,.02-.44-.25v-.17c0-.29,.2-.63,.44-.76l11.98-6.92Z"/>
          <path class="cls-5" d="M140.59,287.86c.28-.16,.51-.04,.51,.29,0,.33-.23,.73-.51,.89l-9.99,5.76c-.28,.16-.51,.03-.51-.3,0-.33,.23-.72,.51-.88l9.99-5.77Z"/>
          <path class="cls-8" d="M158.88,285.7c.24-.14,.44-.03,.44,.25v.17c0,.29-.2,.63-.44,.76l-6.46,3.73c-.24,.14-.44,.03-.44-.25v-.17c0-.29,.2-.63,.44-.76l6.46-3.73Z"/>
          <path class="cls-5" d="M162.93,279.99c.28-.16,.51-.03,.51,.3,0,.33-.23,.73-.51,.89l-18.44,10.65c-.29,.17-.52,.03-.52-.3,0-.33,.23-.73,.52-.9l18.44-10.65Z"/>
          <path class="cls-3" d="M159.27,277.08c.28-.16,.51-.04,.51,.29,0,.33-.23,.73-.51,.89l-16.31,9.42c-.28,.16-.51,.03-.51-.3,0-.33,.23-.72,.51-.88l16.31-9.42Z"/>
          <g class="cls-26">
            <path class="cls-8" d="M140.06,299.92c.25-.14,.45-.03,.45,.26v.14c0,.29-.2,.64-.45,.78l-7.54,4.35c-.25,.14-.45,.03-.45-.26v-.14c0-.29,.2-.64,.45-.78l7.54-4.35Z"/>
            <path class="cls-5" d="M137.52,298.03c.21-.12,.39-.03,.39,.21v.32c0,.24-.17,.53-.38,.65l-5.08,2.94c-.21,.12-.38,.03-.38-.21v-.32c0-.24,.16-.53,.37-.65l5.08-2.94Z"/>
            <path class="cls-8" d="M141.95,292.11c.29-.17,.52-.03,.52,.3,0,.33-.23,.73-.52,.9l-11.33,6.54c-.28,.16-.51,.03-.51-.3,0-.33,.23-.73,.51-.89l11.33-6.54Z"/>
          </g>
          <path class="cls-5" d="M168.37,271.82c.29-.17,.52-.05,.52,.29,0,.33-.23,.73-.52,.9l-7.34,4.24c-.29,.17-.52,.03-.52-.3,0-.33,.23-.72,.52-.89l7.34-4.24Z"/>
          <path class="cls-5" d="M177.76,266.4c.28-.16,.51-.04,.51,.29,0,.33-.23,.73-.51,.89l-7.35,4.24c-.28,.16-.51,.03-.51-.3,0-.33,.23-.72,.51-.88l7.35-4.24Z"/>
          <g>
            <path class="cls-5" d="M164.26,291.56c.24-.14,.44-.03,.44,.24v.19c0,.28-.2,.61-.44,.75l-5.12,2.96c-.24,.14-.44,.03-.44-.24v-.19c0-.28,.2-.61,.44-.75l5.12-2.96Z"/>
            <path class="cls-3" d="M169.21,297.66c.21-.12,.38-.02,.38,.23v.32c0,.23-.16,.53-.37,.65l-6.1,3.52c-.2,.12-.38,.02-.38-.21v-.32c0-.24,.17-.54,.37-.66l6.1-3.52Z"/>
            <path class="cls-5" d="M165.21,294.1c.22-.13,.4-.03,.41,.22v.28c0,.24-.18,.56-.4,.69l-6.86,3.96c-.22,.13-.4,.02-.4-.23v-.28c0-.25,.17-.55,.39-.68l6.86-3.96Z"/>
            <path class="cls-5" d="M161.53,302.09c.21-.12,.38-.02,.38,.23v.32c0,.23-.16,.53-.37,.65l-6.1,3.52c-.21,.12-.38,.02-.38-.21v-.32c0-.24,.16-.54,.37-.66l6.1-3.52Z"/>
            <path class="cls-8" d="M161.8,298.58c.27-.16,.48-.02,.48,.28v.09c0,.31-.21,.68-.48,.83l-6.27,3.62c-.27,.16-.48,.03-.48-.28v-.09c0-.3,.21-.68,.48-.83l6.27-3.62Z"/>
            <path class="cls-5" d="M157.53,295.45c.24-.14,.43-.03,.43,.25v.19c0,.28-.19,.61-.43,.75l-5.13,2.96c-.24,.14-.43,.03-.43-.25v-.19c0-.28,.19-.61,.43-.75l5.13-2.96Z"/>
            <path class="cls-5" d="M154.07,306.4c.21-.12,.39-.02,.39,.22v.32c0,.23-.17,.53-.38,.65l-13.42,7.75c-.21,.12-.39,.02-.39-.21v-.32c0-.24,.17-.54,.38-.67l13.42-7.75Z"/>
            <path class="cls-5" d="M154,303.18c.25-.14,.45-.03,.45,.25v.07c0,.29-.2,.64-.45,.78l-13.29,7.67c-.25,.14-.45,.03-.45-.26v-.07c0-.28,.2-.63,.45-.77l13.29-7.67Z"/>
            <path class="cls-3" d="M156.89,298.9c.22-.13,.4-.03,.41,.22v.28c0,.24-.18,.56-.4,.69l-15.05,8.69c-.22,.13-.4,.02-.41-.22v-.28c0-.25,.18-.56,.4-.69l15.05-8.69Z"/>
            <path class="cls-8" d="M151,299.22c.24-.14,.43-.03,.43,.25v.19c0,.28-.19,.61-.43,.75l-11.56,6.68c-.24,.14-.43,.03-.43-.25v-.19c0-.28,.19-.61,.43-.75l11.56-6.68Z"/>
            <path class="cls-5" d="M137.59,306.96c.24-.14,.44-.03,.44,.24v.19c0,.28-.2,.61-.44,.75l-7.02,4.05c-.24,.14-.43,.03-.43-.25v-.19c0-.28,.19-.61,.43-.75l7.02-4.05Z"/>
            <path class="cls-8" d="M138.79,315.22c.21-.12,.38-.02,.38,.23v.32c0,.23-.16,.53-.37,.65l-8.25,4.76c-.21,.12-.38,.02-.38-.21v-.32c0-.24,.16-.54,.37-.66l8.25-4.76Z"/>
            <path class="cls-5" d="M138.72,312.01c.24-.14,.44-.02,.44,.25v.07c0,.29-.2,.64-.44,.78l-8.12,4.69c-.24,.14-.44,.02-.44-.26v-.07c0-.28,.2-.63,.44-.76l8.12-4.69Z"/>
            <path class="cls-5" d="M139.82,308.75c.21-.12,.4-.03,.4,.23v.28c0,.24-.18,.56-.39,.68l-9.27,5.35c-.22,.13-.4,.02-.4-.23v-.28c0-.25,.17-.55,.39-.68l9.27-5.35Z"/>
            <path class="cls-5" d="M173.8,289.14c.22-.13,.4-.03,.41,.22v.28c0,.24-.18,.56-.4,.69l-6.86,3.96c-.22,.13-.4,.02-.4-.23v-.28c0-.25,.17-.55,.39-.68l6.86-3.96Z"/>
          </g>
          <path class="cls-5" d="M177.86,301.35c.28-.16,.51-.03,.51,.3,0,.32-.23,.72-.51,.88l-7.35,4.24c-.28,.16-.51,.03-.51-.29,0-.33,.23-.73,.51-.89l7.35-4.24Z"/>
        </g>
      </g>
      <g>
        <g class="cls-23">
          <path class="cls-8" d="M92.19,2.33l.19,66.05c0,.84-.44,1.61-1.17,2.03L3.69,120.95c-1.56,.9-3.5-.22-3.51-2.02L0,52.88c0-.84,.44-1.61,1.17-2.03L88.69,.32c1.56-.9,3.5,.22,3.51,2.02Z"/>
        </g>
        <g>
          <g>
            <path class="cls-4" d="M14.63,66.41v1.75s-1.47,.85-1.47,.85l.02,7.98c0,.25-.05,.58-.14,1-.1,.43-.29,.86-.57,1.31,.28,.13,.47,.35,.57,.67,.1,.32,.15,.59,.15,.81l.02,8.32,1.47-.85v1.75s-2.5,1.45-2.5,1.45c-.14,.08-.28,.09-.41,.04-.14-.05-.2-.26-.2-.6l-.02-8.6c0-.41-.09-.74-.27-.96-.17-.23-.43-.27-.77-.12v-1.59c.18-.11,.33-.25,.47-.45,.12-.19,.24-.4,.33-.62,.09-.22,.15-.43,.19-.64,.03-.22,.05-.38,.05-.5l-.02-8.27c0-.39,.08-.68,.24-.89,.16-.21,.28-.33,.38-.38l2.5-1.45Z"/>
            <polygon class="cls-4" points="31.3 57.71 18.79 86.69 16.74 87.87 29.24 58.9 31.3 57.71"/>
            <path class="cls-4" d="M35.88,54.15c.09-.05,.21-.07,.37-.05,.16,.03,.24,.23,.24,.61l.02,8.27c0,.12,.02,.27,.06,.44,.03,.17,.09,.32,.17,.43,.08,.12,.18,.2,.3,.26,.13,.05,.29,.01,.48-.1v1.59c-.33,.24-.58,.57-.75,1-.16,.43-.25,.85-.25,1.26l.02,8.6c0,.34-.07,.63-.2,.84-.12,.21-.27,.35-.4,.43l-2.5,1.45v-1.75s1.46-.84,1.46-.84l-.02-8.32c0-.22,.04-.54,.13-.97,.09-.43,.27-.86,.56-1.32-.29-.12-.47-.34-.56-.66-.1-.31-.14-.59-.14-.84l-.02-7.98-1.46,.84v-1.75s2.5-1.45,2.5-1.45Z"/>
          </g>
          <g>
            <g class="cls-26">
              <path class="cls-12" d="M74.62,19.84c.31-.12,.61-.23,.91-.32,.19-.06,.38-.11,.57-.16,.18-.04,.36-.08,.53-.11,.23-.04,.46-.08,.68-.11,.13-.01,.26-.03,.39-.04,.28-.02,.56-.03,.83-.02,.06,0,.13,0,.19,0,.33,.02,.65,.06,.96,.12,.08,.01,.15,.03,.23,.05,.24,.06,.48,.12,.71,.21,.07,.03,.15,.05,.22,.08,.29,.12,.58,.25,.85,.4l-3.19-1.85s-.05-.03-.07-.04c-.21-.12-.43-.22-.65-.32-.04-.02-.09-.03-.13-.05-.07-.03-.15-.05-.22-.08-.11-.04-.22-.09-.34-.12-.12-.04-.25-.06-.38-.09-.08-.02-.15-.04-.23-.05-.04,0-.08-.02-.12-.03-.25-.04-.51-.07-.78-.09-.02,0-.03,0-.05,0-.06,0-.13,0-.19,0-.2,0-.41-.01-.62,0-.07,0-.14,.02-.21,.02-.13,0-.26,.02-.39,.04-.12,.01-.24,.02-.36,.04-.11,.02-.22,.05-.32,.07-.18,.03-.35,.07-.53,.11-.1,.02-.19,.03-.28,.06-.09,.03-.19,.07-.29,.1-.3,.09-.61,.2-.91,.32-.11,.04-.21,.07-.32,.11-.06,.03-.12,.07-.19,.09-.53,.23-1.08,.49-1.63,.81l3.19,1.85c.55-.32,1.09-.58,1.63-.81,.17-.07,.34-.14,.51-.2Z"/>
              <path class="cls-12" d="M59.59,43.18c0-.47,.02-.95,.06-1.43,.01-.15,.03-.3,.04-.46,.03-.31,.07-.62,.11-.93,.05-.34,.11-.69,.18-1.03,.04-.24,.09-.47,.14-.71,.05-.22,.11-.44,.16-.66,.08-.31,.16-.62,.25-.92,.05-.18,.11-.35,.16-.53,.11-.35,.22-.69,.35-1.04,.05-.14,.1-.28,.15-.42,.18-.48,.37-.95,.57-1.42,.02-.05,.05-.1,.07-.16,.19-.42,.39-.84,.59-1.26,.06-.13,.13-.26,.2-.39,.2-.39,.41-.78,.63-1.16,.04-.08,.08-.15,.13-.23,.26-.45,.53-.89,.81-1.32,.08-.13,.17-.25,.25-.38,.21-.31,.42-.62,.64-.92,.12-.16,.24-.33,.36-.49,.19-.25,.38-.5,.58-.74,.17-.21,.33-.41,.51-.62,.16-.19,.33-.37,.49-.55,.28-.32,.57-.62,.86-.92,.18-.19,.36-.37,.55-.55,.14-.14,.29-.27,.44-.41,.24-.22,.48-.43,.73-.64,.15-.12,.29-.25,.44-.37,.27-.21,.54-.42,.81-.61,.13-.09,.26-.19,.39-.28,.41-.28,.82-.54,1.23-.78l-3.19-1.85c-.42,.24-.83,.51-1.23,.78-.13,.09-.26,.19-.39,.28-.27,.2-.55,.4-.81,.61-.15,.12-.3,.24-.44,.37-.25,.21-.49,.42-.73,.64-.15,.13-.29,.27-.44,.41-.09,.09-.18,.17-.27,.26-.09,.09-.18,.2-.28,.29-.29,.3-.58,.6-.86,.92-.09,.1-.19,.19-.27,.29-.07,.08-.14,.18-.22,.26-.17,.2-.34,.41-.5,.61-.11,.14-.22,.26-.33,.4-.09,.11-.17,.23-.25,.34-.12,.16-.24,.32-.36,.49-.08,.11-.17,.22-.25,.34-.13,.19-.26,.39-.39,.59-.08,.12-.17,.25-.25,.37-.03,.05-.07,.1-.1,.16-.23,.36-.45,.72-.67,1.09-.01,.02-.03,.05-.04,.07-.04,.07-.08,.15-.13,.23-.15,.26-.3,.52-.44,.79-.07,.12-.13,.25-.19,.37-.07,.13-.13,.26-.2,.39-.06,.11-.12,.22-.17,.34-.15,.3-.28,.61-.42,.92-.02,.05-.05,.11-.07,.16,0,.01-.01,.03-.02,.04-.17,.38-.32,.77-.47,1.16-.03,.07-.05,.15-.08,.22-.05,.14-.1,.28-.15,.42-.07,.19-.14,.39-.21,.58-.05,.15-.09,.31-.14,.46-.06,.18-.11,.35-.16,.53-.03,.11-.07,.22-.1,.33-.05,.2-.1,.4-.15,.59-.06,.22-.11,.44-.16,.66-.02,.08-.04,.15-.06,.23-.03,.16-.05,.32-.08,.48-.07,.34-.13,.69-.18,1.03-.01,.1-.04,.19-.05,.29-.03,.22-.04,.43-.06,.65-.01,.15-.03,.3-.04,.45-.04,.48-.06,.96-.06,1.43,0,3.57,1.11,6.21,2.94,7.72,.26,.22,.54,.41,.83,.58l3.19,1.85c-2.32-1.35-3.76-4.22-3.77-8.3Z"/>
              <path class="cls-3" d="M72.48,20.85c7.14-4.12,12.95-.82,12.97,7.39,.02,8.21-5.74,18.2-12.89,22.33-7.14,4.12-12.95,.82-12.97-7.39s5.74-18.2,12.89-22.33Z"/>
            </g>
            <polygon class="cls-5" points="68.85 30.02 81.04 31.76 68.9 47.54 68.85 30.02"/>
          </g>
          <g>
            <g>
              <path class="cls-9" d="M78.36,62.28c.3-.17,.55-.03,.55,.31v.73c0,.36-.24,.78-.54,.95l-24.1,13.91c-.3,.17-.55,.03-.55-.32v-.73c0-.35,.24-.77,.54-.94l24.1-13.91Z"/>
              <path class="cls-9" d="M61.01,77.3c.32-.18,.58-.04,.58,.33v.77c0,.38-.26,.82-.58,1.01l-6.69,3.86c-.33,.19-.58,.04-.58-.33v-.77c0-.38,.25-.82,.58-1.01l6.69-3.86Z"/>
              <path class="cls-3" d="M74.34,69.61c.33-.19,.59-.05,.59,.33v.77c0,.38-.26,.82-.59,1.01l-11.21,6.47c-.32,.18-.58,.04-.58-.33v-.77c0-.38,.26-.82,.58-1.01l11.21-6.47Z"/>
              <path class="cls-9" d="M80.84,65.85c.32-.18,.58-.04,.58,.33v.77c0,.38-.26,.82-.58,1.01l-4.81,2.78c-.33,.19-.58,.04-.58-.33v-.77c0-.38,.25-.82,.58-1.01l4.81-2.78Z"/>
              <path class="cls-3" d="M87.55,61.98c.33-.19,.59-.05,.59,.33v.77c0,.38-.26,.82-.59,1.01l-4.81,2.78c-.32,.18-.58,.04-.58-.33v-.77c0-.38,.26-.82,.58-1.01l4.81-2.78Z"/>
            </g>
            <g>
              <path class="cls-9" d="M78.36,51.55c.3-.17,.55-.03,.55,.31v.73c0,.36-.24,.78-.54,.95l-24.1,13.91c-.3,.17-.55,.03-.55-.32v-.73c0-.35,.24-.77,.54-.94l24.1-13.91Z"/>
              <path class="cls-9" d="M61.01,66.57c.32-.18,.58-.04,.58,.33v.77c0,.38-.26,.82-.58,1.01l-6.69,3.86c-.33,.19-.58,.04-.58-.33v-.77c0-.38,.25-.82,.58-1.01l6.69-3.86Z"/>
              <path class="cls-3" d="M74.34,58.87c.33-.19,.59-.05,.59,.33v.77c0,.38-.26,.82-.59,1.01l-11.21,6.47c-.32,.18-.58,.04-.58-.33v-.77c0-.38,.26-.82,.58-1.01l11.21-6.47Z"/>
              <path class="cls-9" d="M80.84,55.12c.32-.18,.58-.04,.58,.33v.77c0,.38-.26,.82-.58,1.01l-4.81,2.78c-.33,.19-.58,.04-.58-.33v-.77c0-.38,.25-.82,.58-1.01l4.81-2.78Z"/>
              <path class="cls-3" d="M87.55,51.25c.33-.19,.59-.05,.59,.33v.77c0,.38-.26,.82-.59,1.01l-4.81,2.78c-.32,.18-.58,.04-.58-.33v-.77c0-.38,.26-.82,.58-1.01l4.81-2.78Z"/>
            </g>
          </g>
        </g>
      </g>
      <g>
        <g class="cls-22">
          <polygon class="cls-9" points="187.57 50 187.78 121.45 95.59 174.67 95.39 103.23 187.57 50"/>
        </g>
        <g class="cls-26">
          <g class="cls-26">
            <path class="cls-10" d="M117.8,134.81l-4.86-2.83c-.16-.09-.24-.3-.29-.58-.09-.56-.3-1.04-.31-1.65-.01-.9-.24-1.47-.66-1.71l4.86,2.83c.43,.25,.65,.82,.66,1.71,0,.6,.21,1.09,.31,1.65,.05,.28,.13,.49,.29,.58Z"/>
            <g class="cls-2">
              <path class="cls-9" d="M117.8,134.81l-4.86-2.83c-.16-.09-.24-.3-.29-.58-.09-.56-.3-1.04-.31-1.65-.01-.9-.24-1.47-.66-1.71l4.86,2.83c.43,.25,.65,.82,.66,1.71,0,.6,.21,1.09,.31,1.65,.05,.28,.13,.49,.29,.58"/>
            </g>
          </g>
          <path class="cls-10" d="M134.58,104.98s.02,0,.03,0c.03,0,.06,0,.08,.01,.05,0,.1,.02,.14,.03,0,0,0,0,0,0,.06,.02,.11,.04,.17,.05,.04,.02,.09,.03,.14,.04,.01,0,.02,0,.04,.01,0,0,0,0,0,0,.05,.01,.09,.02,.14,.03l-4.86-2.83s-.09-.02-.14-.03c-.01,0-.03,0-.04-.01-.05-.01-.09-.03-.14-.04-.06-.02-.11-.04-.17-.05,0,0,0,0,0,0,0,0,0,0,0,0-.05-.01-.09-.02-.14-.03,0,0-.01,0-.02,0-.02,0-.05,0-.07,0-.01,0-.02,0-.03,0,0,0,0,0,0,0-.03,0-.06,0-.09,0,0,0-.01,0-.02,0,0,0-.02,0-.02,0-.01,0-.03,0-.04,0-.03,0-.05,0-.08,.02,0,0,0,0,0,0-.13,.04-.27,.08-.4,.12-.09,.03-.19,.05-.28,.09-.1,.03-.21,.07-.31,.11-.59,.21-1.18,.44-1.77,.62-.04,.01-.08,.02-.12,.02h0s-.08,0-.11-.02c0,0,0,0,0,0-.03,0-.06-.02-.08-.03-.03-.01-.05-.02-.08-.04-.02-.01-.04-.02-.06-.03l4.86,2.83s.02,.01,.04,.02c0,0,.02,0,.02,.01,.03,.01,.05,.03,.08,.04,0,0,.02,0,.03,.01,.02,0,.04,.01,.06,.02,0,0,0,0,0,0,0,0,0,0,0,0,.02,0,.04,0,.05,.01,.02,0,.03,0,.05,0,0,0,0,0,.01,0h0s.02,0,.02,0c.01,0,.03,0,.04,0,.01,0,.03,0,.04,0,0,0,0,0,.01,0,.23-.07,.46-.15,.69-.23,.2-.07,.41-.15,.61-.22,.08-.03,.15-.05,.23-.08,.18-.07,.37-.13,.55-.19,.07-.02,.14-.04,.21-.06,.16-.05,.32-.1,.48-.15,.04-.01,.08-.02,.12-.02,0,0,.02,0,.02,0,.04,0,.08,0,.12,0Z"/>
          <g class="cls-26">
            <g class="cls-17">
              <g class="cls-26">
                <path class="cls-6" d="M130.88,105.72l-4.86-2.83s.05,.02,.07,.04l4.86,2.83s-.05-.03-.07-.04"/>
                <path class="cls-11" d="M130.95,105.76l-4.86-2.83s.03,.02,.04,.02l4.86,2.83s-.03-.02-.04-.02"/>
              </g>
            </g>
          </g>
          <g class="cls-26">
            <g class="cls-20">
              <g class="cls-26">
                <path class="cls-7" d="M110.5,135.33l-4.86-2.83c-.27-.16-.55-.32-.82-.48l4.86,2.83c.28,.16,.55,.32,.82,.48"/>
              </g>
            </g>
          </g>
          <path class="cls-10" d="M124.62,108.47l-4.86-2.83c1.18,.69,1.91,2.15,1.87,4.17,0,.22-.02,.45-.04,.68,0,.06-.01,.12-.02,.18-.01,.13-.03,.27-.05,.4-.03,.18-.06,.35-.09,.53-.02,.12-.05,.25-.08,.37-.03,.11-.05,.23-.08,.34-.04,.15-.08,.3-.13,.45-.03,.09-.05,.18-.08,.27-.06,.19-.13,.38-.19,.56-.02,.05-.03,.1-.05,.15-.09,.23-.19,.47-.29,.7-.03,.06-.05,.11-.08,.17-.08,.18-.17,.36-.26,.53-.03,.07-.07,.13-.1,.2-.11,.21-.22,.42-.34,.63,0,.01-.02,.03-.02,.04-.13,.22-.26,.44-.4,.65-.04,.07-.09,.14-.14,.2-.1,.15-.2,.29-.3,.43-.06,.08-.12,.17-.18,.25-.09,.12-.18,.24-.28,.35-.08,.1-.17,.21-.25,.31-.08,.09-.16,.18-.24,.27-.14,.15-.28,.3-.42,.45-.09,.09-.17,.18-.26,.26-.07,.07-.14,.13-.21,.19-.12,.11-.23,.21-.35,.31-.07,.06-.14,.12-.21,.17-.13,.1-.26,.2-.39,.29-.06,.04-.12,.09-.19,.13-.19,.13-.39,.26-.59,.37-.04,.02-.08,.05-.12,.07-.2,.11-.39,.2-.58,.29-.04,.02-.07,.03-.11,.05-.18,.08-.36,.15-.54,.21-.03,.01-.07,.02-.1,.03-.13,.04-.26,.07-.38,.1-.09,.02-.18,.04-.26,.06-.11,.02-.23,.04-.34,.05-.06,0-.12,.01-.19,.02-.16,0-.32,.01-.47,0,0,0-.02,0-.02,0-.16,0-.31-.03-.46-.06-.04,0-.08-.02-.12-.03-.11-.03-.23-.06-.34-.1-.04-.01-.07-.02-.11-.04-.14-.06-.28-.12-.41-.2l4.86,2.83s.02,.01,.03,.02c.1,.06,.21,.11,.32,.16,.02,0,.04,.01,.06,.02,.03,.01,.07,.02,.11,.04,.06,.02,.11,.04,.17,.06,.05,.02,.11,.02,.16,.04,.04,0,.08,.02,.12,.03,.03,0,.05,.01,.07,.02,.13,.02,.25,.04,.39,.05,0,0,0,0,0,0,0,0,.02,0,.02,0,.13,0,.26,0,.39,0,.02,0,.05,0,.07,0,.06,0,.12-.01,.19-.02,.07,0,.14-.01,.22-.02,.04,0,.08-.02,.12-.03,.09-.02,.17-.04,.26-.06,.06-.01,.12-.02,.17-.04,.07-.02,.14-.04,.21-.06,.03-.01,.07-.02,.1-.03,.15-.05,.3-.1,.46-.17,.03-.01,.06-.03,.09-.04,.04-.02,.07-.03,.11-.05,.19-.09,.38-.18,.58-.29,.04-.02,.08-.04,.12-.07,.2-.11,.39-.24,.59-.37,.06-.04,.12-.09,.19-.13,.13-.09,.26-.19,.39-.29,.07-.06,.14-.12,.21-.17,.12-.1,.24-.2,.35-.31,.07-.06,.14-.13,.21-.19,.04-.04,.08-.08,.12-.12,.05-.05,.09-.1,.14-.14,.14-.15,.28-.3,.42-.45,.04-.05,.09-.09,.13-.14,.04-.04,.07-.09,.11-.13,.09-.1,.17-.2,.25-.31,.05-.06,.11-.13,.16-.19,.04-.05,.08-.11,.12-.16,.06-.08,.12-.16,.18-.25,.04-.06,.08-.11,.12-.17,.06-.09,.12-.18,.18-.26,.05-.07,.09-.13,.14-.2,.02-.03,.04-.06,.06-.09,.12-.18,.23-.36,.33-.55,0,0,0,0,0,0,0-.02,.02-.03,.03-.05,.09-.16,.18-.32,.27-.49,.02-.04,.05-.09,.07-.14,.03-.07,.07-.13,.1-.2,.04-.07,.08-.15,.11-.22,.05-.1,.1-.21,.14-.31,.03-.06,.05-.11,.08-.17,.01-.03,.02-.05,.03-.08,.08-.19,.16-.39,.24-.58,0-.01,0-.03,.01-.04,.02-.05,.03-.1,.05-.15,.05-.14,.1-.28,.15-.42,.02-.05,.03-.09,.04-.14,.03-.09,.05-.18,.08-.27,.03-.08,.05-.17,.08-.25,.02-.07,.03-.13,.05-.2,.03-.11,.06-.23,.08-.34,.01-.06,.03-.13,.05-.19,.01-.06,.02-.12,.03-.18,.03-.18,.06-.35,.09-.53,0-.07,.03-.14,.03-.2,0-.07,.01-.13,.02-.2,0-.06,.01-.12,.02-.18,.02-.23,.04-.46,.04-.68,.03-2.02-.69-3.49-1.87-4.17Z"/>
          <path class="cls-3" d="M120.07,113.24s.04-.02,.06-.04c1.43-.78,2.61-.06,2.6,1.57-.01,1.59-1.22,3.65-2.62,4.45-1.4,.81-2.63,.07-2.6-1.56,.03-1.59,1.23-3.66,2.55-4.43Z"/>
          <path class="cls-9" d="M121.96,113.07l-4.86-2.83s0,0-.01,0c-.04-.03-.09-.05-.14-.07,0,0-.01,0-.02,0-.01,0-.03-.01-.04-.02-.03,0-.05-.02-.08-.03-.02,0-.04,0-.06-.01-.02,0-.04,0-.06-.01-.01,0-.03,0-.04,0-.04,0-.08,0-.12-.01-.01,0-.02,0-.04,0,0,0,0,0-.01,0-.06,0-.12,0-.18,0,0,0-.01,0-.02,0-.02,0-.04,0-.07,0-.04,0-.08,0-.12,.01-.01,0-.02,0-.03,0-.04,0-.07,.02-.11,.02-.03,0-.06,.01-.09,.02-.01,0-.02,0-.03,.01-.07,.02-.15,.05-.22,.08-.02,0-.04,.01-.05,.02,0,0,0,0-.01,0-.09,.04-.18,.08-.27,.13-.02,.01-.04,.02-.06,.04-.12,.07-.23,.15-.35,.24-.02,.02-.05,.04-.07,.06-.11,.09-.22,.19-.33,.29,0,0-.01,0-.02,.01-.02,.02-.04,.04-.06,.07-.06,.06-.11,.12-.17,.18-.01,.01-.03,.03-.04,.04-.02,.03-.04,.05-.07,.08-.04,.04-.07,.08-.1,.13-.01,.02-.03,.03-.04,.05-.03,.03-.05,.07-.07,.1-.03,.03-.05,.07-.08,.1-.01,.01-.02,.03-.03,.04-.03,.05-.07,.1-.1,.15-.02,.02-.03,.05-.05,.07,0,0,0,.01-.01,.02-.05,.08-.1,.16-.15,.24,0,0,0,.01-.01,.02-.01,.02-.02,.04-.03,.06-.03,.05-.06,.1-.09,.16-.01,.02-.02,.04-.03,.06-.02,.03-.03,.06-.05,.09-.01,.03-.03,.06-.04,.09-.02,.04-.04,.08-.06,.12-.01,.03-.03,.05-.04,.08,0,.01-.01,.03-.02,.04-.04,.08-.07,.17-.1,.25,0,0,0,0,0,0,0,0,0,.02,0,.03-.03,.08-.06,.15-.08,.23,0,.01,0,.03-.01,.04-.01,.04-.02,.07-.03,.11-.01,.04-.03,.08-.04,.13,0,.02,0,.04-.02,.06-.01,.05-.02,.09-.03,.14,0,.03-.02,.06-.02,.1,0,.02,0,.04-.01,.06-.01,.07-.03,.14-.04,.21,0,.03-.01,.06-.02,.09,0,.01,0,.02,0,.04-.01,.12-.02,.24-.03,.36-.01,.82,.29,1.42,.78,1.7l4.86,2.83c-.49-.28-.79-.88-.78-1.7,0-.12,.01-.24,.03-.36,0-.04,.01-.08,.02-.13,.01-.07,.02-.14,.04-.21,.01-.05,.02-.1,.03-.16,.01-.05,.02-.09,.03-.14,.02-.06,.03-.13,.05-.19,.01-.04,.02-.07,.03-.11,.03-.09,.06-.18,.09-.27,0,0,0-.02,0-.03,.04-.1,.08-.19,.12-.29,.01-.03,.02-.05,.04-.08,.03-.07,.07-.14,.1-.21,.02-.03,.03-.06,.05-.09,.04-.07,.08-.15,.12-.22,.01-.02,.02-.04,.03-.06,.05-.09,.11-.18,.17-.27,.01-.02,.03-.05,.05-.07,.04-.07,.09-.13,.13-.2,.03-.04,.05-.07,.08-.1,.04-.05,.08-.1,.12-.15,.03-.04,.07-.09,.1-.13,.03-.04,.07-.08,.1-.12,.06-.06,.11-.12,.17-.18,.03-.03,.05-.05,.08-.08,.11-.1,.22-.2,.33-.29,.02-.02,.05-.04,.07-.06,.12-.09,.23-.17,.35-.24,.02-.01,.04-.02,.06-.04,.09-.05,.18-.09,.27-.13,.02,0,.04-.02,.07-.02,.07-.03,.15-.06,.22-.08,.04-.01,.08-.02,.12-.03,.04,0,.07-.02,.11-.02,.05,0,.1-.01,.15-.02,.02,0,.04,0,.07,0,.07,0,.14,0,.21,0,.01,0,.02,0,.04,0,.05,0,.11,.01,.16,.02,.02,0,.04,0,.06,.01,.05,.01,.09,.03,.14,.04,.01,0,.03,0,.04,.02,.06,.02,.12,.05,.17,.08h0s0,0,0,0Z"/>
          <path class="cls-10" d="M129.32,96.86s0,0,0,0c.04,0,.09,0,.13,.01,0,0,0,0,0,0,.04,.01,.08,.03,.13,.05,.36,.21,.73,.41,1.09,.62l-4.86-2.83c-.36-.21-.72-.41-1.09-.62,0,0,0,0,0,0-.02-.01-.04-.02-.06-.03-.02,0-.04-.01-.05-.02,0,0,0,0-.01,0,0,0,0,0,0,0,0,0-.02,0-.03,0-.02,0-.03,0-.05,0-.02,0-.03,0-.05,0,0,0,0,0,0,0h0s-.03,0-.05,0c-.02,0-.04,0-.06,.01,0,0-.01,0-.02,0,0,0-.01,0-.02,0-.01,0-.03,0-.04,.01-.03,.01-.06,.03-.09,.04-.04,.02-.08,.05-.12,.08-.02,.02-.05,.04-.07,.06-.02,.02-.04,.03-.05,.05,0,0,0,0,0,0-.03,.03-.07,.07-.11,.11,0,0,0,0-.01,.01,0,.01-.02,.02-.03,.03-.02,.02-.04,.04-.05,.07-.02,.02-.03,.05-.05,.07-.81,1.11-1.65,2.2-2.45,3.33-.06,.09-.12,.17-.18,.24,0,0,0,0,0,0-.05,.07-.1,.13-.16,.19-.01,.02-.03,.03-.04,.05-.04,.04-.08,.08-.12,.12-.02,.01-.03,.03-.05,.04-.05,.04-.11,.08-.16,.11-.04,.02-.07,.04-.11,.05,0,0-.02,0-.02,0-.04,.01-.07,.02-.11,.03h0s-.08,0-.13,0c0,0,0,0,0,0-.04,0-.09-.01-.13-.02-.02,0-.03,0-.05-.01-.02,0-.04,0-.06,0-.02,0-.04,0-.06,0,0,0,0,0,0,0h0s-.04,0-.06,0c-.02,0-.04,0-.06,.01-.02,0-.04,.01-.06,.02-.1,.04-.2,.07-.29,.09-.02,0-.03,0-.05,.01-.08,.02-.16,.03-.23,.03,0,0,0,0-.01,0-.07,0-.14,0-.21-.02,0,0-.01,0-.02,0-.06-.02-.12-.04-.18-.07h0l4.86,2.83s0,0,0,0c.02,.01,.05,.02,.07,.03,.02,0,.05,.02,.07,.03,0,0,.02,0,.03,0,0,0,.01,0,.02,0,.01,0,.02,0,.03,0,.03,0,.06,0,.09,.01,.03,0,.06,0,.08,0,0,0,0,0,.01,0,0,0,0,0,0,0,.04,0,.08,0,.13-.01,.03,0,.06-.01,.09-.02,.02,0,.03,0,.05-.01,.01,0,.02,0,.03,0,.08-.02,.16-.05,.25-.09,.07-.03,.13-.04,.19-.04,0,0,0,0,0,0,.06,0,.12,0,.17,.02,.02,0,.05,.01,.07,.02,.02,0,.04,0,.06,0,0,0,0,0,0,0,0,0,0,0,0,0,.02,0,.04,0,.06,0,.02,0,.04,0,.06,0,0,0,0,0,0,0h0s.04,0,.07-.01c.01,0,.03,0,.04-.01,0,0,.02,0,.02,0,0,0,.01,0,.02,0,.03-.01,.06-.03,.1-.05,.05-.03,.11-.07,.16-.11,.02-.01,.03-.03,.05-.04,.02-.02,.04-.03,.06-.05,.02-.02,.04-.04,.06-.06,.01-.02,.03-.03,.04-.05,0,0,.02-.02,.02-.03,.04-.05,.09-.1,.13-.16,0,0,0,0,0,0t0,0c.06-.08,.12-.16,.18-.24,.8-1.13,1.64-2.21,2.45-3.33,.04-.05,.07-.09,.11-.14,0-.01,.02-.02,.03-.03,.04-.05,.08-.09,.12-.13,.03-.03,.05-.05,.08-.07,.02-.01,.03-.03,.05-.04,.04-.03,.08-.06,.12-.08,.04-.03,.09-.04,.13-.06,0,0,.01,0,.02,0,.04-.01,.09-.02,.13-.02Z"/>
          <path class="cls-10" d="M109.91,128.36s0-.03,0-.04c0-.09-.02-.18-.04-.28,0-.01,0-.02,0-.04-.02-.1-.04-.21-.07-.31,0,0,0,0,0,0-.03-.11-.06-.21-.1-.32,0-.01,0-.03-.01-.04-.04-.1-.08-.19-.12-.28,0-.02-.01-.03-.02-.05-.04-.09-.08-.17-.13-.24,0-.01-.01-.02-.02-.04-.04-.07-.09-.14-.13-.19,0,0-.01-.01-.02-.02-.05-.05-.09-.1-.14-.12,0,0,0,0,0,0l-4.86-2.83s.09,.07,.14,.12c0,0,.01,.01,.02,.02,.04,.05,.09,.12,.13,.19,0,.01,.01,.02,.02,.04,.04,.07,.09,.16,.13,.24,0,.01,.01,.03,.02,.05,.04,.09,.08,.18,.12,.28,0,.01,0,.03,.01,.04,.04,.1,.07,.21,.1,.31,0,0,0,0,0,0,.03,.1,.05,.21,.07,.31,0,.01,0,.03,0,.04,.02,.1,.03,.19,.04,.28,0,.02,0,.03,0,.05,0,.09,0,.16,0,.24,0,.03,0,.07-.01,.1,0,0,0,0,0,0,0,.04-.02,.08-.03,.11-.54,1.23-1.08,2.46-1.64,3.69-.02,.04-.03,.07-.05,.11-.03,.06-.05,.12-.07,.18,0,0,0,0,0,0-.02,.05-.04,.1-.05,.15-.01,.03-.02,.07-.03,.1,0,0,0,.01,0,.02,0,0,0,.01,0,.01-.01,.04-.02,.09-.03,.13,0,.02,0,.04-.01,.07,0,.01,0,.02,0,.04,0,.01,0,.02,0,.03,0,.02,0,.04,0,.05,0,.05,0,.11,0,.15,0,.03,0,.05,0,.08,0,.04,.02,.08,.03,.12,0,.02,.02,.05,.03,.07,.02,.04,.04,.07,.07,.11,.01,.02,.02,.03,.04,.05,.04,.05,.1,.09,.16,.13l4.86,2.83c-.06-.04-.11-.08-.16-.13-.01-.01-.02-.03-.04-.05-.03-.03-.05-.07-.07-.11,0-.02-.02-.04-.03-.07-.01-.04-.02-.08-.03-.12,0-.02,0-.05,0-.08,0-.05,0-.1,0-.15,0-.03,0-.06,0-.09,0-.01,0-.02,0-.04,.01-.07,.03-.13,.05-.21,0,0,0-.01,0-.02,.02-.08,.05-.16,.08-.25,0,0,0,0,0,0,0,0,0,0,0,0,.04-.09,.08-.19,.12-.29,.56-1.23,1.1-2.46,1.64-3.69,0,0,0,0,0,0,0,0,0-.02,0-.02,0,0,0-.02,0-.02s0-.02,0-.03c0-.01,0-.02,0-.03,0,0,0,0,0,0,0,0,0,0,0,0,0-.02,0-.05,.01-.07,0,0,0-.01,0-.02,0-.07,0-.15,0-.24Z"/>
          <path class="cls-9" d="M122.15,97.65c.07,0,.13,.02,.19,.05l-4.86-2.83s0,0,0,0c-.01,0-.03-.01-.04-.02-.01,0-.03-.01-.04-.01-.01,0-.03,0-.05-.01-.02,0-.03,0-.05,0h0s-.04,0-.06,0c-.02,0-.05,0-.08,0-.03,0-.07,.01-.1,.02h0s4.86,2.83,4.86,2.83c.09-.02,.17-.03,.24-.03h0Z"/>
          <g class="cls-26">
            <g class="cls-19">
              <path class="cls-9" d="M104.92,127.26l-4.86-2.83c0-1.5,0-3-.01-4.51l4.86,2.83c0,1.5,0,3.01,.01,4.51"/>
            </g>
          </g>
          <g class="cls-26">
            <g class="cls-18">
              <path class="cls-9" d="M117.04,94.86c-1.31,.76-2.62,1.51-3.92,2.26l4.86,2.83c1.31-.75,2.61-1.51,3.92-2.26l-4.86-2.83Z"/>
            </g>
          </g>
          <path class="cls-25" d="M134.32,105.01c.37-.1,.68,.11,1.01,.17,0,1.5,0,3.01,.01,4.51-.29,.41-.55,.9-.87,1.22-.46,.46-.96,.89-1.45,1.18-1.44,.87-2.39,2.12-2.65,3.96-.05,.34-.06,.75,.08,.92,.54,.7,1.13,1.34,1.72,1.97,.29,.32,.26,.75-.1,1.37-.8,1.37-1.59,2.74-2.38,4.12-.21,.37-.42,.61-.64,.74-.19,.11-.39,.13-.61,.08-.45-.12-.97-.11-1.39-.29-.57-.25-1.13-.26-1.73,.09-.41,.24-.85,.64-1.32,1.24-.45,.57-.72,.98-.8,1.63-.14,1.1-.35,2.22-.5,3.33-.07,.55-.26,1.02-.71,1.41-1.26,.73-2.52,1.46-3.79,2.19-.45,.12-.63-.15-.7-.61-.09-.56-.3-1.04-.31-1.65-.03-1.61-.72-2.16-2.06-1.71-.09,.03-.2,.08-.3,.14-.17,.1-.35,.24-.47,.4-.82,1.05-1.63,2.13-2.39,3.24-.25,.36-.47,.58-.68,.7-.28,.16-.53,.13-.79-.02-.71-.42-1.42-.85-2.16-1.21-.52-.25-.5-.79-.12-1.63,.56-1.23,1.1-2.46,1.64-3.69,.26-.59-.46-2.53-.9-2.44-.08,.02-.18,.09-.27,.12-.92,.33-1.86,.71-2.77,.96-.36,.1-.67-.11-1-.17,0-1.5,0-3-.01-4.51,.31-.44,.6-.95,.94-1.29,.46-.46,.96-.86,1.45-1.17,1.3-.84,2.23-1.88,2.54-3.69,.09-.52,.13-.87-.11-1.13-.56-.59-1.07-1.24-1.63-1.82-.33-.34-.33-.78,.07-1.48,.8-1.37,1.59-2.74,2.37-4.12,.2-.35,.4-.58,.61-.71,.17-.1,.34-.12,.52-.08,.5,.11,1.07,.08,1.51,.3,.55,.28,1.09,.27,1.66-.06,.43-.25,.88-.68,1.37-1.32,.38-.49,.62-.88,.69-1.42,.13-.99,.24-1.98,.44-2.99,.12-.58,.42-1.21,.64-1.81,1.31-.75,2.61-1.51,3.92-2.26,.45-.12,.64,.12,.72,.59,.1,.65,.3,1.24,.36,1.92,.09,1.11,.38,1.89,1.54,1.42,.13-.05,.26-.05,.37-.02,.18,.05,.34,.02,.5-.07,.24-.14,.46-.41,.7-.75,.8-1.13,1.64-2.21,2.45-3.33,.17-.23,.34-.4,.5-.49,.19-.11,.37-.12,.54-.02,.86,.49,1.73,.97,2.54,1.54,.16,.11,.18,.64,.06,.98-.27,.8-.59,1.64-1.02,2.4-.97,1.74-1.05,2.98-.28,3.86,.24,.12,.43,.3,.67,.23,.92-.28,1.86-.69,2.77-.94Zm-7.83,7.63c.06-3.98-2.8-5.79-6.3-3.79-3.74,2.16-6.38,7.07-6.42,10.93-.04,4.04,2.77,5.75,6.29,3.79,.04-.02,.08-.04,.12-.07,3.4-1.96,6.25-6.84,6.31-10.86"/>
          <g class="cls-26">
            <g class="cls-21">
              <path class="cls-9" d="M113.12,97.12c-.02,.07-.05,.14-.08,.2-.09,.24-.19,.48-.28,.71-.05,.13-.1,.26-.14,.4-.03,.09-.06,.17-.08,.26-.02,.07-.04,.15-.05,.22,0,0,0,.01,0,.02-.14,.67-.23,1.33-.32,1.99-.04,.27-.07,.55-.11,.82,0,.06-.01,.12-.02,.17,0,.06-.02,.12-.03,.18,0,.04-.02,.09-.03,.13,0,.03-.02,.07-.03,.1-.01,.03-.02,.06-.03,.09-.01,.03-.02,.06-.04,.09-.01,.03-.03,.06-.04,.09-.01,.03-.03,.06-.05,.09-.02,.03-.04,.07-.06,.1-.02,.04-.05,.08-.08,.12-.04,.06-.07,.11-.11,.17-.06,.08-.12,.17-.19,.26-.02,.03-.04,.05-.06,.08-.1,.13-.2,.25-.29,.36-.11,.12-.21,.23-.31,.33-.24,.24-.48,.42-.7,.55-.09,.05-.17,.09-.26,.13-.07,.03-.15,.06-.22,.08-.06,.02-.12,.03-.18,.04-.05,0-.11,.01-.16,.02-.05,0-.11,0-.16,0-.06,0-.11-.01-.17-.02-.06-.01-.12-.02-.18-.04-.07-.02-.13-.04-.2-.07-.05-.02-.09-.04-.14-.06-.02-.01-.05-.02-.07-.03-.06-.02-.12-.04-.18-.06-.09-.03-.18-.04-.27-.06-.28-.05-.57-.07-.85-.11-.05,0-.09-.02-.13-.03-.01,0-.03,0-.04,0-.03,0-.05,0-.08,0-.02,0-.05,0-.07,0-.02,0-.05,0-.07,0-.02,0-.05,0-.07,.02-.03,0-.06,.02-.09,.03-.03,.01-.06,.03-.09,.05-.08,.04-.15,.1-.22,.17-.03,.03-.06,.06-.08,.09-.02,.03-.05,.06-.07,.09-.02,.03-.05,.06-.07,.09-.02,.03-.05,.07-.07,.11-.03,.04-.05,.08-.08,.12,0,0-.01,.02-.02,.03-.78,1.38-1.57,2.75-2.37,4.12-.03,.04-.05,.09-.07,.13-.02,.04-.04,.08-.06,.11-.02,.03-.03,.07-.05,.1-.01,.03-.03,.06-.04,.09-.01,.03-.02,.06-.03,.08,0,.03-.02,.06-.03,.08,0,.03-.02,.06-.02,.09,0,.03-.01,.07-.02,.1-.04,.28,.05,.51,.23,.7,.56,.58,1.07,1.23,1.63,1.82,.19,.21,.2,.47,.16,.84-.01,.09-.03,.18-.04,.28-.02,.09-.03,.19-.05,.27-.03,.12-.05,.23-.08,.34-.03,.09-.05,.18-.08,.27-.03,.08-.05,.15-.08,.22-.03,.07-.05,.13-.08,.19-.03,.06-.05,.12-.08,.18-.03,.06-.06,.11-.08,.17-.03,.05-.06,.11-.09,.16-.03,.05-.07,.11-.1,.16-.04,.06-.07,.11-.11,.17-.04,.06-.09,.12-.13,.18-.06,.07-.11,.14-.17,.21-.09,.1-.18,.2-.27,.29-.33,.33-.71,.61-1.12,.88-.46,.3-.94,.67-1.37,1.1-.02,.02-.05,.05-.07,.07-.04,.04-.08,.09-.12,.13-.04,.05-.09,.1-.13,.16-.05,.07-.11,.14-.16,.22-.17,.24-.32,.49-.49,.73-.01,.02-.03,.04-.04,.06l4.86,2.83s.03-.04,.04-.06c.17-.24,.32-.49,.49-.73,.05-.07,.11-.15,.16-.22,.04-.05,.08-.11,.13-.16,.04-.05,.08-.09,.12-.13,.02-.02,.05-.05,.07-.07,.43-.43,.91-.8,1.37-1.1,.41-.27,.79-.55,1.12-.88,.09-.09,.19-.19,.27-.29,.06-.07,.12-.14,.17-.21,.05-.06,.09-.12,.13-.18,.04-.05,.08-.11,.11-.17,.03-.05,.07-.11,.1-.16,.03-.05,.06-.11,.09-.16,.03-.05,.06-.11,.08-.17,.03-.06,.05-.12,.08-.18,.03-.06,.05-.13,.08-.19,.03-.07,.05-.15,.08-.22,.03-.09,.06-.18,.08-.27,.03-.11,.06-.23,.08-.34,.02-.09,.04-.18,.05-.27,.02-.1,.03-.2,.04-.28,.05-.37,.04-.63-.16-.84-.56-.59-1.07-1.24-1.63-1.82-.19-.19-.27-.42-.23-.7,0-.03,0-.07,.02-.1,0-.03,.01-.06,.02-.09,0-.03,.02-.05,.03-.08,0-.03,.02-.06,.03-.08,.01-.03,.02-.06,.04-.09,.01-.03,.03-.07,.05-.1,.02-.04,.04-.08,.06-.11,.02-.04,.05-.08,.07-.13,.8-1.37,1.59-2.74,2.37-4.12,0,0,.01-.02,.02-.03,.02-.04,.05-.08,.08-.12,.02-.04,.05-.07,.07-.11,.02-.03,.05-.06,.07-.09,.02-.03,.05-.06,.07-.09,.03-.03,.06-.06,.08-.09,.07-.07,.15-.13,.22-.17,.03-.02,.06-.03,.09-.05,.03-.01,.06-.02,.09-.03,.02,0,.05-.01,.07-.02,.02,0,.05,0,.07,0,.02,0,.05,0,.07,0,.03,0,.05,0,.08,0,.01,0,.03,0,.04,0,.04,0,.09,.02,.13,.03,.28,.05,.58,.07,.85,.11,.09,.02,.18,.04,.27,.06,.06,.02,.12,.04,.18,.06,.02,.01,.05,.02,.07,.03,.05,.02,.09,.04,.14,.06,.07,.03,.13,.05,.2,.07,.06,.02,.12,.03,.18,.04,.06,0,.11,.02,.17,.02,.05,0,.11,0,.16,0,.05,0,.11,0,.16-.02,.06,0,.12-.02,.18-.04,.07-.02,.15-.04,.22-.08,.09-.04,.17-.08,.26-.13,.23-.13,.46-.32,.7-.55,.1-.1,.21-.21,.31-.33,.1-.11,.19-.23,.29-.36,.02-.03,.04-.05,.06-.08,.07-.09,.13-.18,.19-.26,.04-.06,.08-.11,.11-.17,.03-.04,.05-.08,.08-.12,.02-.03,.04-.07,.06-.1,.02-.03,.03-.06,.05-.09,.01-.03,.03-.06,.04-.09,.01-.03,.02-.06,.04-.09,.01-.03,.02-.06,.03-.09,.01-.03,.02-.07,.03-.1,.01-.04,.02-.08,.03-.13,.01-.06,.02-.12,.03-.18,0-.06,.02-.12,.02-.17,.04-.27,.07-.55,.11-.82,.09-.66,.18-1.32,.32-1.99,0,0,0-.01,0-.02,.02-.07,.03-.15,.05-.22,.02-.09,.05-.17,.08-.26,.04-.13,.09-.26,.14-.4,.09-.24,.19-.48,.28-.71,.03-.07,.05-.14,.08-.2l-4.86-2.83Z"/>
            </g>
          </g>
        </g>
        <g>
          <polygon class="cls-4" points="154.56 103.28 154.56 104.99 148.02 113.39 154.59 114.2 154.6 115.96 145.99 115.03 145.99 114.17 154.56 103.28"/>
          <polygon class="cls-4" points="167.49 91.51 157.87 113.81 156.29 114.72 165.91 92.42 167.49 91.51"/>
          <polygon class="cls-4" points="169.21 94.82 177.8 95.8 177.8 96.66 169.24 107.5 169.24 105.74 175.78 97.36 169.21 96.54 169.21 94.82"/>
        </g>
        <g>
          <g>
            <path class="cls-3" d="M127.57,144.6c.3-.17,.55-.03,.55,.31v.73c0,.36-.24,.78-.54,.95l-24.1,13.91c-.3,.17-.55,.03-.55-.32v-.73c0-.35,.24-.77,.54-.94l24.1-13.91Z"/>
            <path class="cls-9" d="M110.21,159.61c.32-.18,.58-.04,.58,.33v.77c0,.38-.26,.82-.58,1.01l-6.69,3.86c-.33,.19-.58,.04-.58-.33v-.77c0-.38,.25-.82,.58-1.01l6.69-3.86Z"/>
            <path class="cls-14" d="M123.55,151.92c.33-.19,.59-.05,.59,.33v.77c0,.38-.26,.82-.59,1.01l-11.21,6.47c-.32,.18-.58,.04-.58-.33v-.77c0-.38,.26-.82,.58-1.01l11.21-6.47Z"/>
            <path class="cls-9" d="M130.05,148.16c.32-.18,.58-.04,.58,.33v.77c0,.38-.26,.82-.58,1.01l-4.81,2.78c-.33,.19-.58,.04-.58-.33v-.77c0-.38,.25-.82,.58-1.01l4.81-2.78Z"/>
            <path class="cls-15" d="M136.75,144.29c.33-.19,.59-.05,.59,.33v.77c0,.38-.26,.82-.59,1.01l-4.81,2.78c-.32,.18-.58,.04-.58-.33v-.77c0-.38,.26-.82,.58-1.01l4.81-2.78Z"/>
          </g>
          <g>
            <path class="cls-3" d="M127.57,133.86c.3-.17,.55-.03,.55,.31v.73c0,.36-.24,.78-.54,.95l-24.1,13.91c-.3,.17-.55,.03-.55-.32v-.73c0-.35,.24-.77,.54-.94l24.1-13.91Z"/>
            <path class="cls-9" d="M110.21,148.88c.32-.18,.58-.04,.58,.33v.77c0,.38-.26,.82-.58,1.01l-6.69,3.86c-.33,.19-.58,.04-.58-.33v-.77c0-.38,.25-.82,.58-1.01l6.69-3.86Z"/>
            <path class="cls-13" d="M123.55,141.18c.33-.19,.59-.05,.59,.33v.77c0,.38-.26,.82-.59,1.01l-11.21,6.47c-.32,.18-.58,.04-.58-.33v-.77c0-.38,.26-.82,.58-1.01l11.21-6.47Z"/>
            <path class="cls-9" d="M130.05,137.43c.32-.18,.58-.04,.58,.33v.77c0,.38-.26,.82-.58,1.01l-4.81,2.78c-.33,.19-.58,.04-.58-.33v-.77c0-.38,.25-.82,.58-1.01l4.81-2.78Z"/>
            <path class="cls-16" d="M136.75,133.56c.33-.19,.59-.05,.59,.33v.77c0,.38-.26,.82-.59,1.01l-4.81,2.78c-.32,.18-.58,.04-.58-.33v-.77c0-.38,.26-.82,.58-1.01l4.81-2.78Z"/>
          </g>
        </g>
      </g>
    </g>
  </g>
</svg>