<?xml version="1.0" encoding="UTF-8"?>
<svg id="Layer_2" data-name="Layer 2" xmlns="http://www.w3.org/2000/svg" viewBox="0 0 179.04 230.86">
  <defs>
    <style>
      .cls-1 {
        fill: #f53405;
      }

      .cls-2 {
        fill: #fa7316;
      }

      .cls-3 {
        fill: #f6741d;
      }

      .cls-4 {
        fill: #fff;
      }

      .cls-5 {
        fill: #fff1fb;
      }

      .cls-6 {
        fill: #fefeff;
      }

      .cls-7 {
        fill: #fc7211;
      }

      .cls-8 {
        fill: #ffc37a;
      }

      .cls-9 {
        fill: #fdba88;
      }

      .cls-10 {
        fill: #fea96c;
      }

      .cls-11 {
        fill: #feae6c;
      }

      .cls-12 {
        fill: none;
        stroke: #f9f9ff;
        stroke-linecap: round;
        stroke-linejoin: round;
        stroke-width: 1.05px;
      }

      .cls-13 {
        opacity: .25;
      }

      .cls-14 {
        isolation: isolate;
      }
    </style>
  </defs>
  <g id="Layer_8" data-name="Layer 8">
    <g class="cls-13">
      <g>
        <g>
          <g class="cls-14">
            <polygon class="cls-3" points="114.1 193.49 120.72 189.64 120.87 137.52 114.25 141.37 114.1 193.49"/>
            <polygon class="cls-11" points="114.25 141.37 120.87 137.52 84.19 116.35 77.57 120.2 114.25 141.37"/>
            <polygon class="cls-9" points="77.57 120.2 77.42 172.31 114.1 193.49 114.25 141.37 77.57 120.2"/>
          </g>
          <g class="cls-14">
            <path class="cls-6" d="M44,187.34c0,.09,.01,.19,.03,.28,.01,.08,.04,.15,.06,.23,.02,.09,.05,.18,.08,.27,.03,.07,.06,.14,.09,.22,.04,.09,.08,.19,.13,.28,.04,.07,.08,.13,.12,.2,.06,.1,.13,.21,.21,.31,.05,.06,.09,.12,.14,.18,.11,.14,.24,.27,.38,.41,.05,.05,.09,.1,.15,.14,.09,.08,.18,.15,.28,.23,.08,.07,.16,.13,.25,.2,.1,.07,.21,.14,.32,.21,.11,.07,.22,.15,.34,.22l23.85,13.86,.02,7.02-23.85-13.86s-.07-.04-.11-.06c-.08-.05-.15-.1-.23-.15-.11-.07-.22-.14-.32-.22-.09-.06-.17-.13-.25-.2-.09-.08-.19-.15-.27-.23-.02-.02-.04-.03-.06-.05-.03-.03-.06-.07-.09-.1-.14-.13-.26-.27-.38-.41-.03-.03-.06-.06-.08-.09-.02-.03-.04-.06-.06-.09-.08-.1-.15-.21-.21-.31-.03-.04-.06-.09-.09-.13-.01-.02-.02-.05-.03-.07-.05-.09-.09-.18-.13-.28-.02-.05-.06-.11-.08-.16,0-.02,0-.04-.02-.06-.03-.09-.05-.18-.08-.27-.02-.06-.04-.12-.05-.18,0-.02,0-.03,0-.05-.02-.09-.02-.19-.03-.28,0-.06-.02-.12-.02-.18,0-.03,0-.05,0-.08l-.02-7.02c0,.09,.01,.17,.02,.26Z"/>
            <path class="cls-10" d="M71.68,205.16c.11,.05,.23,.09,.35,.13,.27,.1,.56,.18,.84,.26,.29,.08,.59,.16,.9,.22,.36,.07,.72,.14,1.08,.19,.09,.01,.18,.03,.27,.04,.5,.05,1,.08,1.5,.08,.08,0,.16,0,.24,0,.5,0,.99-.03,1.48-.08,.07,0,.15-.02,.22-.02,.49-.06,.97-.14,1.44-.25,.09-.02,.17-.04,.25-.06,.43-.1,.84-.23,1.24-.38,.07-.03,.15-.05,.22-.07,.48-.19,.94-.4,1.36-.64l31.68-18.29,.02,7.02-31.68,18.29c-.4,.23-.83,.44-1.29,.62-.02,0-.05,.02-.07,.03-.07,.03-.15,.05-.22,.07-.26,.09-.52,.19-.79,.27-.15,.04-.3,.07-.45,.11-.08,.02-.17,.04-.25,.06-.08,.02-.15,.04-.23,.06-.29,.06-.59,.11-.89,.15-.11,.02-.22,.02-.32,.04-.07,0-.15,.02-.22,.03-.11,.01-.21,.03-.32,.04-.29,.02-.59,.04-.88,.05-.09,0-.19,0-.28,0-.08,0-.16,0-.24,0-.13,0-.26,0-.4,0-.33-.01-.66-.03-.99-.07-.04,0-.07-.01-.11-.02-.09,0-.18-.03-.27-.04-.25-.03-.51-.06-.76-.11-.11-.02-.21-.06-.32-.08-.31-.06-.6-.14-.9-.22-.16-.04-.32-.07-.47-.12-.13-.04-.24-.09-.36-.14-.12-.04-.23-.09-.35-.13-.44-.18-.86-.37-1.25-.59l-.02-7.02c.39,.23,.81,.42,1.25,.59Z"/>
            <path class="cls-8" d="M46.62,183.39c-3.49,2.02-3.52,5.29-.04,7.31l23.85,13.86c3.48,2.02,9.14,2.02,12.63,0l31.68-18.29-36.45-21.18-31.68,18.29Z"/>
          </g>
        </g>
        <g class="cls-14">
          <path class="cls-6" d="M8.6,.38s.02-.01,.03-.02c.09-.05,.18-.1,.28-.14,.02,0,.04-.01,.05-.02,.03-.01,.06-.02,.09-.03,.05-.02,.1-.04,.15-.05,.05-.02,.11-.02,.16-.04,.03,0,.07-.02,.1-.02,.02,0,.04,0,.05-.01,.11-.02,.22-.03,.34-.04,0,0,.01,0,.02,0,.03,0,.05,0,.08,0,.09,0,.18,0,.27,0,.03,0,.06,0,.09,0,.05,0,.11,.01,.17,.02,.05,0,.1,0,.16,.02,.05,0,.09,.02,.14,.03,.08,.01,.15,.03,.23,.05,.04,.01,.08,.02,.12,.03,.04,.01,.08,.03,.12,.04,.13,.04,.26,.08,.39,.14,.05,.02,.09,.03,.14,.05,.03,.01,.05,.03,.08,.04,.23,.1,.46,.21,.7,.35L173.47,93.66l-6.63,3.85L5.94,4.61c-.24-.14-.47-.25-.7-.35-.07-.03-.15-.06-.22-.09-.13-.05-.26-.1-.39-.14-.08-.03-.17-.05-.25-.07-.08-.02-.15-.03-.23-.05-.1-.02-.2-.03-.3-.05-.06,0-.11-.01-.17-.02-.12,0-.24-.01-.36,0-.03,0-.05,0-.08,0-.14,0-.28,.03-.41,.05-.03,0-.07,.02-.1,.02-.1,.02-.21,.05-.31,.09-.03,.01-.06,.02-.09,.03-.13,.05-.25,.11-.37,.17L8.6,.38Z"/>
          <path class="cls-10" d="M173.47,93.66c.3,.17,.59,.37,.87,.59,.05,.04,.1,.07,.14,.11,.27,.21,.53,.44,.79,.69,.02,.02,.04,.04,.07,.06,.04,.04,.08,.09,.12,.13,.13,.13,.25,.26,.37,.4,.04,.04,.08,.08,.12,.13,.03,.04,.06,.08,.09,.11,.07,.09,.15,.18,.22,.27,.05,.06,.1,.11,.14,.17,.04,.05,.07,.1,.11,.15,.05,.07,.1,.14,.16,.21,.03,.05,.07,.1,.11,.14,.06,.08,.11,.17,.17,.25,.04,.05,.07,.11,.11,.16,.01,.02,.03,.04,.05,.07,.1,.16,.2,.31,.29,.47,0,.01,.01,.02,.02,.03,.02,.03,.04,.07,.06,.1,.06,.11,.13,.22,.19,.34,.03,.05,.05,.11,.08,.16,.03,.06,.06,.11,.08,.17,.02,.05,.05,.1,.07,.15,.06,.13,.12,.26,.18,.39,.01,.02,.02,.05,.03,.07,0,0,0,.01,0,.02,.07,.17,.14,.33,.21,.5,.01,.03,.02,.06,.03,.09,.02,.06,.04,.12,.07,.18,.03,.08,.06,.17,.09,.25,.02,.07,.04,.13,.06,.2,.02,.08,.05,.15,.07,.23,.01,.05,.03,.1,.04,.14,.02,.09,.04,.17,.06,.26,.02,.09,.05,.19,.07,.28,0,.03,.02,.07,.02,.1,.01,.07,.02,.14,.04,.21,.03,.15,.06,.3,.08,.44,0,.04,.02,.08,.02,.12,0,.04,0,.08,0,.11,.04,.33,.06,.66,.06,.98l-.34,119.74c0,1.76-.63,3-1.63,3.58l-6.63,3.85c1-.58,1.62-1.82,1.63-3.58l.34-119.75c0-.32-.03-.65-.06-.98,0-.08-.02-.16-.03-.24-.02-.15-.05-.3-.08-.45-.02-.1-.04-.2-.06-.3-.02-.1-.05-.19-.07-.29-.03-.13-.07-.26-.11-.39-.02-.08-.05-.16-.07-.23-.05-.15-.1-.3-.15-.45-.02-.06-.04-.12-.07-.18-.08-.2-.16-.41-.25-.61-.01-.03-.02-.05-.04-.08-.08-.18-.16-.36-.25-.53-.03-.06-.06-.11-.08-.17-.09-.17-.18-.34-.27-.51-.02-.03-.03-.06-.05-.09-.11-.19-.23-.38-.35-.57-.04-.06-.07-.11-.11-.16-.09-.13-.18-.27-.27-.4-.05-.07-.1-.14-.16-.21-.08-.11-.17-.21-.25-.32-.07-.09-.15-.18-.22-.27-.07-.08-.14-.16-.21-.24-.12-.14-.25-.27-.37-.4-.06-.06-.12-.12-.18-.18-.25-.25-.52-.48-.79-.69-.05-.04-.1-.07-.14-.11-.28-.22-.57-.42-.87-.59l6.63-3.85Z"/>
          <path class="cls-8" d="M5.94,4.61C2.86,2.84,.35,4.27,.34,7.81L0,127.56c-.01,3.55,2.48,7.86,5.56,9.64l160.9,92.9c3.09,1.78,5.6,.36,5.61-3.19l.34-119.75c.01-3.55-2.48-7.87-5.57-9.65L5.94,4.61Z"/>
        </g>
        <path class="cls-2" d="M6.36,7.48c-1.24-.71-2.25-.14-2.25,1.29l-.34,119.74c0,1.43,1,3.17,2.24,3.88l160.9,92.9c1.24,.72,2.25,.14,2.26-1.29l.34-119.75c0-1.43-1-3.17-2.24-3.89L6.36,7.48Z"/>
      </g>
      <g>
        <g>
          <g>
            <path class="cls-1" d="M76.74,94.88c-.35-.2-.64-.04-.64,.36v.12c0,.41,.28,.89,.63,1.1l8.23,4.75c.35,.2,.63,.04,.63-.37v-.12c0-.4-.28-.89-.63-1.09l-8.23-4.75Z"/>
            <path class="cls-5" d="M67.01,93.67c-.27-.16-.5-.03-.5,.28v.42c0,.32,.22,.7,.49,.86l8,4.62c.27,.16,.5,.03,.5-.28v-.42c0-.32-.22-.7-.49-.86l-8-4.62Z"/>
            <path class="cls-4" d="M72.26,88.99c-.29-.17-.52-.03-.52,.3v.35c0,.33,.23,.74,.52,.9l9,5.2c.29,.17,.52,.03,.52-.3v-.35c0-.33-.23-.74-.52-.9l-9-5.2Z"/>
            <path class="cls-4" d="M73.51,85.67c-.31-.18-.58-.04-.58,.33v.24c0,.36,.26,.81,.57,.99l6.73,3.89c.32,.19,.58,.03,.58-.33v-.24c0-.37-.25-.81-.57-.99l-6.73-3.88Z"/>
            <path class="cls-5" d="M73.81,78.49c-.37-.22-.68-.04-.68,.39,0,.43,.3,.96,.67,1.18l3.47,2c.37,.22,.68,.04,.69-.39,0-.43-.31-.95-.68-1.17l-3.47-2Z"/>
            <path class="cls-4" d="M75.25,70.5c-.37-.22-.68-.04-.68,.39,0,.43,.3,.96,.67,1.18l24.19,13.97c.37,.22,.68,.04,.69-.39,0-.42-.31-.95-.68-1.17l-24.19-13.97Z"/>
            <path class="cls-4" d="M66.61,74.33c-.37-.22-.68-.04-.68,.39,0,.43,.3,.96,.67,1.18l5.3,3.06c.37,.22,.68,.04,.68-.39,0-.43-.3-.95-.67-1.17l-5.3-3.06Z"/>
            <path class="cls-4" d="M66.3,69.74c-.37-.22-.68-.04-.68,.39,0,.43,.3,.95,.67,1.17l11.91,6.88c.37,.22,.68,.05,.69-.38,0-.43-.31-.95-.68-1.17l-11.91-6.88Z"/>
            <path class="cls-5" d="M66.48,120.2c-.37-.22-.68-.04-.68,.39,0,.43,.3,.95,.67,1.17l5.3,3.06c.37,.22,.68,.04,.68-.39,0-.43-.3-.96-.67-1.18l-5.3-3.06Z"/>
            <g class="cls-14">
              <path class="cls-4" d="M73.68,124.36c-.37-.22-.68-.04-.68,.39,0,.43,.3,.95,.67,1.17l3.47,2c.37,.22,.68,.05,.69-.38,0-.43-.31-.96-.68-1.18l-3.47-2Z"/>
              <path class="cls-4" d="M66.17,115.61c-.37-.22-.68-.04-.68,.39,0,.43,.3,.96,.67,1.18l11.91,6.88c.37,.22,.68,.04,.69-.39,0-.43-.31-.95-.68-1.17l-11.91-6.88Z"/>
              <path class="cls-4" d="M75.12,116.38c-.37-.22-.68-.04-.68,.39,0,.43,.3,.95,.67,1.17l24.19,13.97c.37,.22,.68,.05,.69-.38,0-.43-.31-.95-.68-1.17l-24.19-13.97Z"/>
            </g>
            <path class="cls-4" d="M90.79,129.83c-.33-.19-.59-.04-.59,.33v.22c0,.38,.26,.83,.59,1.02l15.71,9.07c.32,.19,.59,.04,.59-.34v-.22c0-.37-.27-.82-.59-1.01l-15.71-9.07Z"/>
            <path class="cls-4" d="M79.54,127.74c-.37-.22-.68-.04-.69,.39,0,.43,.31,.95,.68,1.17l23.05,13.31c.37,.22,.68,.04,.68-.39,0-.43-.3-.96-.67-1.18l-23.05-13.31Z"/>
            <path class="cls-5" d="M80.44,123.85c-.32-.19-.58-.04-.58,.33v.23c0,.37,.26,.82,.58,1.01l8.48,4.89c.32,.19,.58,.03,.58-.34v-.23c0-.36-.25-.81-.57-.99l-8.48-4.89Z"/>
            <path class="cls-4" d="M79.93,112.53c-.37-.22-.68-.04-.68,.39,0,.43,.3,.96,.67,1.18l21.4,12.35c.37,.22,.68,.04,.68-.39,0-.43-.3-.95-.67-1.17l-21.4-12.35Z"/>
            <path class="cls-1" d="M67.99,105.64c-.37-.21-.68-.04-.68,.39,0,.43,.31,.96,.67,1.18l9.63,5.56c.37,.22,.68,.04,.68-.39,0-.43-.3-.95-.67-1.17l-9.63-5.56Z"/>
            <path class="cls-1" d="M104.45,126.69c-.37-.22-.68-.05-.69,.38,0,.43,.31,.96,.68,1.18l13.09,7.56c.37,.22,.68,.04,.68-.39,0-.43-.3-.95-.67-1.17l-13.09-7.56Z"/>
            <path class="cls-1" d="M102.66,132.27c-.37-.22-.68-.05-.69,.38,0,.43,.31,.95,.68,1.17l14.86,8.58c.37,.22,.68,.04,.68-.39,0-.43-.3-.95-.67-1.17l-14.86-8.58Z"/>
            <g class="cls-14">
              <path class="cls-4" d="M77.1,99.5c-.27-.16-.5-.03-.5,.28v.42c0,.32,.22,.7,.49,.86l7.99,4.62c.27,.16,.5,.03,.5-.28v-.42c0-.32-.22-.7-.49-.86l-7.99-4.62Z"/>
              <path class="cls-4" d="M82.35,90.77c-.31-.18-.57-.04-.57,.33v.24c0,.36,.25,.81,.57,.99l6.74,3.89c.31,.18,.57,.03,.57-.33v-.24c0-.37-.25-.81-.57-.99l-6.74-3.89Z"/>
              <path class="cls-4" d="M86.87,105.14c-.27-.16-.5-.03-.5,.28v.42c0,.32,.22,.7,.49,.86l17.62,10.17c.27,.16,.5,.03,.5-.28v-.42c0-.32-.22-.7-.49-.86l-17.62-10.17Z"/>
              <path class="cls-4" d="M86.97,100.91c-.32-.19-.59-.04-.59,.34v.09c0,.37,.27,.83,.59,1.02l17.44,10.07c.33,.19,.59,.03,.59-.34v-.09c0-.38-.26-.83-.59-1.02l-17.44-10.07Z"/>
              <path class="cls-1" d="M80.57,77.98c-.32-.19-.58-.04-.58,.33v.23c0,.37,.26,.81,.58,1l8.48,4.89c.32,.19,.58,.04,.58-.33v-.23c0-.37-.25-.81-.57-.99l-8.48-4.89Z"/>
              <path class="cls-5" d="M83.18,95.3c-.29-.17-.52-.03-.52,.3v.35c0,.33,.23,.74,.52,.9l19.75,11.4c.29,.17,.52,.03,.52-.3v-.35c0-.33-.23-.74-.52-.9l-19.75-11.4Z"/>
              <path class="cls-1" d="M72.56,104.6c-.35-.2-.64-.04-.64,.36,0,.41,.29,.9,.63,1.11l45.03,26c.35,.2,.64,.04,.64-.37,0-.4-.28-.89-.63-1.1l-45.03-26Z"/>
              <path class="cls-1" d="M90.92,95.72c-.32-.19-.58-.04-.58,.33v.24c0,.36,.25,.81,.57,.99l15.17,8.76c.32,.19,.58,.03,.58-.33v-.24c0-.37-.25-.81-.57-.99l-15.17-8.76Z"/>
              <path class="cls-4" d="M79.67,81.87c-.37-.22-.68-.05-.69,.38,0,.43,.31,.96,.68,1.18l23.05,13.31c.37,.22,.68,.04,.68-.39,0-.43-.3-.95-.67-1.17l-23.05-13.31Z"/>
              <path class="cls-4" d="M107.03,112.5c-.33-.19-.59-.04-.59,.34v.09c0,.37,.26,.83,.59,1.02l10.64,6.14c.33,.19,.59,.03,.59-.34v-.09c0-.38-.26-.83-.59-1.02l-10.64-6.14Z"/>
              <path class="cls-4" d="M105.59,108.23c-.29-.17-.52-.03-.52,.3v.35c0,.33,.23,.74,.52,.9l12.16,7.02c.29,.17,.52,.03,.52-.3v-.35c0-.33-.23-.74-.52-.9l-12.16-7.02Z"/>
              <path class="cls-4" d="M90.92,83.96c-.33-.19-.59-.04-.59,.33v.22c0,.37,.26,.82,.59,1.01l15.71,9.07c.32,.19,.59,.04,.59-.33v-.22c0-.37-.27-.82-.59-1.01l-15.71-9.07Z"/>
              <path class="cls-4" d="M108.5,105.87c-.32-.19-.58-.04-.58,.33v.24c0,.36,.25,.81,.57,.99l9.21,5.32c.31,.18,.57,.03,.57-.33v-.24c0-.37-.25-.81-.57-.99l-9.21-5.32Z"/>
              <path class="cls-5" d="M80.06,66.66c-.37-.22-.68-.04-.68,.39,0,.43,.3,.95,.67,1.17l21.4,12.35c.37,.22,.68,.04,.68-.39,0-.43-.3-.95-.67-1.17l-21.4-12.35Z"/>
              <path class="cls-1" d="M102.79,86.39c-.37-.22-.68-.04-.69,.38,0,.43,.31,.96,.68,1.18l14.86,8.58c.37,.22,.68,.04,.68-.39,0-.42-.3-.95-.67-1.17l-14.86-8.58Z"/>
              <path class="cls-1" d="M72.69,58.73c-.35-.2-.64-.04-.64,.36s.29,.9,.63,1.1l45.03,26c.35,.2,.64,.04,.64-.36,0-.41-.28-.89-.63-1.1l-45.03-26Z"/>
            </g>
            <path class="cls-4" d="M104.58,80.82c-.37-.22-.68-.05-.69,.38,0,.43,.31,.95,.68,1.17l13.09,7.56c.37,.22,.68,.04,.68-.39,0-.43-.3-.95-.67-1.17l-13.09-7.56Z"/>
            <path class="cls-4" d="M68.12,59.77c-.37-.21-.68-.04-.68,.39,0,.43,.31,.95,.67,1.17l9.63,5.56c.37,.22,.68,.04,.68-.39,0-.43-.3-.95-.67-1.17l-9.63-5.56Z"/>
            <path class="cls-4" d="M55.79,52.65c-.37-.22-.68-.04-.68,.39,0,.43,.3,.95,.67,1.17l9.63,5.56c.37,.22,.68,.04,.68-.39,0-.43-.3-.95-.67-1.17l-9.63-5.56Z"/>
            <path class="cls-4" d="M60.99,82.48c-.29-.17-.52-.03-.52,.3v.35c0,.33,.23,.74,.52,.9l9,5.2c.29,.17,.52,.03,.52-.3v-.35c0-.33-.23-.74-.52-.9l-9-5.2Z"/>
            <path class="cls-1" d="M106.92,116.72c-.27-.16-.5-.03-.5,.28v.42c0,.32,.22,.7,.49,.86l10.83,6.25c.27,.16,.5,.03,.5-.28v-.42c0-.32-.22-.7-.49-.86l-10.83-6.25Z"/>
            <path class="cls-1" d="M105.26,96.65c-.33-.19-.59-.03-.59,.34v.19c0,.38,.26,.84,.59,1.02l9.9,5.71c.33,.19,.6,.04,.6-.34v-.19c0-.38-.27-.84-.59-1.03l-9.9-5.71Z"/>
            <path class="cls-4" d="M108.59,94.16c-.27-.16-.5-.03-.5,.28v.42c0,.32,.22,.7,.49,.86l6.68,3.85c.27,.16,.5,.03,.5-.28v-.42c0-.31-.22-.69-.49-.85l-6.68-3.85Z"/>
            <path class="cls-4" d="M55.66,98.52c-.37-.22-.68-.04-.68,.39,0,.43,.3,.96,.67,1.18l9.63,5.56c.37,.22,.68,.04,.68-.39,0-.43-.3-.95-.67-1.17l-9.63-5.56Z"/>
            <path class="cls-1" d="M105.13,142.52c-.33-.19-.59-.03-.59,.34v.19c0,.38,.26,.84,.59,1.02l9.9,5.71c.33,.19,.6,.04,.6-.34v-.19c0-.38-.27-.84-.59-1.03l-9.9-5.71Z"/>
            <path class="cls-1" d="M108.46,140.03c-.27-.16-.5-.03-.5,.28v.42c0,.32,.22,.7,.49,.86l6.68,3.85c.27,.16,.5,.03,.5-.28v-.42c0-.32-.22-.7-.49-.86l-6.68-3.85Z"/>
          </g>
          <g>
            <path class="cls-4" d="M34.75,42.56c-.23-.14-.43-.02-.43,.24v.58c0,.27,.19,.6,.43,.74l4.92,2.84c.24,.14,.43,.02,.43-.24v-.58c0-.27-.18-.6-.43-.74l-4.92-2.84Z"/>
            <path class="cls-4" d="M19.54,49.22c-.23-.14-.43-.03-.43,.24v.57c0,.28,.19,.6,.43,.74l1.8,1.04c.24,.14,.43,.03,.43-.24v-.57c0-.28-.18-.6-.43-.74l-1.8-1.04Z"/>
            <path class="cls-4" d="M19.42,44.74c-.23-.14-.43-.02-.43,.24v.58c0,.27,.19,.6,.43,.74l4.45,2.57c.23,.14,.43,.02,.43-.24v-.58c0-.27-.19-.6-.43-.74l-4.45-2.57Z"/>
            <path class="cls-4" d="M23.01,42.4c-.23-.14-.43-.02-.43,.24v.58c0,.27,.19,.6,.43,.74l9.37,5.41c.23,.14,.43,.02,.43-.24v-.58c0-.27-.19-.6-.43-.74l-9.37-5.41Z"/>
            <path class="cls-5" d="M24.95,36.9c-.24-.14-.44-.03-.44,.24v.58c0,.27,.19,.6,.43,.74l8.24,4.76c.23,.14,.43,.02,.43-.24v-.58c0-.27-.19-.6-.43-.74l-8.24-4.76Z"/>
            <path class="cls-1" d="M22,31.52c-.22-.13-.4-.02-.4,.24v.54c0,.25,.18,.57,.4,.69l17.72,10.23c.22,.13,.4,.02,.4-.23v-.54c0-.26-.18-.57-.4-.7l-17.72-10.23Z"/>
            <path class="cls-4" d="M29.25,50.41c-.21-.12-.37-.02-.37,.21v.72c0,.23,.16,.52,.37,.64l6.01,3.47c.2,.12,.37,.02,.37-.21v-.72c0-.23-.16-.52-.37-.64l-6.01-3.47Z"/>
            <path class="cls-4" d="M22.26,58.14c-.2-.12-.36-.02-.36,.21v.72c0,.23,.16,.51,.36,.62l2.42,1.4c.2,.12,.37,.03,.37-.2v-.72c0-.23-.16-.51-.37-.63l-2.42-1.4Z"/>
            <path class="cls-4" d="M24.76,52.23c-.23-.14-.43-.03-.43,.24v.57c0,.28,.19,.6,.43,.74l8.9,5.14c.24,.14,.43,.03,.43-.24v-.57c0-.28-.18-.6-.43-.74l-8.9-5.14Z"/>
            <path class="cls-1" d="M34.02,48.76c-.23-.14-.43-.02-.43,.24v.58c0,.27,.19,.6,.43,.74l5.63,3.25c.24,.14,.43,.02,.43-.24v-.58c0-.27-.18-.6-.43-.74l-5.63-3.25Z"/>
            <path class="cls-4" d="M20.17,34.14c-.23-.14-.43-.02-.43,.24v.58c0,.27,.19,.6,.43,.74l3.54,2.04c.24,.14,.43,.02,.43-.24v-.58c0-.27-.18-.6-.43-.74l-3.54-2.04Z"/>
            <path class="cls-4" d="M15.24,31.29c-.24-.14-.44-.03-.44,.24v.58c0,.27,.19,.6,.43,.74l3.54,2.04c.23,.14,.43,.02,.43-.24v-.58c0-.27-.19-.6-.43-.74l-3.54-2.04Z"/>
            <path class="cls-4" d="M35.08,69.58c-.19-.11-.34-.02-.34,.19v.8c0,.21,.14,.46,.33,.57l4.62,2.67c.18,.1,.33,.02,.33-.19v-.8c0-.21-.14-.47-.32-.57l-4.62-2.67Z"/>
            <path class="cls-4" d="M36.26,66.22c-.2-.12-.36-.02-.36,.21v.72c0,.23,.16,.51,.36,.62l3.42,1.98c.2,.12,.36,.02,.36-.21v-.72c0-.23-.16-.51-.36-.62l-3.42-1.98Z"/>
            <path class="cls-1" d="M23.55,66.24c-.22-.13-.4-.03-.4,.23v.65c0,.25,.17,.56,.39,.69l3,1.73c.22,.13,.4,.02,.4-.23v-.65c0-.25-.18-.56-.4-.69l-3-1.73Z"/>
            <path class="cls-4" d="M23.66,70.71c-.17-.1-.32-.02-.32,.18v.84c0,.2,.14,.44,.31,.54l2.97,1.71c.17,.1,.32,.02,.32-.18v-.84c0-.2-.14-.44-.31-.54l-2.97-1.71Z"/>
            <path class="cls-5" d="M26.11,64.4c-.18-.1-.34-.02-.34,.19v.8c0,.21,.15,.47,.33,.57l7.65,4.42c.19,.11,.34,.02,.34-.18v-.8c0-.21-.14-.47-.33-.58l-7.65-4.42Z"/>
            <path class="cls-1" d="M29.23,62.16c-.2-.12-.36-.02-.36,.21v.72c0,.23,.16,.51,.36,.62l5.8,3.35c.2,.12,.37,.03,.37-.2v-.72c0-.23-.16-.51-.37-.63l-5.8-3.35Z"/>
            <path class="cls-4" d="M25.8,60.18c-.2-.12-.36-.02-.36,.21v.72c0,.23,.16,.51,.36,.62l2.43,1.4c.19,.11,.36,.02,.36-.21v-.72c0-.23-.16-.51-.36-.62l-2.43-1.4Z"/>
            <path class="cls-4" d="M27.57,72.97c-.17-.1-.32-.02-.32,.18v.84c0,.2,.14,.44,.31,.54l6.82,3.94c.17,.1,.32,.02,.32-.18v-.84c0-.2-.14-.44-.31-.54l-6.82-3.94Z"/>
            <path class="cls-4" d="M35.67,73.36c-.21-.12-.38-.02-.38,.21v.58c0,.24,.16,.53,.37,.65l3.98,2.3c.21,.12,.38,.02,.38-.21v-.58c0-.24-.16-.53-.37-.65l-3.98-2.3Z"/>
            <path class="cls-4" d="M27.64,68.72c-.21-.12-.38-.02-.38,.21v.58c0,.24,.16,.53,.37,.65l6.7,3.87c.21,.12,.38,.02,.38-.21v-.58c0-.24-.16-.53-.37-.65l-6.7-3.87Z"/>
            <path class="cls-4" d="M21.75,61.88c-.19-.11-.34-.02-.34,.19v.8c0,.21,.14,.46,.33,.57l3.35,1.94c.18,.1,.33,.02,.33-.19v-.8c0-.21-.14-.47-.32-.57l-3.35-1.94Z"/>
            <path class="cls-4" d="M17.24,59.28c-.18-.1-.33-.01-.33,.2v.8c0,.21,.14,.46,.32,.57l3.35,1.94c.19,.11,.34,.02,.34-.18v-.8c0-.21-.14-.47-.33-.58l-3.35-1.94Z"/>
            <path class="cls-1" d="M35.59,77.6c-.17-.1-.32-.02-.32,.18v.84c0,.2,.14,.44,.31,.54l4.1,2.37c.17,.1,.32,.02,.32-.18v-.84c0-.2-.14-.44-.31-.54l-4.1-2.37Z"/>
            <path class="cls-5" d="M19.62,68.38c-.17-.1-.32-.02-.32,.18v.84c0,.2,.14,.44,.31,.54l2.97,1.71c.17,.1,.32,.02,.32-.18v-.84c0-.2-.14-.44-.31-.54l-2.97-1.71Z"/>
            <path class="cls-4" d="M36.3,54.48c-.17-.1-.31-.02-.31,.18v.84c0,.2,.14,.44,.3,.54l2.44,1.41c.17,.1,.32,.02,.32-.18v-.84c0-.2-.14-.44-.31-.54l-2.44-1.41Z"/>
            <path class="cls-1" d="M25.11,48.02c-.2-.12-.36-.02-.36,.21v.72c0,.24,.16,.52,.36,.63l3.13,1.81c.2,.12,.36,.02,.36-.21v-.72c0-.23-.16-.52-.36-.63l-3.13-1.81Z"/>
            <path class="cls-1" d="M34.98,58.14c-.21-.12-.38-.03-.38,.21v.69c0,.24,.17,.53,.38,.65l3.68,2.12c.21,.12,.38,.03,.38-.21v-.69c0-.24-.17-.53-.38-.65l-3.68-2.12Z"/>
            <path class="cls-5" d="M22.42,50.88c-.24-.14-.44-.04-.44,.24v.57c0,.28,.19,.6,.43,.74l1.07,.62c.23,.14,.43,.03,.43-.24v-.57c0-.28-.19-.6-.43-.74l-1.07-.62Z"/>
            <g>
              <path class="cls-1" d="M21.87,77.39c-.22-.13-.4-.02-.4,.23v.54c0,.26,.18,.57,.4,.7l17.72,10.23c.22,.13,.4,.02,.4-.24v-.54c0-.25-.18-.57-.4-.69l-17.72-10.23Z"/>
              <path class="cls-1" d="M34.62,88.44c-.23-.14-.43-.03-.43,.24v.57c0,.28,.19,.6,.43,.74l4.92,2.84c.24,.14,.43,.03,.43-.24v-.57c0-.28-.18-.6-.43-.74l-4.92-2.84Z"/>
              <path class="cls-5" d="M24.82,82.78c-.24-.14-.44-.04-.44,.24v.57c0,.28,.19,.6,.43,.74l8.24,4.76c.23,.14,.43,.03,.43-.24v-.57c0-.28-.19-.6-.43-.74l-8.24-4.76Z"/>
              <path class="cls-1" d="M20.04,80.02c-.23-.14-.43-.03-.43,.24v.57c0,.28,.19,.6,.43,.74l3.54,2.04c.24,.14,.43,.03,.43-.24v-.57c0-.28-.18-.6-.43-.74l-3.54-2.04Z"/>
              <path class="cls-4" d="M15.11,77.17c-.24-.14-.44-.04-.44,.24v.57c0,.28,.19,.6,.43,.74l3.54,2.04c.23,.14,.43,.03,.43-.24v-.57c0-.28-.19-.6-.43-.74l-3.54-2.04Z"/>
            </g>
          </g>
        </g>
        <g>
          <polyline class="cls-12" points="141.7 111.73 141.7 173.6 36.31 114.35"/>
          <path class="cls-4" d="M141.73,98.21c4.27,2.46,7.71,8.43,7.7,13.33,3.3,2.3,5.88,6.98,5.87,10.87-.01,3.89-2.6,5.58-5.91,4.03l-14.84-8.53c-3.59-2.07-6.49-7.1-6.48-11.22,.01-3.89,2.61-5.59,5.91-4.03,.01-4.94,3.48-6.92,7.75-4.45Z"/>
          <g>
            <path class="cls-4" d="M33.7,111.18l-1.96-5.22c-.05-.12-.13-.22-.21-.27-.08-.05-.17-.05-.21,.02l-1.99,2.94c-.09,.14,.03,.43,.21,.54l.74,.43c-1.05,2.73-3.83,3.52-7.08,1.64-2.49-1.44-4.81-4.2-6.21-7.39-.15-.35-.4-.64-.66-.78-.15-.09-.31-.13-.45-.1-.37,.07-.46,.59-.22,1.15,1.69,3.86,4.5,7.21,7.53,8.96,4.14,2.39,7.65,1.21,8.76-2.51l1.53,.88c.19,.11,.3-.05,.22-.29Z"/>
            <path class="cls-4" d="M31.57,103.28c-1.44-4.64-4.7-8.99-8.32-11.08-4.5-2.6-8.25-.99-8.99,3.52l-1.3-.75c-.18-.11-.3,.06-.21,.3l1.96,5.22c.05,.12,.13,.22,.21,.27s.17,.05,.21-.02l1.99-2.94c.09-.14-.03-.43-.21-.54l-1.02-.59c.72-3.5,3.75-4.71,7.36-2.63,2.98,1.72,5.67,5.31,6.86,9.13,.13,.42,.42,.8,.73,.97,.11,.06,.21,.1,.32,.11,.41,.03,.59-.4,.42-.97Z"/>
          </g>
          <g>
            <g>
              <path class="cls-4" d="M151.1,186.89c0,2.99,2.09,6.63,4.69,8.13,2.6,1.5,4.71,.3,4.72-2.69,0-2.99-2.09-6.62-4.69-8.12-2.6-1.5-4.71-.3-4.72,2.69Zm2.23,1.29c0-1.57,1.12-2.21,2.49-1.42,1.37,.79,2.47,2.7,2.47,4.28,0,1.58-1.12,2.21-2.49,1.42-1.37-.79-2.48-2.71-2.47-4.28Z"/>
              <path class="cls-4" d="M148.97,190.63l-1.38,.79,2.34,4.05,1.36-.77c.82,1.1,1.74,2.09,2.73,2.91h0v2.14s3.32,1.92,3.32,1.92v-2.1s0-.89,0-.89l-3.32-1.92,3.32,1.92v.89c1.01,.35,1.96,.44,2.8,.3l1.27,2.19,2.36-1.34-1.27-2.19-.57-.99h0l.57,.99c.55-.65,.95-1.51,1.16-2.57l1.79,1.04v-3.82s-1.82-1.06-1.82-1.06c-.22-1.28-.62-2.59-1.18-3.86l-.54,.31h0l.54-.31,1.32-.75-2.34-4.05-1.36,.77-.5,.28,.5-.28c-.82-1.07-1.74-2.03-2.73-2.82v-2.23s-3.32-1.92-3.32-1.92v2.29s0,.71,0,.71h0v-.71c-.96-.31-1.85-.38-2.65-.23l.43,.74h0l-.43-.74-1.42-2.45-2.36,1.35,1.43,2.47c-.52,.62-.9,1.43-1.1,2.41l-2.01-1.16v3.82s1.98,1.15,1.98,1.15h0c.2,1.23,.57,2.49,1.08,3.72l.47-.27,2.34,4.05-2.34-4.05-.47,.27Zm.02-4.96c.01-4.3,3.06-6.03,6.8-3.87s6.77,7.4,6.76,11.7c-.01,4.3-3.06,6.04-6.8,3.88-3.74-2.16-6.77-7.4-6.76-11.7Z"/>
            </g>
            <g>
              <path class="cls-6" d="M136.29,183.8c0,1.71,1.2,3.79,2.68,4.64,1.48,.86,2.69,.17,2.7-1.54,0-1.71-1.19-3.78-2.68-4.64-1.49-.86-2.69-.17-2.7,1.54Zm1.27,.73c0-.9,.64-1.26,1.42-.81,.78,.45,1.41,1.54,1.41,2.44,0,.9-.64,1.26-1.42,.81-.78-.45-1.41-1.55-1.41-2.45Z"/>
              <path class="cls-6" d="M135.07,185.93l-.79,.45,1.34,2.32,.78-.44c.47,.63,.99,1.19,1.56,1.66h0v1.22s1.89,1.1,1.89,1.1v-1.2s0-.51,0-.51l-1.9-1.1,1.9,1.1v.51c.58,.2,1.12,.25,1.6,.17l.72,1.25,1.35-.77-.72-1.25-.33-.57h0l.33,.57c.32-.37,.54-.86,.66-1.47l1.02,.59v-2.18s-1.04-.6-1.04-.6c-.12-.73-.36-1.48-.67-2.2l-.31,.17h0l.31-.17,.75-.43-1.34-2.32-.77,.44-.28,.16,.28-.16c-.47-.61-1-1.16-1.56-1.61v-1.27s-1.89-1.1-1.89-1.1v1.31s0,.4,0,.4h0v-.4c-.55-.17-1.06-.21-1.51-.13l.24,.42h0l-.24-.42-.81-1.4-1.35,.77,.82,1.41c-.3,.35-.51,.82-.63,1.38l-1.15-.66v2.18s1.13,.66,1.13,.66h0c.11,.7,.33,1.42,.62,2.13l.27-.15,1.34,2.32-1.34-2.32-.27,.15Zm.01-2.83c0-2.46,1.75-3.45,3.88-2.21,2.14,1.23,3.87,4.23,3.86,6.68,0,2.46-1.75,3.45-3.88,2.21s-3.87-4.23-3.86-6.68Z"/>
            </g>
          </g>
        </g>
        <g>
          <path class="cls-5" d="M63.9,141.85c-1.03-.6-1.86-.11-1.87,1.06,0,1.18,.82,2.62,1.86,3.21l47.61,27.49c1.02,.59,1.86,.11,1.87-1.06,0-1.18-.83-2.62-1.86-3.21l-47.61-27.49Z"/>
          <path class="cls-7" d="M77.53,149.86c-1.02-.59-1.86-.12-1.87,1.06,0,1.18,.83,2.62,1.86,3.21l47.61,27.49c1.03,.6,1.86,.12,1.87-1.06,0-1.18-.82-2.61-1.86-3.21l-47.61-27.49Z"/>
        </g>
      </g>
    </g>
  </g>
</svg>