<svg xmlns="http://www.w3.org/2000/svg" viewBox="0 0 1440 320"><path fill="#f3f4f5" fill-opacity="1" d="M0,32L30,69.3C60,107,120,181,180,181.3C240,181,300,107,360,69.3C420,32,480,32,540,53.3C600,75,660,117,720,128C780,139,840,117,900,122.7C960,128,1020,160,1080,176C1140,192,1200,192,1260,192C1320,192,1380,192,1410,192L1440,192L1440,320L1410,320C1380,320,1320,320,1260,320C1200,320,1140,320,1080,320C1020,320,960,320,900,320C840,320,780,320,720,320C660,320,600,320,540,320C480,320,420,320,360,320C300,320,240,320,180,320C120,320,60,320,30,320L0,320Z"></path></svg>