<?xml version="1.0" encoding="UTF-8"?>
<svg id="Layer_2" data-name="Layer 2" xmlns="http://www.w3.org/2000/svg" viewBox="0 0 88.72 120">
  <defs>
    <style>
      .cls-1 {
        fill: none;
      }

      .cls-2 {
        fill: #ebebeb;
      }

      .cls-3 {
        fill: #fff;
      }

      .cls-4 {
        fill: #2965f1;
      }

      .cls-5 {
        fill: #264de4;
      }
    </style>
  </defs>
  <g id="Layer_1-2" data-name="Layer 1">
    <g>
      <rect class="cls-1" width="88.72" height="120"/>
      <g id="g3013">
        <polygon id="polygon2989" class="cls-5" points="44.31 120 9.59 110.36 1.85 23.58 86.87 23.58 79.12 110.35 44.31 120"/>
        <polygon id="polygon2991" class="cls-4" points="72.49 104.82 79.11 30.68 44.36 30.68 44.36 112.62 72.49 104.82"/>
        <polygon id="polygon2993" class="cls-2" points="19.59 62.86 20.54 73.51 44.36 73.51 44.36 62.86 19.59 62.86"/>
        <polygon id="polygon2995" class="cls-2" points="17.67 41.32 18.64 51.96 44.36 51.96 44.36 41.32 44.33 41.32 17.67 41.32"/>
        <polygon id="polygon2997" class="cls-2" points="44.36 90.5 44.32 90.52 32.46 87.32 31.7 78.83 25.94 78.83 21.02 78.83 22.51 95.54 44.31 101.59 44.36 101.58 44.36 90.5"/>
        <path id="path2999" d="M21.86,0h12.89V5.39h-7.5v5.39h7.5v5.39h-12.89V0Z"/>
        <path id="path3001" d="M37.33,0h12.89V4.69h-7.5v.94h7.5v10.78h-12.89v-4.92h7.5v-.94h-7.5V0Z"/>
        <path id="path3003" d="M52.8,0h12.89V4.69h-7.5v.94h7.5v10.78h-12.89v-4.92h7.5v-.94h-7.5V0Z"/>
        <polygon id="polygon3005" class="cls-3" points="69.06 62.86 70.99 41.32 44.33 41.32 44.33 51.96 59.32 51.96 58.35 62.86 44.33 62.86 44.33 73.51 57.43 73.51 56.2 87.31 44.33 90.51 44.33 101.59 66.14 95.54 66.3 93.74 68.81 65.72 69.06 62.86"/>
      </g>
    </g>
  </g>
</svg>