<?xml version="1.0" encoding="UTF-8"?>
<svg id="Layer_2" data-name="Layer 2" xmlns="http://www.w3.org/2000/svg" viewBox="0 0 140.98 120">
  <defs>
    <style>
      .cls-1 {
        fill: none;
      }

      .cls-2 {
        fill: #0091e2;
      }
    </style>
  </defs>
  <g id="Layer_1-2" data-name="Layer 1">
    <g>
      <g>
        <g>
          <path class="cls-2" d="M21.74,85.67c-1.2-.04-2.17,.9-2.21,2.06v10.79c-5.13-4.12-12.67-3.3-16.79,1.84-1.69,2.14-2.62,4.76-2.62,7.49-.11,6.6,5.13,12.03,11.73,12.14,6.6,.11,12.03-5.13,12.14-11.73v-20.39c0-.6-.22-1.16-.64-1.57-.45-.41-1.01-.64-1.61-.64m-2.81,25.07c-.75,1.8-2.17,3.22-3.97,4.01-1.87,.79-3.97,.79-5.85,0-1.8-.75-3.19-2.21-3.93-3.97-.79-1.84-.79-3.93,0-5.81,.75-1.8,2.17-3.22,3.93-3.97,1.87-.79,3.97-.79,5.85,0,1.8,.79,3.22,2.21,3.97,4.01,.79,1.8,.79,3.9,0,5.73"/>
          <path class="cls-2" d="M46.66,99.43c-4.65-4.65-12.22-4.65-16.86,0-2.25,2.25-3.49,5.28-3.49,8.43-.11,6.6,5.13,12.03,11.73,12.14,6.6,.11,12.03-5.13,12.14-11.73v-.41c0-1.57-.3-3.11-.9-4.57-.6-1.46-1.5-2.77-2.62-3.86m-1.54,11.28c-.37,.9-.94,1.69-1.61,2.36s-1.5,1.24-2.36,1.61c-1.87,.79-3.97,.79-5.85,0-1.8-.75-3.22-2.21-3.97-3.97-.79-1.84-.79-3.93,0-5.81,.75-1.8,2.17-3.19,3.97-3.97,1.87-.79,3.97-.79,5.85,0,.9,.37,1.69,.94,2.36,1.61s1.24,1.5,1.61,2.36c.79,1.91,.79,4.01,0,5.81"/>
          <path class="cls-2" d="M96.01,98.11c0-.3-.07-.6-.19-.86-.11-.26-.3-.49-.49-.71-.19-.19-.45-.37-.71-.49-.26-.11-.56-.19-.86-.19-.41,0-.82,.11-1.2,.34l-12.74,8.28v-16.56c0-.6-.22-1.16-.64-1.57s-.97-.67-1.57-.67c-1.24,0-2.21,.97-2.25,2.21v29.64c0,.6,.22,1.16,.64,1.57,.41,.45,.97,.67,1.57,.67s1.16-.22,1.57-.67c.41-.41,.67-.97,.64-1.57v-7.68l2.59-1.69,9.86,11.05c.41,.37,.94,.6,1.5,.56,.3,0,.6-.04,.86-.19,.26-.11,.49-.26,.71-.49,.19-.22,.37-.45,.49-.71,.11-.26,.19-.56,.19-.86,0-.56-.22-1.12-.6-1.54l-9.14-10.31,8.92-5.81c.6-.37,.9-1.05,.86-1.76"/>
          <path class="cls-2" d="M59.02,102.54c.67-.67,1.5-1.24,2.4-1.61,.94-.37,1.91-.6,2.92-.6,.9,0,1.76,.15,2.59,.45,.82,.34,1.61,.79,2.29,1.39,.41,.34,.94,.49,1.46,.49,.6,.04,1.2-.19,1.61-.64,.41-.41,.64-1.01,.64-1.61,0-.64-.26-1.27-.79-1.69-2.14-1.91-4.91-2.96-7.79-2.89-6.6,0-11.95,5.36-11.95,11.95s5.32,11.92,11.88,11.95c2.89,0,5.66-1.01,7.83-2.89,.45-.41,.71-1.01,.71-1.65,.04-1.2-.9-2.17-2.06-2.21h-.15c-.52,0-1.01,.15-1.42,.45-.67,.6-1.42,1.05-2.25,1.39-.82,.3-1.72,.45-2.59,.45-1.01,0-1.99-.19-2.92-.6-.9-.37-1.69-.94-2.4-1.61-2.92-2.92-2.92-7.64-.04-10.57q.04,.07,.04,.04"/>
          <path class="cls-2" d="M140.27,97.4c-.45-.41-.94-.71-1.5-.9-.64-.22-1.31-.37-1.99-.45s-1.35-.11-2.02-.11c-1.35,0-2.74,.22-4.01,.71-1.27,.45-2.44,1.12-3.49,1.95v-.45c-.04-1.24-1.09-2.17-2.32-2.14-1.16,.04-2.1,.97-2.14,2.14v19.45c.04,1.24,1.09,2.17,2.32,2.14,1.16-.04,2.1-.97,2.14-2.14v-9.71c0-1.01,.19-1.99,.6-2.92,.37-.9,.9-1.69,1.61-2.36,.67-.67,1.5-1.24,2.36-1.61,.94-.37,1.91-.6,2.92-.6s1.99,.19,2.92,.52c.3,.15,.6,.22,.94,.22,.3,0,.6-.04,.86-.19,.26-.11,.49-.26,.71-.49,.19-.19,.37-.45,.49-.71,.11-.26,.19-.56,.19-.86,.04-.56-.19-1.09-.6-1.5"/>
          <path class="cls-2" d="M119.58,103.28c-1.91-4.42-6.26-7.31-11.05-7.34-6.6,0-11.92,5.32-11.95,11.92h0c0,6.6,5.36,11.95,11.95,11.95,2.85,0,5.62-1.01,7.79-2.89,.04-.04,.07-.07,.07-.07,.19-.15,.37-.34,.49-.56,.71-1.05,.45-2.44-.56-3.15-.86-.56-1.99-.45-2.74,.26-.07,.07-.3,.26-.3,.3l-.04,.04c-.64,.52-1.35,.97-2.14,1.24-.82,.3-1.69,.45-2.59,.41-.82,0-1.61-.11-2.4-.37-.75-.26-1.46-.6-2.1-1.09-.64-.45-1.2-1.01-1.65-1.65-.49-.64-.82-1.39-1.05-2.14h16.86c.6,0,1.16-.22,1.57-.64,.45-.41,.67-.97,.64-1.57,.04-1.61-.26-3.19-.82-4.65m-18.25,2.4c.22-.79,.56-1.5,1.05-2.14,.45-.64,1.01-1.2,1.65-1.65,.64-.45,1.35-.82,2.1-1.09,.75-.26,1.57-.37,2.36-.37s1.61,.11,2.36,.37c1.5,.49,2.81,1.46,3.75,2.74,.49,.64,.82,1.39,1.09,2.14h-14.35Z"/>
          <path class="cls-2" d="M132.66,116.55c-.86,0-1.54,.71-1.54,1.57s.71,1.54,1.57,1.54,1.54-.71,1.54-1.54c0-.9-.71-1.57-1.57-1.57h0m0,2.77c-.67,.04-1.24-.49-1.27-1.16-.04-.67,.49-1.24,1.16-1.27s1.24,.49,1.27,1.16v.07c.04,.64-.49,1.2-1.12,1.2t-.04,0"/>
          <path class="cls-2" d="M133.03,118.12h0c.19-.04,.3-.19,.3-.37,0-.15-.04-.26-.15-.34-.15-.07-.34-.11-.52-.11s-.41,0-.6,.04v1.54h.34v-.6h.15c.19,0,.3,.07,.34,.22,.04,.11,.07,.26,.11,.37h.37c-.07-.11-.11-.26-.11-.37,.04-.15-.07-.3-.22-.37m-.45-.11h-.19v-.45h.19c.22,0,.34,.11,.34,.22,.04,.15-.15,.26-.34,.22"/>
        </g>
        <g>
          <path class="cls-2" d="M129.68,29.02c-.3-.25-2.98-2.28-8.73-2.28-1.49,0-3.03,.15-4.51,.4-1.09-7.59-7.39-11.26-7.64-11.46l-1.54-.89-.99,1.44c-1.24,1.93-2.18,4.12-2.73,6.35-1.04,4.32-.4,8.38,1.79,11.86-2.63,1.49-6.9,1.84-7.79,1.89H27.08c-1.84,0-3.32,1.49-3.32,3.32-.1,6.15,.94,12.3,3.08,18.11,2.43,6.35,6.05,11.06,10.72,13.94,5.26,3.22,13.84,5.06,23.52,5.06,4.37,0,8.73-.4,13.05-1.19,6-1.09,11.76-3.18,17.07-6.2,4.37-2.53,8.29-5.76,11.61-9.53,5.61-6.3,8.93-13.35,11.36-19.6h.99c6.1,0,9.87-2.43,11.96-4.51,1.39-1.29,2.43-2.88,3.18-4.66l.45-1.29-1.04-.74Z"/>
          <path class="cls-2" d="M33.63,34.28h9.43c.45,0,.84-.35,.84-.84h0v-8.43c0-.45-.35-.84-.84-.84h-9.43c-.45,0-.84,.35-.84,.84h0v8.43c.05,.5,.4,.84,.84,.84h0"/>
          <path class="cls-2" d="M46.63,34.28h9.43c.45,0,.84-.35,.84-.84h0v-8.43c0-.45-.35-.84-.84-.84h-9.43c-.45,0-.84,.35-.84,.84v8.43c.05,.5,.4,.84,.84,.84"/>
          <path class="cls-2" d="M59.87,34.28h9.43c.45,0,.84-.35,.84-.84h0v-8.43c0-.45-.35-.84-.84-.84h-9.43c-.45,0-.84,.35-.84,.84h0v8.43c0,.5,.35,.84,.84,.84h0"/>
          <path class="cls-2" d="M72.92,34.28h9.43c.45,0,.84-.35,.84-.84v-8.43c0-.45-.35-.84-.84-.84h-9.43c-.45,0-.84,.35-.84,.84h0v8.43c0,.5,.4,.84,.84,.84h0"/>
          <path class="cls-2" d="M46.63,22.23h9.43c.45,0,.84-.4,.84-.84V12.95c0-.45-.35-.84-.84-.84h-9.43c-.45,0-.84,.35-.84,.84v8.43c.05,.45,.4,.84,.84,.84"/>
          <path class="cls-2" d="M59.87,22.23h9.43c.45,0,.84-.4,.84-.84V12.95c0-.45-.35-.84-.84-.84h-9.43c-.45,0-.84,.35-.84,.84h0v8.43c0,.45,.35,.84,.84,.84"/>
          <path class="cls-2" d="M72.92,22.23h9.43c.45,0,.84-.4,.84-.84V12.95c0-.45-.4-.84-.84-.84h-9.43c-.45,0-.84,.35-.84,.84h0v8.43c0,.45,.4,.84,.84,.84"/>
          <path class="cls-2" d="M72.92,10.12h9.43c.45,0,.84-.35,.84-.84V.84c0-.45-.4-.84-.84-.84h-9.43c-.45,0-.84,.35-.84,.84h0V9.28c0,.45,.4,.84,.84,.84"/>
          <path class="cls-2" d="M86.07,34.28h9.43c.45,0,.84-.35,.84-.84v-8.43c0-.45-.35-.84-.84-.84h-9.43c-.45,0-.84,.35-.84,.84h0v8.43c.05,.5,.4,.84,.84,.84"/>
        </g>
      </g>
      <rect class="cls-1" y="0" width="140.98" height="120"/>
    </g>
  </g>
</svg>