<?xml version="1.0" encoding="UTF-8"?>
<svg id="Layer_2" data-name="Layer 2" xmlns="http://www.w3.org/2000/svg" viewBox="0 0 88.72 120">
  <defs>
    <style>
      .cls-1 {
        fill: none;
      }

      .cls-2 {
        fill: #ebebeb;
      }

      .cls-3 {
        fill: #fff;
      }

      .cls-4 {
        fill: #f16529;
      }

      .cls-5 {
        fill: #e44d26;
      }
    </style>
  </defs>
  <g id="Layer_1-2" data-name="Layer 1">
    <g>
      <rect class="cls-1" width="88.72" height="120"/>
      <g id="g3054">
        <polygon id="polygon3028" class="cls-5" points="86.87 23.58 79.12 110.35 44.31 120 9.59 110.36 1.85 23.58 86.87 23.58"/>
        <polygon id="polygon3030" class="cls-4" points="44.36 112.62 72.49 104.82 79.11 30.68 44.36 30.68 44.36 112.62"/>
        <polygon id="polygon3032" class="cls-2" points="29.31 51.96 44.36 51.96 44.36 41.32 44.33 41.32 17.67 41.32 17.93 44.18 20.54 73.51 44.36 73.51 44.36 62.86 30.28 62.86 29.31 51.96"/>
        <polygon id="polygon3034" class="cls-2" points="31.7 78.83 25.94 78.83 21.02 78.83 22.51 95.54 44.31 101.59 44.36 101.58 44.36 90.5 44.32 90.52 32.46 87.32 31.7 78.83"/>
        <path id="path3036" d="M9.76,0h5.41V5.34h4.95V0h5.41V16.18h-5.41v-5.42h-4.95v5.42h-5.41V0h0Z"/>
        <path id="path3038" d="M32.64,5.37h-4.76V0h14.93V5.37h-4.76v10.82h-5.41V5.37h0Z"/>
        <path id="path3040" d="M45.18,0h5.64l3.47,5.69,3.47-5.69h5.64V16.18h-5.39V8.16l-3.72,5.75h-.09l-3.72-5.75v8.02h-5.29V0h0Z"/>
        <path id="path3042" d="M66.09,0h5.41V10.83h7.61v5.35h-13.02V0Z"/>
        <polygon id="polygon3044" class="cls-3" points="44.33 73.51 57.43 73.51 56.2 87.31 44.33 90.51 44.33 101.59 66.14 95.54 66.3 93.74 68.81 65.72 69.06 62.86 66.2 62.86 44.33 62.86 44.33 73.51"/>
        <polygon id="polygon3046" class="cls-3" points="44.33 51.94 44.33 51.96 70 51.96 70 51.96 70.03 51.96 70.25 49.57 70.73 44.18 70.99 41.32 44.33 41.32 44.33 47.93 44.33 51.94"/>
      </g>
    </g>
  </g>
</svg>