<?xml version="1.0" encoding="UTF-8"?>
<svg id="Layer_2" data-name="Layer 2" xmlns="http://www.w3.org/2000/svg" viewBox="0 0 72.25 123.32">
  <defs>
    <style>
      .cls-1 {
        fill: none;
      }

      .cls-2 {
        fill: #f8981d;
      }

      .cls-2, .cls-3 {
        fill-rule: evenodd;
      }

      .cls-3 {
        fill: #5382a1;
      }
    </style>
  </defs>
  <g id="Layer_1-2" data-name="Layer 1">
    <g>
      <g>
        <path class="cls-3" d="M25.2,66.98s-3.14,1.83,2.24,2.45c6.52,.74,9.86,.64,17.04-.72,0,0,1.89,1.18,4.53,2.21-16.11,6.91-36.47-.4-23.81-3.93Zm-1.97-9.01s-3.53,2.61,1.86,3.17c6.97,.72,12.47,.78,21.99-1.05,0,0,1.32,1.33,3.38,2.06-19.48,5.7-41.18,.45-27.24-4.18Z"/>
        <path class="cls-2" d="M39.83,42.68c3.97,4.57-1.04,8.69-1.04,8.69,0,0,10.08-5.2,5.45-11.72-4.32-6.08-7.64-9.09,10.31-19.5,0,0-28.18,7.03-14.72,22.54Z"/>
        <path class="cls-3" d="M61.14,73.64s2.33,1.92-2.56,3.4c-9.3,2.82-38.71,3.67-46.88,.11-2.93-1.28,2.57-3.05,4.3-3.42,1.81-.39,2.84-.32,2.84-.32-3.27-2.3-21.11,4.52-9.06,6.47,32.85,5.33,59.88-2.4,51.36-6.24h0ZM26.71,48.63s-14.96,3.55-5.3,4.85c4.08,.55,12.21,.42,19.79-.22,6.19-.52,12.41-1.63,12.41-1.63,0,0-2.18,.94-3.76,2.01-15.19,4-44.54,2.14-36.09-1.95,7.14-3.46,12.95-3.06,12.95-3.06h0Zm26.84,15c15.44-8.02,8.3-15.73,3.32-14.7-1.22,.25-1.77,.47-1.77,.47,0,0,.45-.71,1.32-1.02,9.86-3.47,17.44,10.22-3.18,15.64,0,0,.24-.21,.31-.41Z"/>
        <path class="cls-2" d="M44.24,3.32s8.55,8.56-8.11,21.71c-13.36,10.55-3.05,16.57,0,23.45-7.8-7.04-13.52-13.23-9.69-19,5.64-8.46,21.25-12.57,17.8-26.16h0Z"/>
        <path class="cls-3" d="M28.23,85.37c14.82,.95,37.58-.53,38.12-7.54,0,0-1.04,2.66-12.25,4.77-12.65,2.38-28.26,2.1-37.51,.58,0,0,1.9,1.57,11.64,2.2Z"/>
        <path class="cls-3" d="M65.67,97.95h-.45v-.25h1.22v.25h-.45v1.26h-.31v-1.26Zm2.43,.06h0l-.45,1.2h-.21l-.45-1.2h0v1.2h-.3v-1.51h.44l.41,1.07,.41-1.07h.43v1.51h-.29v-1.2h0Zm-42.3,14.16c-1.4,1.21-2.88,1.89-4.2,1.89-1.89,0-2.92-1.14-2.92-2.95,0-1.97,1.1-3.41,5.49-3.41h1.62v4.47h0Zm3.86,4.35v-13.47c0-3.44-1.96-5.72-6.7-5.72-2.76,0-5.18,.68-7.15,1.55l.57,2.39c1.55-.57,3.56-1.1,5.52-1.1,2.73,0,3.9,1.1,3.9,3.37v1.7h-1.36c-6.62,0-9.61,2.57-9.61,6.43,0,3.33,1.97,5.22,5.68,5.22,2.38,0,4.16-.98,5.83-2.42l.3,2.04h3.03Zm12.88,0h-4.81l-5.79-18.85h4.2l3.59,11.58,.8,3.48c1.81-5.03,3.1-10.14,3.74-15.06h4.09c-1.09,6.21-3.06,13.02-5.82,18.85Zm18.46-4.35c-1.4,1.21-2.88,1.89-4.2,1.89-1.89,0-2.91-1.14-2.91-2.95,0-1.97,1.1-3.41,5.49-3.41h1.63v4.47Zm3.86,4.35v-13.47c0-3.44-1.97-5.72-6.7-5.72-2.76,0-5.19,.68-7.15,1.55l.57,2.39c1.55-.57,3.56-1.1,5.53-1.1,2.72,0,3.9,1.1,3.9,3.37v1.7h-1.36c-6.63,0-9.61,2.57-9.61,6.43,0,3.33,1.97,5.22,5.67,5.22,2.39,0,4.16-.98,5.83-2.42l.3,2.04h3.03Zm-54.26,3.2c-1.1,1.61-2.88,2.88-4.82,3.6l-1.91-2.24c1.48-.76,2.75-1.99,3.34-3.13,.51-1.02,.72-2.33,.72-5.46v-21.52h4.1v21.22c0,4.19-.33,5.88-1.44,7.53Z"/>
      </g>
      <rect class="cls-1" width="72.25" height="120"/>
    </g>
  </g>
</svg>