<?xml version="1.0" encoding="UTF-8"?>
<svg id="Layer_2" data-name="Layer 2" xmlns="http://www.w3.org/2000/svg" viewBox="0 0 120 120">
  <defs>
    <style>
      .cls-1 {
        fill: #f7df1e;
      }
    </style>
  </defs>
  <g id="Layer_1-2" data-name="Layer 1">
    <g>
      <rect class="cls-1" width="120" height="120"/>
      <path d="M80.61,93.75c2.42,3.95,5.56,6.85,11.12,6.85,4.67,0,7.66-2.34,7.66-5.56,0-3.87-3.07-5.24-8.21-7.49l-2.82-1.21c-8.14-3.47-13.54-7.81-13.54-16.99,0-8.46,6.44-14.9,16.51-14.9,7.17,0,12.32,2.5,16.04,9.03l-8.78,5.64c-1.93-3.47-4.02-4.83-7.26-4.83s-5.4,2.1-5.4,4.83c0,3.38,2.1,4.75,6.93,6.85l2.82,1.21c9.58,4.11,14.99,8.3,14.99,17.71,0,10.15-7.98,15.71-18.69,15.71s-17.24-4.99-20.55-11.53l9.16-5.32Zm-39.83,.98c1.77,3.14,3.38,5.8,7.26,5.8s6.04-1.45,6.04-7.09V55.1h11.28v38.5c0,11.68-6.85,16.99-16.84,16.99-9.03,0-14.26-4.67-16.92-10.3l9.18-5.56Z"/>
    </g>
  </g>
</svg>