<?xml version="1.0" encoding="UTF-8"?>
<svg id="Layer_2" data-name="Layer 2" xmlns="http://www.w3.org/2000/svg" viewBox="0 0 278.11 120">
  <defs>
    <style>
      .cls-1 {
        fill: none;
      }

      .cls-2 {
        fill: #b8c4c2;
      }

      .cls-3 {
        fill: #12924f;
      }

      .cls-4 {
        fill: #10aa50;
      }

      .cls-5 {
        fill: #21313c;
      }
    </style>
  </defs>
  <g id="Layer_1-2" data-name="Layer 1">
    <g>
      <g>
        <path class="cls-4" d="M32.85,52.53c-3.85-17-11.89-21.53-13.94-24.73-.85-1.41-1.59-2.87-2.24-4.39-.11,1.51-.31,2.46-1.59,3.61-2.58,2.3-13.53,11.22-14.45,30.54-.86,18.01,13.24,29.12,15.11,30.27,1.43,.7,3.18,.02,4.03-.63,6.8-4.67,16.08-17.1,13.09-34.67"/>
        <path class="cls-2" d="M17.25,78.24c-.35,4.46-.61,7.05-1.51,9.6,0,0,.59,4.24,1.01,8.74h1.47c.35-3.17,.89-6.31,1.6-9.41-1.9-.94-2.5-5.01-2.57-8.92Z"/>
        <path class="cls-3" d="M19.82,87.17h0c-1.92-.89-2.48-5.05-2.57-8.93,.48-6.4,.61-12.81,.42-19.22-.1-3.36,.05-31.15-.83-35.22,.6,1.38,1.29,2.71,2.07,4,2.05,3.2,10.09,7.73,13.94,24.73,3,17.54-6.24,29.94-13.03,34.64Z"/>
        <path class="cls-5" d="M273.34,81.02c-2.31,0-4.18-1.87-4.18-4.18,0-2.31,1.87-4.18,4.18-4.18,2.28,0,4.14,1.83,4.18,4.12,.06,2.28-1.73,4.17-4.01,4.23-.06,0-.11,0-.17,0m0-7.98c-2.1-.01-3.81,1.68-3.83,3.78-.01,2.1,1.68,3.81,3.78,3.83,2.1,.01,3.81-1.68,3.83-3.78,0,0,0-.01,0-.02,.04-2.06-1.6-3.77-3.66-3.81-.04,0-.07,0-.11,0m1.01,6.44l-1.08-2.32h-.87v2.32h-.63v-5.29h1.56c1.16,0,1.64,.5,1.64,1.48,0,.78-.37,1.26-1.04,1.41l1.11,2.39h-.69Zm-1.92-2.86h.91c.74,0,1.02-.25,1.02-.93s-.27-.9-1.1-.9h-.83v1.83Z"/>
        <path class="cls-5" d="M211.18,77.22c1.13,.9,3.39,1.28,5.38,1.28,2.58,0,5.11-.48,7.58-2.71,2.52-2.29,4.25-5.79,4.25-11.38s-2.04-9.73-6.24-12.29c-2.37-1.49-5.43-2.07-8.93-2.07-1.01,0-2.04,.05-2.63,.32-.24,.19-.41,.46-.49,.76-.11,.96-.11,8.24-.11,12.55s0,10.57,.11,11.33c.06,.64,.38,1.76,1.07,2.23m-10.73-29.58c.91,0,4.39,.16,6,.16,3.02,0,5.11-.16,10.75-.16,4.73,0,8.72,1.28,11.56,3.72,3.44,2.98,5.29,7.13,5.29,12.18,0,7.18-3.27,11.33-6.56,13.67-3.27,2.45-7.53,3.83-13.59,3.83-3.23,0-8.77-.11-13.39-.16h-.1c-.22-.43,.4-2.08,.77-2.13,1.26-.14,1.59-.19,2.17-.43,.98-.4,1.21-.9,1.31-2.65,.16-3.3,.11-7.23,.11-11.7,0-3.19,.05-9.41-.05-11.38-.16-1.65-.86-2.07-2.27-2.39-1-.21-2.01-.37-3.02-.48-.11-.32,.72-1.76,.99-2.07"/>
        <path class="cls-5" d="M247.38,50.35c-.21,.05-.48,.59-.48,.85-.06,1.92-.11,6.91-.11,10.37,.03,.14,.13,.24,.27,.27,.7,.05,2.42,.11,3.87,.11,2.04,0,3.23-.27,3.87-.59,1.72-.85,2.52-2.71,2.52-4.73,0-4.63-3.23-6.38-8.01-6.38-.65,0-1.29,.03-1.94,.11m12.21,21.27c0-4.68-3.44-7.34-9.74-7.34-.27,0-2.27-.05-2.74,.05-.16,.05-.32,.16-.32,.27,0,3.35-.06,8.72,.11,10.85,.11,.9,.76,2.18,1.56,2.55,.86,.48,2.8,.58,4.14,.58,3.71,0,6.99-2.07,6.99-6.97m-21.92-23.88c.49,0,1.92,.16,5.57,.16,3.44,0,6.24-.11,9.57-.11,4.14,0,9.84,1.49,9.84,7.66,0,3.02-2.15,5.48-4.95,6.65-.16,.05-.16,.16,0,.21,3.98,1.01,7.47,3.46,7.47,8.14s-2.85,7.45-6.99,9.25c-2.52,1.12-5.65,1.49-8.81,1.49-2.42,0-8.9-.25-12.51-.21-.38-.16,.34-1.86,.67-2.13,.83-.03,1.65-.15,2.44-.38,1.29-.32,1.44-.73,1.6-2.65,.11-1.65,.11-7.55,.11-11.75,0-5.75,.06-9.62,0-11.54-.05-1.49-.59-1.97-1.61-2.23-.81-.16-2.15-.32-3.22-.48-.27-.27,.56-1.86,.83-2.07"/>
        <path class="cls-5" d="M44.76,81.02c-.14-.34-.19-.71-.16-1.07-.01-.25,.04-.5,.16-.72,.7-.1,1.38-.24,2.06-.42,.95-.24,1.31-.76,1.36-1.97,.16-2.87,.17-8.25,.11-12.03v-.11c0-.41,0-.96-.5-1.35-.88-.56-1.85-.98-2.85-1.26-.45-.13-.7-.37-.69-.65s.3-.6,.88-.72c1.56-.16,5.64-1.13,7.25-1.87,.17,.22,.24,.49,.21,.76,0,.17-.03,.34-.04,.52-.05,.53-.1,1.14-.1,1.74,.03,.22,.23,.37,.45,.34,.09-.01,.17-.05,.23-.11,3.05-2.39,5.79-3.25,7.19-3.25,2.31,0,4.11,1.1,5.5,3.37,.06,.11,.18,.18,.31,.18,.12,0,.23-.06,.29-.16,2.81-2.13,5.59-3.4,7.45-3.4,4.4,0,7.03,3.3,7.03,8.81,0,1.59-.02,3.6-.03,5.47-.01,1.65-.03,3.19-.03,4.26,0,.25,.35,.98,.87,1.12,.64,.31,1.57,.48,2.75,.68h.05c.09,.32-.1,1.55-.28,1.8-.29,0-.69-.03-1.2-.05-.91-.05-2.17-.11-3.63-.11-2.93,0-4.45,.06-5.91,.15-.11-.37-.15-1.54-.02-1.79,.6-.09,1.2-.22,1.79-.39,.93-.31,1.2-.73,1.26-1.97,.02-.88,.19-8.62-.11-10.46-.28-1.91-1.71-4.14-4.85-4.14-1.17,0-3.05,.49-4.84,1.85-.11,.13-.17,.29-.18,.46v.04c.21,.99,.21,2.15,.21,3.9,0,1.01,0,2.06-.01,3.11-.01,2.13-.02,4.15,.01,5.67,0,1.04,.63,1.29,1.13,1.49,.27,.06,.49,.11,.71,.16,.42,.1,.86,.21,1.51,.31,.1,.44,.09,.9-.03,1.34-.03,.16-.09,.32-.19,.46-1.63-.06-3.3-.1-5.7-.1-.73,0-1.92,.03-2.97,.06-.85,.02-1.66,.05-2.12,.05-.12-.29-.18-.61-.16-.93-.03-.3,.03-.6,.17-.87l.65-.12c.56-.1,1.05-.19,1.51-.3,.8-.25,1.1-.68,1.15-1.7,.16-2.37,.28-9.19-.06-10.89-.57-2.74-2.13-4.13-4.63-4.13-1.47,0-3.32,.71-4.84,1.84-.29,.29-.46,.68-.45,1.1v2.82c0,3.42-.02,7.69,.06,9.53,.05,.57,.25,1.24,1.32,1.49,.23,.07,.64,.13,1.11,.21,.27,.05,.56,.09,.87,.15,.1,.6,.05,1.22-.14,1.8-.47,0-1.04-.03-1.7-.06-1.01-.05-2.27-.1-3.69-.1-1.68,0-2.85,.06-3.79,.1-.63,.03-1.18,.06-1.72,.06"/>
        <path class="cls-5" d="M98.75,61.13c-.91-.02-1.8,.23-2.57,.72-1.87,1.14-2.82,3.4-2.82,6.74,0,6.24,3.12,10.6,7.6,10.6,1.2,.04,2.37-.38,3.28-1.16,1.37-1.12,2.1-3.41,2.1-6.62,0-6.15-3.05-10.28-7.6-10.28m.86,20.37c-8.08,0-10.96-5.93-10.96-11.47,0-3.87,1.58-6.9,4.71-9.01,2.19-1.35,4.7-2.1,7.27-2.15,6.17,0,10.47,4.43,10.47,10.79,0,4.32-1.72,7.72-4.97,9.85-1.56,.96-4.28,1.99-6.52,1.99"/>
        <path class="cls-5" d="M181.02,61.13c-.91-.02-1.81,.23-2.57,.72-1.87,1.14-2.82,3.4-2.82,6.74,0,6.24,3.12,10.6,7.6,10.6,1.2,.04,2.38-.37,3.29-1.16,1.37-1.12,2.1-3.41,2.1-6.62,0-6.15-3.05-10.28-7.6-10.28m.86,20.37c-8.08,0-10.96-5.93-10.96-11.47,0-3.88,1.58-6.91,4.71-9.01,2.19-1.36,4.7-2.1,7.27-2.15,6.17,0,10.47,4.44,10.47,10.78,0,4.32-1.72,7.73-4.97,9.85-1.56,.96-4.28,1.99-6.52,1.99"/>
        <path class="cls-5" d="M153.81,60.92c-2.49,0-4.1,1.97-4.1,5.01s1.39,6.66,5.29,6.66c.67,0,1.88-.3,2.48-.96,.91-.83,1.51-2.56,1.51-4.37,0-3.97-1.93-6.34-5.17-6.34m-.32,21.01c-.7,0-1.4,.17-2.01,.5-1.97,1.26-2.89,2.52-2.89,3.98,0,1.37,.53,2.46,1.67,3.43,1.38,1.17,3.25,1.74,5.71,1.74,4.83,0,7-2.6,7-5.17,0-1.79-.9-2.99-2.75-3.67-1.42-.52-3.81-.81-6.72-.81m.32,12.34c-2.9,0-4.99-.61-6.77-1.99-1.74-1.34-2.52-3.33-2.52-4.7,.02-.89,.36-1.74,.95-2.39,.5-.57,1.67-1.65,4.38-3.51,.09-.04,.14-.12,.14-.21,0-.1-.07-.2-.17-.22-2.23-.85-2.9-2.27-3.1-3.02,0-.03,0-.07-.02-.12-.06-.3-.12-.58,.28-.87,.31-.22,.81-.52,1.34-.83,.75-.42,1.48-.89,2.16-1.41,.13-.14,.13-.37-.02-.5-.02-.02-.05-.04-.07-.05-3.3-1.11-4.96-3.56-4.96-7.3-.02-2.37,1.12-4.6,3.05-5.97,1.33-1.05,4.66-2.31,6.81-2.31h.13c2.22,.05,3.47,.52,5.2,1.16,.99,.36,2.03,.52,3.08,.49,1.84,0,2.64-.58,3.33-1.26,.11,.31,.17,.63,.18,.95,.04,.77-.17,1.54-.6,2.19-.38,.52-1.26,.9-2.07,.9-.08,0-.16,0-.25-.01-.43-.03-.85-.1-1.26-.21l-.21,.07c-.07,.1-.02,.2,.03,.34,.01,.03,.02,.05,.03,.08,.15,.67,.25,1.35,.3,2.04,0,3.91-1.54,5.62-3.21,6.88-1.61,1.21-3.53,1.95-5.54,2.14h0s-.25,.02-.64,.05c-.25,.02-.58,.05-.63,.05h-.05c-.36,.1-1.31,.55-1.31,1.39,0,.69,.43,1.56,2.47,1.71l1.32,.09c2.7,.19,6.07,.42,7.66,.96,2.16,.76,3.59,2.82,3.54,5.1,0,3.51-2.5,6.81-6.68,8.83-1.97,.94-4.13,1.43-6.32,1.42"/>
        <path class="cls-5" d="M141.46,79.15c-1.18-.16-2.05-.32-3.07-.8-.2-.21-.33-.47-.38-.76-.11-1.65-.11-6.43-.11-9.57,0-2.56-.43-4.78-1.51-6.38-1.29-1.81-3.12-2.87-5.49-2.87-2.1,0-4.89,1.44-7.21,3.4-.06,.05-.41,.39-.4-.13s.09-1.59,.14-2.27c.05-.37-.09-.73-.35-.99-1.51,.76-5.75,1.76-7.32,1.92-1.14,.22-1.43,1.32-.21,1.7h.02c.98,.27,1.91,.68,2.77,1.22,.48,.37,.43,.9,.43,1.33,.05,3.56,.05,9.04-.11,12.02-.05,1.17-.38,1.6-1.24,1.81l.08-.03c-.66,.16-1.32,.29-1.99,.37-.27,.26-.27,1.81,0,2.13,.54,0,3.27-.16,5.54-.16,3.12,0,4.73,.16,5.54,.16,.32-.37,.43-1.81,.22-2.13-.74-.03-1.48-.14-2.21-.32-.86-.21-1.07-.64-1.13-1.59-.11-2.5-.11-7.82-.11-11.44,0-1.01,.27-1.49,.59-1.76,1.07-.96,2.85-1.59,4.41-1.59s2.52,.48,3.27,1.12c.88,.77,1.43,1.84,1.54,3.01,.21,2.01,.16,6.06,.16,9.57,0,1.92-.16,2.4-.86,2.61-.32,.16-1.18,.32-2.21,.43-.32,.32-.22,1.81,0,2.13,1.4,0,3.02-.16,5.38-.16,2.96,0,4.84,.16,5.59,.16,.32-.37,.43-1.76,.22-2.13"/>
      </g>
      <rect class="cls-1" width="278.11" height="120"/>
    </g>
  </g>
</svg>