<?xml version="1.0" encoding="UTF-8"?>
<svg id="Layer_2" data-name="Layer 2" xmlns="http://www.w3.org/2000/svg" xmlns:xlink="http://www.w3.org/1999/xlink" viewBox="0 0 120 120">
  <defs>
    <style>
      .cls-1 {
        fill: none;
      }

      .cls-2 {
        fill: url(#linear-gradient);
      }

      .cls-3 {
        clip-path: url(#clippath);
      }

      .cls-4, .cls-5 {
        fill: #689f63;
      }

      .cls-6 {
        clip-path: url(#clippath-1);
      }

      .cls-7 {
        clip-path: url(#clippath-2);
      }

      .cls-8 {
        fill: url(#linear-gradient-3);
      }

      .cls-9 {
        fill: url(#linear-gradient-2);
      }

      .cls-10 {
        fill: #333;
      }

      .cls-10, .cls-5 {
        fill-rule: evenodd;
      }
    </style>
    <clipPath id="clippath">
      <path class="cls-1" d="M43.6,43.55l-11.43,6.6c-.43,.25-.69,.7-.69,1.2v13.2c0,.49,.26,.95,.69,1.2l11.43,6.6c.43,.25,.95,.25,1.38,0l11.43-6.6c.43-.25,.69-.7,.69-1.2v-13.2c0-.49-.26-.95-.69-1.2l-11.43-6.6c-.21-.12-.45-.18-.69-.18s-.48,.06-.69,.18"/>
    </clipPath>
    <linearGradient id="linear-gradient" x1="-150.5" y1="-2920.29" x2="-150.17" y2="-2920.29" gradientTransform="translate(294769.44 163836.94) rotate(116.11) scale(115.31 -115.31)" gradientUnits="userSpaceOnUse">
      <stop offset=".3" stop-color="#3e863d"/>
      <stop offset=".5" stop-color="#55934f"/>
      <stop offset=".8" stop-color="#5aad45"/>
    </linearGradient>
    <clipPath id="clippath-1">
      <path class="cls-1" d="M31.76,65.38c.11,.14,.25,.26,.41,.36l9.8,5.66,1.63,.94c.24,.14,.52,.2,.8,.18,.09,0,.18-.02,.27-.05l12.05-22.07c-.09-.1-.2-.18-.32-.25l-7.48-4.32-3.96-2.28c-.11-.07-.23-.11-.36-.14l-12.85,21.98Z"/>
    </clipPath>
    <linearGradient id="linear-gradient-2" x1="-194.43" y1="-2953.13" x2="-194.22" y2="-2953.13" gradientTransform="translate(-283016.93 -440937.67) rotate(-36.46) scale(177.06 -177.06)" gradientUnits="userSpaceOnUse">
      <stop offset=".57" stop-color="#3e863d"/>
      <stop offset=".72" stop-color="#619857"/>
      <stop offset="1" stop-color="#76ac64"/>
    </linearGradient>
    <clipPath id="clippath-2">
      <path class="cls-1" d="M44.15,43.38c-.19,.02-.38,.08-.55,.18l-11.4,6.58,12.29,22.38c.17-.02,.34-.08,.49-.17l11.43-6.6c.35-.2,.59-.55,.67-.94l-12.53-21.4c-.09-.02-.18-.03-.28-.03-.04,0-.08,0-.11,0"/>
    </clipPath>
    <linearGradient id="linear-gradient-3" x1="-180.81" y1="-2965.48" x2="-180.62" y2="-2965.48" gradientTransform="translate(23517.12 -385126.18) scale(129.89 -129.89)" gradientUnits="userSpaceOnUse">
      <stop offset=".16" stop-color="#6bbf47"/>
      <stop offset=".38" stop-color="#79b461"/>
      <stop offset=".47" stop-color="#75ac64"/>
      <stop offset=".7" stop-color="#659e5a"/>
      <stop offset=".9" stop-color="#3e863d"/>
    </linearGradient>
  </defs>
  <g id="Layer_1-2" data-name="Layer 1">
    <g>
      <g>
        <path class="cls-4" d="M59.31,100.07c-.4,0-.79-.1-1.14-.3l-3.62-2.14c-.54-.3-.28-.41-.1-.47,.72-.25,.87-.31,1.64-.75,.08-.05,.19-.03,.27,.02l2.78,1.65c.1,.05,.24,.05,.34,0l10.84-6.26c.1-.06,.17-.17,.17-.29v-12.51c0-.12-.07-.24-.17-.3l-10.83-6.25c-.1-.06-.23-.06-.33,0l-10.83,6.25c-.1,.06-.17,.18-.17,.3v12.51c0,.12,.07,.23,.17,.29l2.97,1.71c1.61,.81,2.6-.14,2.6-1.1v-12.34c0-.18,.14-.31,.31-.31h1.37c.17,0,.31,.14,.31,.31v12.35c0,2.15-1.17,3.38-3.21,3.38-.63,0-1.12,0-2.5-.68l-2.84-1.64c-.7-.41-1.14-1.17-1.14-1.98v-12.51c0-.81,.43-1.57,1.14-1.97l10.85-6.26c.69-.39,1.6-.39,2.28,0l10.83,6.26c.7,.4,1.14,1.16,1.14,1.97v12.51c0,.81-.44,1.57-1.14,1.97l-10.83,6.26c-.35,.2-.74,.3-1.14,.3"/>
        <path class="cls-4" d="M62.66,91.45c-4.74,0-5.74-2.18-5.74-4,0-.17,.14-.31,.31-.31h1.4c.15,0,.28,.11,.31,.27,.21,1.43,.84,2.15,3.71,2.15,2.28,0,3.26-.52,3.26-1.73,0-.7-.28-1.22-3.82-1.56-2.97-.29-4.8-.95-4.8-3.32,0-2.19,1.84-3.49,4.93-3.49,3.47,0,5.19,1.2,5.41,3.79,0,.09-.02,.18-.08,.24-.06,.06-.14,.1-.23,.1h-1.41c-.15,0-.27-.1-.3-.24-.34-1.5-1.16-1.98-3.39-1.98-2.49,0-2.78,.87-2.78,1.52,0,.79,.34,1.02,3.71,1.46,3.33,.44,4.91,1.07,4.91,3.41s-1.97,3.71-5.4,3.71m13.2-13.26h.36c.3,0,.36-.21,.36-.33,0-.32-.22-.32-.34-.32h-.37v.65Zm-.44-1.03h.81c.28,0,.82,0,.82,.62,0,.43-.28,.52-.44,.58,.32,.02,.34,.23,.39,.53,.02,.19,.06,.51,.12,.62h-.5c-.01-.11-.09-.71-.09-.74-.03-.13-.08-.2-.24-.2h-.41v.94h-.45v-2.35Zm-.97,1.17c0,.97,.78,1.76,1.75,1.76s1.76-.8,1.76-1.76-.79-1.75-1.76-1.75-1.75,.76-1.75,1.74m3.84,0c0,1.15-.94,2.09-2.09,2.09s-2.09-.93-2.09-2.09,.97-2.09,2.09-2.09,2.09,.91,2.09,2.09"/>
        <path class="cls-10" d="M25.75,51.14c0-.5-.26-.96-.69-1.21l-11.49-6.61c-.19-.11-.41-.17-.63-.18h-.12c-.22,0-.44,.07-.63,.18L.69,49.93c-.43,.25-.69,.71-.69,1.21l.03,17.81c0,.25,.13,.48,.34,.6,.21,.13,.48,.13,.69,0l6.83-3.91c.43-.26,.69-.71,.69-1.2v-8.32c0-.5,.26-.95,.69-1.2l2.91-1.67c.22-.12,.45-.19,.69-.19s.48,.06,.69,.19l2.91,1.67c.43,.25,.69,.71,.69,1.2v8.32c0,.49,.27,.95,.7,1.2l6.83,3.91c.21,.13,.48,.13,.69,0,.21-.12,.34-.35,.34-.6l.02-17.8Zm54.22,9.27c0,.12-.07,.24-.17,.3l-3.95,2.27c-.11,.06-.24,.06-.35,0l-3.95-2.27c-.11-.06-.17-.18-.17-.3v-4.56c0-.12,.07-.24,.17-.3l3.94-2.28c.11-.06,.24-.06,.35,0l3.95,2.28c.11,.06,.17,.18,.17,.3v4.56Zm1.07-33.75c-.22-.12-.48-.12-.69,0-.21,.12-.34,.35-.34,.6v17.63c0,.17-.09,.33-.24,.42-.15,.09-.34,.09-.49,0l-2.88-1.66c-.43-.25-.96-.25-1.39,0l-11.49,6.63c-.43,.25-.69,.71-.69,1.2v13.27c0,.5,.27,.95,.69,1.2l11.49,6.64c.43,.25,.96,.25,1.39,0l11.49-6.64c.43-.25,.69-.71,.69-1.2V31.69c0-.5-.27-.97-.71-1.21l-6.84-3.82Zm38.27,29.07c.43-.25,.69-.71,.69-1.2v-3.22c0-.49-.26-.95-.69-1.2l-11.42-6.63c-.43-.25-.96-.25-1.39,0l-11.49,6.63c-.43,.25-.69,.71-.69,1.2v13.26c0,.5,.27,.96,.7,1.21l11.42,6.51c.42,.24,.94,.24,1.36,0l6.91-3.84c.22-.12,.36-.35,.36-.6s-.13-.48-.35-.6l-11.56-6.64c-.22-.12-.35-.35-.35-.6v-4.16c0-.25,.13-.48,.35-.6l3.6-2.08c.21-.12,.48-.12,.69,0l3.6,2.08c.21,.12,.35,.35,.35,.6v3.27c0,.25,.13,.48,.35,.6,.21,.12,.48,.12,.69,0l6.89-4Z"/>
        <path class="cls-5" d="M107.02,55.11c.08-.05,.18-.05,.27,0l2.21,1.27c.08,.05,.13,.14,.13,.23v2.55c0,.09-.05,.18-.13,.23l-2.21,1.27c-.08,.05-.18,.05-.27,0l-2.2-1.27c-.08-.05-.14-.14-.14-.23v-2.55c0-.09,.05-.18,.13-.23l2.21-1.27Z"/>
        <g class="cls-3">
          <path class="cls-2" d="M68.65,49.03l-32.2-15.78-16.51,33.68,32.2,15.79,16.51-33.69Z"/>
        </g>
        <g class="cls-6">
          <path class="cls-9" d="M17.84,53.7l22.74,30.78,30.07-22.22-22.74-30.78-30.07,22.22Z"/>
        </g>
        <g class="cls-7">
          <path class="cls-8" d="M32.2,43.37v29.14h24.87v-29.14h-24.87Z"/>
        </g>
      </g>
      <rect class="cls-1" width="120" height="120"/>
    </g>
  </g>
</svg>