<?xml version="1.0" encoding="UTF-8"?>
<svg id="Layer_2" data-name="Layer 2" xmlns="http://www.w3.org/2000/svg" viewBox="0 0 193.35 120">
  <defs>
    <style>
      .cls-1 {
        fill: none;
      }

      .cls-2 {
        fill: #6db23f;
      }

      .cls-3 {
        fill: #6db340;
      }
    </style>
  </defs>
  <g id="Layer_1-2" data-name="Layer 1">
    <g>
      <g>
        <path class="cls-2" d="M149.77,35.62c2.18-2.73,4.74-3.86,7.85-3.78,4.67,.12,8.04,3.08,8.25,7.75,.22,4.88,.12,9.78,.09,14.68,0,1.65-1.15,2.66-2.75,2.66-1.62,0-2.79-1.08-2.82-2.81-.06-3.13-.02-6.27-.02-9.4,0-.77,.01-1.54-.02-2.31-.17-3.45-1.9-5.37-4.93-5.48-3.02-.11-5.28,1.81-5.54,5.13-.24,3.01-.1,6.04-.12,9.06,0,1.04,.04,2.09-.02,3.13-.09,1.55-1.13,2.59-2.6,2.67-1.57,.08-2.76-.89-2.96-2.48-.09-.71-.04-1.43-.04-2.14,0-5.77,0-11.55,0-17.32,0-1.32,.47-2.37,1.76-2.9,1.14-.47,2.15-.2,3.05,.61,.75,.67,.82,1.6,.83,2.93Z"/>
        <path class="cls-2" d="M80.74,56.91c-3.23,0-6.18-.93-8.88-2.68-1.37-.89-1.71-2.2-.95-3.37,.68-1.05,2.05-1.31,3.37-.54,1.82,1.07,3.72,1.92,5.85,2.11,.6,.05,1.21,.04,1.8-.03,1.33-.17,2.52-.65,2.77-2.15,.27-1.61-.95-2.22-2.15-2.7-1.17-.47-2.4-.78-3.6-1.2-1.14-.4-2.31-.76-3.39-1.28-2.16-1.04-3.63-2.63-3.79-5.17-.18-2.82,.79-5.07,3.19-6.61,3.45-2.21,10.34-1.8,13.51,.79,.98,.8,1.23,1.83,.63,2.94-.66,1.21-1.8,1.45-2.99,.96-1.63-.67-3.21-1.44-5-1.63-.55-.06-1.08-.09-1.64,0-1.22,.2-2.31,.64-2.54,1.98-.24,1.42,.85,2.02,1.92,2.53,2.29,1.08,4.84,1.48,7.1,2.66,1.87,.98,3.38,2.24,3.81,4.46,.91,4.75-2.4,8.59-7.73,8.92-.44,.03-.88,0-1.32,0Z"/>
        <path class="cls-2" d="M124.96,35.08c1.36-1.74,2.97-2.73,4.91-3.14,1.99-.42,3.38,.33,3.77,1.97,.4,1.65-.49,2.93-2.42,3.47-3.99,1.12-6.3,4.12-6.37,8.34-.04,2.63,0,5.27-.01,7.9-.02,2.11-1.06,3.29-2.84,3.31-1.75,.02-2.82-1.2-2.82-3.31-.02-6.09-.01-12.18,0-18.28,0-2.12,.88-3.31,2.49-3.47,1.7-.17,2.83,.86,3.28,3.22Z"/>
        <path class="cls-2" d="M139.72,86.31c0-1.28-.03-2.27,0-3.26,.05-1.3,.28-2.58-1.63-2.91-.75-.13-1.08-1.01-1.03-1.88,.05-.95,.56-1.66,1.42-1.8,1.21-.2,1.31-.87,1.25-1.84-.05-.87-.06-1.77,.07-2.63,.22-1.46,1.33-2.38,2.73-2.37,1.44,0,2.59,1.04,2.78,2.53,.05,.38,.04,.77,.03,1.15-.04,1.61-.39,3.31,2.26,3.16,1.01-.06,1.48,.99,1.44,2.06-.04,1.13-.74,1.82-1.75,1.83-1.81,.02-2.09,.89-1.98,2.45,.14,2.02,.04,4.06,.04,6.09,0,1.34,.45,2.01,1.99,1.75,2.04-.34,2.99,.21,3.22,1.58,.23,1.32-.79,2.53-2.55,2.92-1.57,.35-3.17,.41-4.75,.06-1.77-.4-2.88-1.44-3.28-3.27-.43-1.96-.16-3.94-.26-5.61Z"/>
        <path class="cls-2" d="M135.77,44.4c0-3.13-.01-6.25,0-9.38,.01-1.98,1.09-3.18,2.79-3.17,1.68,.01,2.81,1.24,2.82,3.17,.02,6.25,.02,12.51,0,18.76,0,1.97-1.07,3.11-2.82,3.14-1.71,.02-2.78-1.16-2.79-3.14-.02-3.13,0-6.25,0-9.38Z"/>
        <path class="cls-3" d="M138.52,22.32c1.49-.03,2.84,1.29,2.87,2.82,.04,1.61-1.14,2.81-2.77,2.83-1.64,.02-2.86-1.14-2.88-2.73-.02-1.52,1.29-2.89,2.78-2.92Z"/>
        <path class="cls-2" d="M69.18,58.91c-4.4-7.62-8.76-15.25-13.14-22.88-1.72-2.99-4.37-4.4-7.78-4.43-4.3-.03-8.6,0-12.9,0-4.41,0-8.82-.04-13.23,.01-3.33,.04-5.94,1.46-7.63,4.39-4.38,7.63-8.74,15.26-13.15,22.88-1.82,3.15-1.8,6.22,.02,9.36,4.35,7.52,8.67,15.05,12.97,22.6,1.77,3.11,4.45,4.63,7.99,4.64,8.6,.02,17.21,.01,25.81,0,3.55,0,6.23-1.5,8.01-4.61,4.31-7.54,8.62-15.08,12.97-22.6,1.82-3.14,1.88-6.21,.06-9.36Zm-36.91-13.35c.02-2.03,1.27-3.36,2.91-3.31,1.69,.05,2.77,1.35,2.79,3.42,.02,2.69,0,5.39,0,8.08,0,2.69,.02,5.39,0,8.08-.02,1.93-1.14,3.26-2.73,3.32-1.66,.06-2.96-1.26-2.97-3.26-.04-5.44-.04-10.88,0-16.32Zm20.93,23.71c-2.85,7.47-10.04,12.46-18,12.5-8.19,.04-15.48-5.12-18.32-12.97-2.75-7.6-.26-16.5,6.05-21.62,1.61-1.3,3.06-1.34,4.07-.1,.97,1.2,.64,2.68-.88,3.97-4.84,4.08-6.6,10.5-4.46,16.25,2.15,5.75,7.53,9.47,13.63,9.43,5.9-.04,11.21-3.8,13.3-9.43,2.06-5.54,.39-12.07-4.08-15.93-2-1.73-2.39-3.11-1.25-4.39,1.19-1.33,2.57-1.14,4.58,.65,6.15,5.48,8.27,14.03,5.36,21.65Z"/>
        <path class="cls-2" d="M193.25,34.58c0-.27-.08-.55-.16-.8-.45-1.39-1.44-2.06-2.88-1.94-1.44,.12-2.32,.94-2.53,2.38-.07,.46-.05,.94-.08,1.39-.45,.11-.56-.2-.72-.4-4.23-5.3-12.8-4.32-16.54,1.2-2.16,3.18-2.6,6.72-2.1,10.4,.82,6.05,5.48,10.13,11.33,10.13,3.12,0,5.59-1.37,7.72-3.66,.09,3.16-2.26,5.56-5.71,5.93-2.91,.31-5.7-.14-8.35-1.46-1.82-.9-3.18-.62-3.85,.73-.72,1.45-.06,2.61,1.93,3.51,3.5,1.59,7.16,2.12,10.96,1.79,6.72-.58,10.29-3.93,10.82-10.6,.49-6.19,.11-12.41,.16-18.61Zm-5.98,12.66c-1.1,3.13-3.8,4.94-7.13,4.78-3.69-.17-6.36-3.4-6.36-8.32,.07-2.43,1.13-4.99,4-6.43,2.36-1.18,4.72-.92,6.88,.62,2.75,1.96,3.83,5.9,2.61,9.36Z"/>
        <path class="cls-2" d="M115.98,38.45c-1.9-4.43-6.15-6.94-10.97-6.65-3.01,.18-5.25,1.72-7.13,3.96-.12-.19-.2-.26-.21-.35-.25-2.49-1.19-3.6-2.99-3.55-1.83,.05-2.69,1.24-2.69,3.76,0,8.3,0,16.6,0,24.9,0,2.29,.99,3.53,2.76,3.53,1.87,0,2.89-1.25,2.9-3.61,.01-2.36,0-4.72,0-7.37,6.03,6.79,15.68,4.04,18.47-3.05,1.51-3.84,1.5-7.75-.14-11.56Zm-11.52,13.62c-4.01-.02-7.15-3.51-7.05-7.81,.11-4.29,3.2-7.64,7.09-7.67,3.87-.03,6.95,3.39,6.95,7.73,0,4.58-2.88,7.77-7,7.75Z"/>
        <path class="cls-2" d="M90.97,81.6c-1.16-4.31-4.66-6.51-9.15-5.94-1.47,.18-2.65,.93-4.07,1.74,0-1.9,.04-3.59,0-5.27-.06-2-1.01-3.1-2.63-3.17-1.64-.07-2.59,.91-2.84,2.96-.05,.38-.04,.77-.04,1.15,0,6.15,0,12.3,0,18.45,0,.65,.09,1.31,.23,1.95,.24,1.08,.95,1.71,2.04,1.87,1.07,.16,1.93-.19,2.64-1.01,.27-.31,.18-.88,.69-1,3.97,3.74,11.17,2.55,13.06-4.09,.72-2.53,.76-5.1,.07-7.64Zm-5.84,6.93c-.66,1.3-1.66,2.22-3.21,2.2-1.64-.02-2.85-.83-3.45-2.36-.8-2.02-.77-4.09,.09-6.08,.67-1.54,1.89-2.48,3.61-2.39,1.76,.09,2.72,1.27,3.23,2.85,.27,.84,.43,1.7,.34,2.59,.08,1.12-.11,2.2-.61,3.19Z"/>
        <path class="cls-2" d="M103.51,75.55c-5.81,0-9.78,4.04-9.76,9.95,.02,5.88,4.06,9.95,9.82,9.91,5.89-.05,9.73-3.99,9.7-9.96-.03-5.99-3.88-9.89-9.77-9.9Zm3.16,13.77c-1.64,2.51-5.11,2.35-6.43-.35-1.04-2.12-1.01-4.35-.22-6.55,.58-1.6,1.77-2.53,3.48-2.54,1.63-.01,2.79,.82,3.49,2.31,.5,1.07,.67,2.19,.61,3.36,.06,1.34-.18,2.62-.93,3.76Z"/>
        <path class="cls-2" d="M125.76,75.55c-5.82-.04-9.78,3.94-9.82,9.89-.04,5.86,3.99,9.98,9.76,9.98,5.89,0,9.76-3.93,9.77-9.9,0-5.99-3.82-9.92-9.7-9.96Zm3.16,13.68c-.74,1.23-1.86,1.87-3.28,1.84-1.49-.04-2.63-.75-3.25-2.14-.97-2.15-.97-4.36-.17-6.55,.56-1.53,1.7-2.43,3.36-2.49,1.71-.05,2.91,.8,3.62,2.35,.47,1.02,.64,2.09,.59,3.2,.07,1.34-.16,2.62-.86,3.78Z"/>
      </g>
      <rect class="cls-1" x=".08" width="193.18" height="120"/>
    </g>
  </g>
</svg>