<?xml version="1.0" encoding="UTF-8"?>
<svg id="Layer_2" data-name="Layer 2" xmlns="http://www.w3.org/2000/svg" viewBox="0 0 288.35 269.91">
  <defs>
    <style>
      .cls-1 {
        opacity: .21;
        stroke: #948da4;
      }

      .cls-1, .cls-2, .cls-3, .cls-4, .cls-5, .cls-6 {
        fill: none;
        stroke-linecap: round;
        stroke-miterlimit: 10;
      }

      .cls-1, .cls-3, .cls-4, .cls-5, .cls-6 {
        stroke-width: .89px;
      }

      .cls-7 {
        fill: #f7d6c2;
      }

      .cls-8 {
        fill: #f9fbfc;
      }

      .cls-9, .cls-10 {
        fill: #e9e6e9;
      }

      .cls-11 {
        fill: #fdcfad;
      }

      .cls-12 {
        fill: #ea9554;
      }

      .cls-13 {
        fill: #edebec;
      }

      .cls-14 {
        fill: #fff;
      }

      .cls-15 {
        fill: #fdf3ea;
      }

      .cls-16 {
        fill: #fdecde;
      }

      .cls-17 {
        fill: #afb2cc;
      }

      .cls-18 {
        fill: #e1dde6;
      }

      .cls-19 {
        fill: #14161e;
      }

      .cls-20 {
        fill: #6f6b7a;
      }

      .cls-21 {
        fill: #2b2423;
      }

      .cls-22 {
        fill: #3d3e46;
      }

      .cls-23 {
        fill: #524f5a;
      }

      .cls-24 {
        fill: #4e4641;
      }

      .cls-2 {
        stroke: #e9e6e9;
        stroke-width: .44px;
      }

      .cls-3 {
        stroke: #f7d6c2;
      }

      .cls-4 {
        stroke: #776654;
      }

      .cls-5 {
        stroke: #fdcfad;
      }

      .cls-6 {
        stroke: #fdf3ea;
      }

      .cls-10 {
        opacity: .33;
      }

      .cls-25 {
        fill: #fdede3;
        opacity: .53;
      }

      .cls-26 {
        fill: #fcebdd;
        opacity: .38;
      }

      .cls-27 {
        fill: #948da4;
        opacity: .36;
      }
    </style>
  </defs>
  <g id="Layer_1-2" data-name="Layer 1">
    <g>
      <g>
        <rect class="cls-12" y="142.33" width="235.71" height="9.33"/>
        <rect class="cls-12" x="19.63" y="150.86" width="10.45" height="118.41"/>
        <rect class="cls-12" x="206.55" y="150.86" width="10.45" height="118.41"/>
        <rect class="cls-12" x="19.63" y="150.86" width="10.45" height="11.84"/>
        <rect class="cls-12" x="206.55" y="150.86" width="10.45" height="11.84"/>
      </g>
      <g>
        <polygon class="cls-22" points="167.43 137.85 141.78 137.85 143.5 121.02 165.72 121.02 167.43 137.85"/>
        <path class="cls-20" d="M174.51,141.97h-39.69c0-2.66,2.16-4.82,4.82-4.82h30.05c2.66,0,4.82,2.16,4.82,4.82h0Z"/>
        <rect class="cls-20" x="103.35" y="53.84" width="102.64" height="68.63" rx="9.51" ry="9.51"/>
        <rect class="cls-8" x="107.72" y="57.76" width="93.91" height="55.78"/>
        <path class="cls-22" d="M157.33,118.36c0,1.47-1.19,2.66-2.66,2.66s-2.66-1.19-2.66-2.66,1.19-2.66,2.66-2.66,2.66,1.19,2.66,2.66Z"/>
        <g>
          <rect class="cls-14" x="112.12" y="61.24" width="85.11" height="4.37"/>
          <path class="cls-7" d="M115.63,63.53c0,.51-.42,.93-.93,.93s-.93-.42-.93-.93,.42-.93,.93-.93,.93,.42,.93,.93Z"/>
          <path class="cls-11" d="M119.1,63.53c0,.51-.42,.93-.93,.93s-.93-.42-.93-.93,.42-.93,.93-.93,.93,.42,.93,.93Z"/>
          <path class="cls-15" d="M122.58,63.53c0,.51-.42,.93-.93,.93s-.93-.42-.93-.93,.42-.93,.93-.93,.93,.42,.93,.93Z"/>
          <line class="cls-2" x1="193.17" y1="62.46" x2="196" y2="62.46"/>
          <line class="cls-2" x1="193.17" y1="63.43" x2="196" y2="63.43"/>
          <line class="cls-2" x1="193.17" y1="64.39" x2="196" y2="64.39"/>
        </g>
        <g>
          <g>
            <line class="cls-6" x1="170.08" y1="70.54" x2="176.67" y2="70.54"/>
            <line class="cls-4" x1="177.99" y1="70.54" x2="181.08" y2="70.54"/>
            <line class="cls-6" x1="182.23" y1="70.54" x2="191.98" y2="70.54"/>
            <line class="cls-5" x1="166.78" y1="74.7" x2="176.46" y2="74.7"/>
            <line class="cls-3" x1="177.78" y1="74.7" x2="183.99" y2="74.7"/>
            <line class="cls-6" x1="185.13" y1="74.7" x2="189.28" y2="74.7"/>
            <line class="cls-3" x1="190.58" y1="74.7" x2="194.72" y2="74.7"/>
            <line class="cls-4" x1="167.65" y1="78.87" x2="173.25" y2="78.87"/>
            <line class="cls-3" x1="174.57" y1="78.87" x2="178.97" y2="78.87"/>
            <line class="cls-5" x1="180.11" y1="78.87" x2="188.07" y2="78.87"/>
            <line class="cls-4" x1="189.14" y1="78.87" x2="191.62" y2="78.87"/>
            <line class="cls-5" x1="165" y1="87.19" x2="166.44" y2="87.19"/>
            <line class="cls-6" x1="167.75" y1="87.19" x2="175.89" y2="87.19"/>
            <line class="cls-3" x1="177.03" y1="87.19" x2="182.89" y2="87.19"/>
            <line class="cls-6" x1="183.77" y1="87.19" x2="191.26" y2="87.19"/>
            <line class="cls-5" x1="181.56" y1="95.51" x2="192.43" y2="95.51"/>
            <line class="cls-6" x1="167.65" y1="91.35" x2="173.25" y2="91.35"/>
            <line class="cls-3" x1="174.57" y1="91.35" x2="177.56" y2="91.35"/>
            <line class="cls-4" x1="178.7" y1="91.35" x2="184.79" y2="91.35"/>
            <line class="cls-3" x1="186.21" y1="91.35" x2="192.3" y2="91.35"/>
            <line class="cls-5" x1="167.91" y1="95.51" x2="172.19" y2="95.51"/>
            <line class="cls-4" x1="173.5" y1="95.51" x2="175.32" y2="95.51"/>
            <line class="cls-6" x1="176.46" y1="95.51" x2="180.21" y2="95.51"/>
            <line class="cls-3" x1="174.57" y1="103.33" x2="178.7" y2="103.33"/>
            <line class="cls-4" x1="180.02" y1="103.33" x2="184.79" y2="103.33"/>
            <line class="cls-5" x1="185.93" y1="103.33" x2="193.56" y2="103.33"/>
            <line class="cls-3" x1="170.78" y1="107.5" x2="173.91" y2="107.5"/>
            <line class="cls-4" x1="175.23" y1="107.5" x2="180.21" y2="107.5"/>
            <line class="cls-5" x1="181.35" y1="107.5" x2="185.88" y2="107.5"/>
            <line class="cls-6" x1="187.17" y1="107.5" x2="194.18" y2="107.5"/>
          </g>
          <line class="cls-1" x1="166.07" y1="70.54" x2="167.48" y2="70.54"/>
          <line class="cls-1" x1="162.38" y1="74.7" x2="163.79" y2="74.7"/>
          <line class="cls-1" x1="164.09" y1="78.87" x2="165.5" y2="78.87"/>
          <line class="cls-1" x1="160.73" y1="83.03" x2="162.14" y2="83.03"/>
          <line class="cls-1" x1="160.73" y1="87.19" x2="162.14" y2="87.19"/>
          <line class="cls-1" x1="163.91" y1="91.35" x2="165.32" y2="91.35"/>
          <line class="cls-1" x1="164.3" y1="95.51" x2="165.7" y2="95.51"/>
          <line class="cls-1" x1="160.73" y1="99.68" x2="162.14" y2="99.68"/>
          <line class="cls-1" x1="169.75" y1="103.33" x2="171.15" y2="103.33"/>
          <line class="cls-1" x1="166.44" y1="107.5" x2="167.84" y2="107.5"/>
        </g>
        <g>
          <rect class="cls-10" x="112.12" y="69.51" width="21.31" height="20.14"/>
          <rect class="cls-9" x="136.09" y="69.51" width="18.65" height="1.83"/>
          <rect class="cls-9" x="136.09" y="74.09" width="18.65" height="1.83"/>
          <rect class="cls-10" x="136.09" y="78.67" width="18.65" height="1.83"/>
          <rect class="cls-10" x="136.09" y="83.24" width="18.65" height="1.83"/>
          <rect class="cls-10" x="136.09" y="87.82" width="18.65" height="1.83"/>
          <rect class="cls-9" x="112.18" y="92.72" width="21.25" height="14.78"/>
          <rect class="cls-7" x="136.09" y="92.72" width="18.65" height="6.96"/>
          <rect class="cls-9" x="136.09" y="103.19" width="18.65" height="4.31"/>
        </g>
      </g>
      <g>
        <path class="cls-20" d="M150.3,253.1c-1.06,9.79-2.46,14.15,0,15.55,2.46,1.4,16.39,0,19.42,0s3.02-6.37-2.01-9.02c-5.04-2.66-6.04-12.15-6.04-12.15l-11.36,5.63Z"/>
        <path class="cls-20" d="M87.05,253.1c-1.06,9.79-2.46,14.15,0,15.55,2.46,1.4,16.39,0,19.42,0s3.02-6.37-2.01-9.02c-5.04-2.66-6.04-12.15-6.04-12.15l-11.36,5.63Z"/>
        <path class="cls-18" d="M103.6,215.34c-.27,10.51-1.04,20.37-2.36,26.5h-19.43l-7.23-42.4-.74-4.35c-4.12,0-7.48-3.33-7.48-7.45v-.13c.13-8.4,1.59-21.43,8.81-26.44,8.05-5.58,24.2,6.17,25.63,9.07,1.4,2.82,2.37,12.5,2.75,24.13,.22,6.69,.25,14.03,.06,21.08Z"/>
        <path class="cls-27" d="M103.6,215.34c-6.86,2.96-12.47,21.25-13.95,26.5h-7.85l-7.23-42.4c.88-1.45,1.85-2.62,2.89-3.27,3.53-2.21,23.9-1.94,26.08-1.91,.22,6.69,.25,14.03,.06,21.08Z"/>
        <path class="cls-16" d="M167.47,134.79c6.2-2.34,10.51,.38,11.63,2.3,1.12,1.92,1.76,3.67,1.28,4.63-.48,.96-2.08,0-2.08,0,0,0-5.43,1.01-9.59,.43-4.15-.59-1.24-7.36-1.24-7.36Z"/>
        <path class="cls-25" d="M168.51,136.59c3.36,1.81,9.23,4.36,9.21,4.8-.03,.43-5.27,1.63-8.6,.7-3.34-.93-.6-5.49-.6-5.49Z"/>
        <g>
          <path class="cls-16" d="M108.62,60.99c2.35,9.61,.64,20.94-7.6,21.84l.03,3.38c.03,2.5-1.99,4.55-4.49,4.58h0c-2.5,.02-4.55-1.99-4.58-4.49l-.03-3.38s-6.62-2.74-7.98-6.85c-1.36-4.11,0-.66,0-.66l-.75-16.81,25.6-.25-.19,2.64Z"/>
          <path class="cls-25" d="M101.02,82.83c-3.65,.36-7.89,.27-7.89,.27l7.92,3.11-.03-3.38Z"/>
        </g>
        <path class="cls-24" d="M109.02,62.85c7.27-4.59,5.89-14.06,.74-10.7,0,0-8.12-8.36-20.71-3.8-12.59,4.56-14.17,15.1-11.51,21.67,2.66,6.56,18.97,9.98,18.97,9.98l7.54-7.99,4.98-9.15Z"/>
        <path class="cls-24" d="M109.76,52.15c1.26-3.66-1.9-8.31-4.84-8.31s-2.78,5.05-2.78,5.05l5.02,6.65,2.6-3.39Z"/>
        <path class="cls-21" d="M104.33,69.12c-.09,1.14-.96,11.46-3.31,13.71l-10.15,.14s-11.2-2.28-13.07-11.59c-.22-1.09-.37-2.1-.45-3.03,3.31,6.72,17.27,7.86,24.81-.63,0,0,.95,.59,2.18,1.4Z"/>
        <path class="cls-16" d="M107.17,67.1c-2.11-3.76-4.53-2.15-5,.05-.47,2.2,3.98,7.5,5.06,5.61,1.08-1.89-.06-5.66-.06-5.66Z"/>
        <path class="cls-25" d="M106.96,68.12c-1.87-1.92-2.77-1.12-2.62,.9,.14,2.02,2.59,3.44,3.37,2.85,.78-.59-.75-3.75-.75-3.75Z"/>
        <path class="cls-7" d="M169.12,142.08c-.98,1.96-26.52,5.89-33.06,4.58-6.55-1.31-11.78-10.81-11.78-10.81v25.21h-49.11s-4.77-23.17-7.43-38.66c-1.09-6.37-1.84-11.45-1.74-13.07,.2-3.27,.84-5.07,1.35-6h0c.35-.65,.62-.87,.62-.87,0,0,5.89-10.8,19.97-12.44l.33-4.26c11.46-2.29,19.64,0,19.97,1.97,.33,1.96,0,3.89,0,3.89,0,0,13.75-3.57,23.58,10.51,9.81,14.08,13.75,25.2,13.75,25.2,0,0,18.65,3.94,20.95,6.23,.94,.94,1.72,2.22,2.23,3.52,.74,1.88,.96,3.83,.38,4.99Z"/>
        <path class="cls-26" d="M169.12,142.08c-.98,1.96-26.52,5.89-33.06,4.58-6.55-1.31-11.78-10.81-11.78-10.81v25.21h-49.11s-4.77-23.17-7.43-38.66l-.39-19.07h0s11.99,.39,30.35,.51c18.36,.12,19.36,11.49,24.36,18.36,5,6.87,8.25,18.49,17.12,18.61,8.87,.12,27.48,1.62,29.35-3.68l.22-.05c.74,1.88,.96,3.83,.38,4.99Z"/>
        <path class="cls-9" d="M164.79,240.35c-.1,.51-.2,1.01-.3,1.49h-19.43l-7.98-46.75h-34.94l-9.92-12.51-17.06-21.51h49.11c.74,0,1.52,0,2.31,.03,13.39,.24,34.24,2.57,37.46,9.04,1.15,2.33,2.01,9.37,2.48,18.32,.9,16.63,.48,39.88-1.74,51.89Z"/>
        <path class="cls-27" d="M164.79,240.35l-1.7,1.49h-18.02l-7.98-46.75h-34.94l-9.92-12.51,.91-14.34,6.66-7.17h24.48c.74,0,1.52,0,2.31,.03-2.77,23.65,14.43,29.82,25.43,29.21,5.84-.32,10.95-1.13,14.51-1.85,.9,16.63,.48,39.88-1.74,51.89Z"/>
        <polygon class="cls-13" points="164.35 253.1 145 253.1 143.22 241.84 166.12 241.84 164.35 253.1"/>
        <polygon class="cls-13" points="101.1 253.1 81.75 253.1 79.98 241.84 102.87 241.84 101.1 253.1"/>
      </g>
      <g>
        <rect class="cls-18" x="66.58" y="260.1" width="1.76" height="6.62"/>
        <rect class="cls-18" x="79.09" y="260.1" width="1.76" height="6.62"/>
        <rect class="cls-18" x="91.61" y="260.1" width="1.76" height="6.62"/>
        <path class="cls-11" d="M78.63,108.24h14.77c13.42,0,24.31,10.89,24.31,24.31v55.49c0,3.89-3.16,7.05-7.05,7.05H61.37c-3.89,0-7.05-3.16-7.05-7.05v-55.49c0-13.42,10.89-24.31,24.31-24.31Z"/>
        <path class="cls-12" d="M78.63,108.24h14.77c13.42,0,24.31,10.89,24.31,24.31v55.49c0,3.89-3.16,7.05-7.05,7.05H61.37c-3.89,0-7.05-3.16-7.05-7.05v-55.49c0-13.42,10.89-24.31,24.31-24.31Z"/>
        <path class="cls-11" d="M67.78,108.24h14.77c13.42,0,24.31,10.89,24.31,24.31v55.49c0,3.89-3.16,7.05-7.05,7.05H50.52c-3.89,0-7.05-3.16-7.05-7.05v-55.49c0-13.42,10.89-24.31,24.31-24.31Z"/>
        <path class="cls-12" d="M65.84,195.09h56.52c3.1,0,5.62,2.52,5.62,5.62v1.45c0,3.1-2.52,5.62-5.62,5.62h-56.52c-3.1,0-5.62-2.52-5.62-5.62v-1.45c0-3.1,2.52-5.62,5.62-5.62Z"/>
        <path class="cls-11" d="M49.69,195.09h56.52c3.1,0,5.62,2.52,5.62,5.62v1.45c0,3.1-2.52,5.62-5.62,5.62H49.69c-3.1,0-5.62-2.52-5.62-5.62v-1.45c0-3.1,2.52-5.62,5.62-5.62Z"/>
        <rect class="cls-19" x="77.55" y="212.92" width="5.12" height="45.16"/>
        <path class="cls-23" d="M70.34,207.78h18.93v2.97c0,1.2-.97,2.17-2.17,2.17h-14.6c-1.2,0-2.17-.97-2.17-2.17v-2.97h0Z"/>
        <rect class="cls-23" x="64.71" y="256.95" width="30.19" height="4.49"/>
        <rect class="cls-20" x="70.77" y="158.27" width="6.7" height="49.51"/>
        <rect class="cls-23" x="66.35" y="148.99" width="15.54" height="17.27" rx="4.02" ry="4.02"/>
        <rect class="cls-20" x="70.23" y="153.3" width="7.78" height="8.65" rx="3.45" ry="3.45"/>
        <path class="cls-19" d="M70.21,267.16c0,1.52-1.23,2.75-2.75,2.75s-2.75-1.23-2.75-2.75,1.23-2.75,2.75-2.75,2.75,1.23,2.75,2.75Z"/>
        <path class="cls-19" d="M82.72,267.16c0,1.52-1.23,2.75-2.75,2.75s-2.75-1.23-2.75-2.75,1.23-2.75,2.75-2.75,2.75,1.23,2.75,2.75Z"/>
        <path class="cls-19" d="M95.24,267.16c0,1.52-1.23,2.75-2.75,2.75s-2.75-1.23-2.75-2.75,1.23-2.75,2.75-2.75,2.75,1.23,2.75,2.75Z"/>
      </g>
      <g>
        <path class="cls-7" d="M216.61,247.47c1.06,9.79,2.13,19.78-.33,21.18-2.46,1.4-16.39,0-19.42,0s-3.02-6.37,2.01-9.02c5.04-2.66,6.04-12.15,6.04-12.15h11.69Z"/>
        <path class="cls-7" d="M277.32,253.1c1.06,9.79,2.46,14.15,0,15.55-2.46,1.4-16.39,0-19.42,0s-3.02-6.37,2.01-9.02c5.04-2.66,5.06-7.57,5.06-7.57l12.34,1.05Z"/>
        <path class="cls-21" d="M196.36,11.52c-4.12,8.25-3.61,16.67,4.61,17.01,8.23,.35-4.61-17.01-4.61-17.01Z"/>
        <g>
          <g>
            <path class="cls-16" d="M197.66,20.15c2.58,10.14,9.81,19.86,17.95,16.62l1.65,3.17c1.22,2.35,4.12,3.27,6.47,2.04h0c2.35-1.22,3.27-4.12,2.04-6.47l-1.65-3.17s4.82-5.85,4.05-10.36c-.77-4.51-.32-.62-.32-.62l-7.65-16.07-24.03,12.48,1.49,2.37Z"/>
            <path class="cls-25" d="M215.6,36.77c3.59-1.47,7.5-3.66,7.5-3.66l-5.85,6.84-1.65-3.17Z"/>
          </g>
          <path class="cls-24" d="M228.41,19.24c-.27,5.12-1.58,9.55-2.56,10.62-2.13,2.3-9.41,4.84-9.41,4.84-3.32-.44-8.88-2.85-13.4-6.63-4.79-4-8.39-9.52-6.87-15.86,2.58-10.77,18.44-15.9,26.94-9.22,4.54,3.57,5.61,10.36,5.3,16.25Z"/>
          <path class="cls-21" d="M228.41,19.24c-.27,5.12-1.58,9.55-2.56,10.62-2.13,2.3-9.41,4.84-9.41,4.84-3.32-.44-8.88-2.85-13.4-6.63,.13-1.64,.59-3.2,1.66-4.16,3.15-2.83,12.37,3.8,14.45-6.87l1.94-.66s4.24,1.65,7.31,2.86Z"/>
          <path class="cls-16" d="M202.04,25.14c.1-4.56,3.16-4.26,4.69-2.44,1.53,1.82,.01,8.98-1.93,7.75-1.95-1.23-2.76-5.31-2.76-5.31Z"/>
          <path class="cls-25" d="M202.74,25.99c.79-2.72,2.03-2.42,2.9-.46,.87,1.95-.71,4.49-1.73,4.34-1.02-.16-1.17-3.87-1.17-3.87Z"/>
        </g>
        <path class="cls-11" d="M221.83,6.06c-3.94,1.71-5.68,7.16-2.68,10.98,2.09,2.66,5.81,1.44,5.81,1.44l-3.13-12.43Z"/>
        <path class="cls-24" d="M219.86,12.29c-1.23-6.03,5.02-11.16,10.48-8.31,1.41,.73,2.55,1.89,3.15,3.38,2.05,5.12,1.92,11.77,8.19,12.67,0,0-7.55,8.07-15.11,3.21-4.23-2.73-5.99-7.38-6.71-10.94Z"/>
        <path class="cls-17" d="M242.41,35.7c12.2,.21,25.38,15.85,29.09,26.1,3.72,10.25-6.08,22.72-6.08,22.72l-23.01-48.82Z"/>
        <path class="cls-16" d="M168.51,92.93c-5.26-6.73-7.67-7.1-9.34-5.8s-7.97,4.93-9.09,5.8,.19,2.17,2.23,1.8l2.04-.37s-.93,4.82,1.48,7.05c2.41,2.23,10.01-.93,10.01-.93l2.66-7.55Z"/>
        <path class="cls-11" d="M265.09,137.61c-1.18,5.23-4.45,14.74-8.73,26.16-13.41,35.75-36.76,90.19-36.76,90.19l-19.85-1.9,29.61-147.14,.63-3.14s13.16-19.43,23.41-15.04c2.05,.88,3.95,2.57,5.61,4.9,2.24,3.1,4.1,7.32,5.43,12.21,2.67,9.78,3.25,22.24,.66,33.76Z"/>
        <path class="cls-11" d="M279.95,253.34l-17.07,.61-6.53-90.19-2.96-40.82v-31.31h19.46c3.14,4.05,5.85,9.66,8.09,16.6h0c9.6,29.77,10.47,84.04-.99,145.11Z"/>
        <polygon class="cls-12" points="255.84 165.12 272.34 134.95 257.57 180.65 255.84 165.12"/>
        <path class="cls-12" d="M280.94,108.23c-.27-.13-6.08-2.88-16.51-4.39-3.24-.47-6.93-.82-11.04-.92-6.88-.2-14.94,.29-24.04,1.99l.63-3.14s13.16-19.43,23.41-15.04c2.05,.88,3.95,2.57,5.61,4.9h13.85c3.14,4.05,5.85,9.66,8.09,16.6Z"/>
        <path class="cls-9" d="M272.85,91.63l-42.87,10.13-14.27-18.94s-7.7,18.26-12.82,20.97c-5.12,2.7-37.44-1.69-37.44-1.69-.84-.96-.92-2.81-.66-4.81h0c.44-3.6,1.98-7.65,1.98-7.65l25.36-2.4s7.68-20.68,10.76-30.6c3.09-9.91,9.61-11.36,9.61-11.36,0,0,.12-2.45-.06-3.15-.2-.71,10.36-8.53,17.54-8.53l1.67,1.52s6.76-2.93,15.53,3.15c4.62,3.19,11.47,17.76,16.93,30.87h0c4.93,11.85,8.73,22.48,8.73,22.48Z"/>
        <path class="cls-27" d="M272.85,91.63l-42.87,10.13-14.27-18.94s-7.7,18.26-12.82,20.97c-5.12,2.7-37.44-1.69-37.44-1.69-.84-.96-.92-2.81-.66-4.81h0c8.96-4.09,31.28,6.05,36.83-1.1,5.55-7.16,11.41-27.31,14.1-21.64,2.68,5.66,8.17,14.21,14.97,15.68,6.78,1.46,34.72-5.72,33.43-21.08,4.93,11.84,8.73,22.48,8.73,22.48Z"/>
      </g>
    </g>
  </g>
</svg>