<?xml version="1.0" encoding="UTF-8"?>
<svg id="Layer_2" data-name="Layer 2" xmlns="http://www.w3.org/2000/svg" viewBox="0 0 207.57 192.85">
  <defs>
    <style>
      .cls-1 {
        fill: #ff9c39;
      }

      .cls-2 {
        fill: #fdf8f3;
      }

      .cls-3 {
        fill: #fdfeff;
      }

      .cls-4 {
        fill: #73727a;
      }

      .cls-5 {
        fill: #e2ddd4;
      }

      .cls-6 {
        fill: #2d455c;
      }

      .cls-7 {
        fill: none;
        stroke: #fdc895;
        stroke-miterlimit: 10;
        stroke-width: 2.57px;
      }

      .cls-8 {
        opacity: .62;
      }

      .cls-8, .cls-9 {
        fill: #fff;
      }

      .cls-9 {
        opacity: .56;
      }
    </style>
  </defs>
  <g id="Layer_1-2" data-name="Layer 1">
    <g>
      <g>
        <path class="cls-2" d="M184,133.83c2.75-3.42,4.39-7.77,4.39-12.5,0-9.56-6.72-17.55-15.69-19.52,.81-2.17,1.26-4.53,1.26-6.98,0-11.04-8.95-19.99-19.99-19.99-2.21,0-4.34,.36-6.33,1.03-2.38-8.37-10.08-14.51-19.22-14.51-4.79,0-9.19,1.69-12.63,4.5-3.64-4.93-9.49-8.13-16.09-8.13s-12.62,3.3-16.25,8.35c-3.67-4.36-9.16-7.14-15.31-7.14-7.88,0-14.69,4.56-17.94,11.18-1.53-.37-3.13-.58-4.77-.58-11.04,0-19.99,8.95-19.99,19.99,0,3.45,.88,6.71,2.42,9.54-.79-.1-1.6-.15-2.42-.15-11.04,0-19.99,8.95-19.99,19.99,0,5.17,1.96,9.88,5.19,13.43-6.37,4-10.64,11.09-10.64,19.13H0c0,10.11,6.74,18.72,15.94,21.57l-3.4,17.46,20-16.46H169.98c12.41,0,22.56-10.15,22.56-22.56h0c0-7.12-3.35-13.5-8.54-17.64Z"/>
        <path class="cls-7" d="M39.24,104.81c-.93-4.63,.27-9.63,3.2-13.34,2.92-3.7,7.52-6.03,12.23-6.2,.52-.02,1.08-.02,1.52-.29,.54-.33,.8-.96,1.05-1.54,2.23-5.1,7.06-8.98,12.53-10.04,5.46-1.07,11.4,.7,15.39,4.58"/>
        <path class="cls-1" d="M154.09,106.95l-2.08-.13c.25-4.18-1.64-8.39-4.93-10.97-3.29-2.59-7.83-3.43-11.83-2.19l-.07,.02c-.54,.17-1.28,.4-2.06,.14-.63-.21-1.04-.65-1.37-1l-.05-.06c-2.4-2.59-5.94-4.04-9.46-3.88-3.52,.15-6.92,1.91-9.09,4.69l-1.64-1.28c2.54-3.26,6.51-5.31,10.64-5.49,4.12-.18,8.27,1.52,11.08,4.55l.06,.06c.16,.18,.37,.4,.49,.44,.15,.05,.51-.06,.79-.15l.08-.02c4.64-1.43,9.9-.46,13.73,2.54,3.82,3,6.02,7.88,5.72,12.74Z"/>
        <path class="cls-1" d="M151.71,145.13l-2.01-.53c1.06-4.05,.03-8.54-2.69-11.73-2.73-3.18-7.01-4.89-11.17-4.46h-.08c-.56,.07-1.33,.15-2.05-.25-.58-.33-.9-.84-1.15-1.25l-.04-.07c-1.85-3-5.04-5.13-8.52-5.66-3.49-.54-7.16,.52-9.83,2.82l-1.36-1.57c3.12-2.7,7.43-3.94,11.51-3.31,4.08,.63,7.81,3.11,9.97,6.63l.04,.07c.13,.21,.28,.46,.39,.53,.14,.08,.51,.04,.81,0h.08c4.83-.51,9.8,1.48,12.97,5.17,3.16,3.69,4.36,8.91,3.12,13.61Z"/>
        <path class="cls-1" d="M52.39,134.03l-1.54,1.4c-2.82-3.09-7.16-4.67-11.31-4.11-4.15,.56-7.91,3.23-9.81,6.96l-.03,.07c-.26,.5-.61,1.2-1.33,1.58-.59,.31-1.19,.3-1.68,.28h-.08c-3.53-.08-7.04,1.44-9.38,4.08-2.35,2.63-3.46,6.29-2.97,9.79l-2.06,.29c-.57-4.09,.73-8.37,3.47-11.46,2.74-3.08,6.85-4.87,10.98-4.77h.08c.24,0,.54,.02,.66-.04,.14-.07,.31-.41,.44-.68l.04-.07c2.21-4.33,6.57-7.42,11.39-8.07,4.82-.65,9.85,1.18,13.12,4.77Z"/>
        <path class="cls-7" d="M154.12,163.34c5.69,1.38,11.99,0,16.58-3.64,4.59-3.63,7.39-9.44,7.36-15.3,0-1.44-.19-2.92-.88-4.17-.69-1.26-1.98-2.26-3.42-2.29"/>
      </g>
      <path class="cls-5" d="M183.66,70.1c-.01-.56-.04-1.12-.07-1.68-.06-1.27-.12-2.58-.02-3.84l-1.33-.11c-.11,1.35-.04,2.7,.02,4.01,.03,.55,.05,1.1,.06,1.65,.08,3.31-.47,7.42-3.52,8.17-.9,.22-1.85,.21-2.85,.19-.26,0-.53,0-.79,0v-.02H68.56c-7.63,0-13.84,6.64-13.84,14.81s5.95,14.52,13.35,14.79h0s81.68,.01,81.68,.01c6.93,0,12.57,6.03,12.57,13.45s-5.64,13.45-12.57,13.45H50.23c-7.63,0-13.84,6.64-13.84,14.81s6.08,14.66,13.6,14.8h0s100.01,0,100.01,0c6.93,0,12.57,6.03,12.57,13.45s-5.64,13.45-12.57,13.45H14.79v1.36H150.13c7.58-.07,13.72-6.69,13.72-14.81s-6.21-14.81-13.84-14.81H50.23c-6.93,0-12.57-6.03-12.57-13.45s5.64-13.45,12.57-13.45h100.01c7.41-.29,13.35-6.82,13.35-14.81s-6.21-14.81-13.84-14.81H68.56c-6.93,0-12.57-6.03-12.57-13.45s5.64-13.45,12.57-13.45h81.68s24.42,0,24.42,0h0c.08,0,.15,0,.23,0h.27c.26,0,.51,0,.77,0,.26,0,.52,0,.78,0,.79,0,1.6-.04,2.41-.24,3.1-.76,4.66-4.04,4.53-9.49Z"/>
      <g>
        <g>
          <g>
            <g>
              <circle class="cls-3" cx="182.89" cy="24.67" r="24.67" transform="translate(11.68 93.56) rotate(-29.6)"/>
              <path class="cls-3" d="M182.84,29.88h0c-5.89-.05-10.78,6.77-10.86,15.17l-.11,12.21c-.08,8.4,4.68,15.31,10.58,15.37h0c5.89,.05,10.78-6.77,10.86-15.17l.11-12.21c.08-8.4-4.68-15.31-10.58-15.37Z"/>
            </g>
            <path class="cls-5" d="M192.77,60.28l-20.42-.19c-1.37-.01-2.48-1.14-2.47-2.51h0c.01-1.37,1.14-2.48,2.51-2.47l20.42,.19c1.37,.01,2.48,1.14,2.47,2.51h0c-.01,1.37-1.14,2.48-2.51,2.47Z"/>
            <path class="cls-5" d="M192.73,64.54l-20.42-.19c-1.37-.01-2.48-1.14-2.47-2.51h0c.01-1.37,1.14-2.48,2.51-2.47l20.42,.19c1.37,.01,2.48,1.14,2.47,2.51h0c-.01,1.37-1.14,2.48-2.51,2.47Z"/>
            <path class="cls-5" d="M192.69,68.79l-20.42-.19c-1.37-.01-2.48-1.14-2.47-2.51h0c.01-1.37,1.14-2.48,2.51-2.47l20.42,.19c1.37,.01,2.48,1.14,2.47,2.51h0c-.01,1.37-1.14,2.48-2.51,2.47Z"/>
          </g>
          <rect class="cls-6" x="160.46" y="35.83" width="37.22" height="1.47" transform="translate(140.85 215.29) rotate(-89.47)"/>
          <rect class="cls-6" x="167.3" y="35.89" width="37.22" height="1.47" transform="translate(147.57 222.19) rotate(-89.47)"/>
          <rect class="cls-6" x="181.41" y="12.59" width="1.47" height="18.08" transform="translate(158.81 203.57) rotate(-89.47)"/>
          <rect class="cls-6" x="181.36" y="17.98" width="1.47" height="18.08" transform="translate(153.37 208.86) rotate(-89.47)"/>
        </g>
        <path class="cls-8" d="M189.07,8.39c.3,3.14-4.76,6.18-11.31,6.81-6.54,.62-12.09-1.41-12.39-4.55-.3-3.14,4.76-6.18,11.31-6.81,6.54-.62,12.09,1.41,12.39,4.55Z"/>
        <path class="cls-9" d="M182.54,7.41c.18,1.93-2.94,3.81-6.97,4.2-4.03,.38-7.45-.87-7.64-2.8-.18-1.93,2.94-3.81,6.97-4.2,4.03-.38,7.45,.87,7.64,2.8Z"/>
      </g>
      <path class="cls-4" d="M91.14,105.92l2.72-6.86-6.27-2.49c.4-2.29,.35-4.6-.11-6.81l6.2-2.68-2.93-6.78-6.2,2.68c-1.29-1.85-2.93-3.47-4.88-4.75l2.49-6.27-6.86-2.72-2.49,6.27c-2.29-.4-4.6-.35-6.81,.11l-2.68-6.2-6.78,2.93,2.68,6.2c-1.84,1.29-3.47,2.93-4.74,4.88l-6.27-2.49-2.72,6.86,6.27,2.49c-.4,2.29-.35,4.6,.11,6.81l-6.2,2.68,2.93,6.78,6.2-2.68c1.29,1.85,2.93,3.47,4.88,4.75l-2.49,6.27,6.86,2.72,2.49-6.27c2.29,.4,4.6,.35,6.81-.11l2.68,6.2,6.78-2.93-2.68-6.2c1.85-1.29,3.47-2.93,4.75-4.88l6.27,2.49Zm-25.01-3.54c-4.94-1.96-7.36-7.56-5.4-12.5,1.96-4.94,7.56-7.36,12.5-5.4,4.94,1.96,7.36,7.56,5.4,12.5-1.96,4.94-7.56,7.36-12.5,5.4Z"/>
      <path class="cls-4" d="M62.19,151.03v-5.37h-4.91c-.34-1.66-1-3.21-1.9-4.58l3.48-3.48-3.8-3.8-3.48,3.48c-1.37-.9-2.92-1.56-4.58-1.9v-4.91h-5.37v4.91c-1.66,.34-3.21,1-4.58,1.9l-3.48-3.48-3.8,3.8,3.48,3.48c-.9,1.37-1.56,2.92-1.9,4.58h-4.91v5.37h4.91c.34,1.66,1,3.21,1.9,4.58l-3.48,3.48,3.8,3.8,3.48-3.48c1.37,.9,2.92,1.56,4.58,1.9v4.91h5.37v-4.91c1.66-.34,3.21-1,4.58-1.9l3.48,3.48,3.8-3.8-3.48-3.48c.9-1.37,1.56-2.92,1.9-4.58h4.91Zm-17.88,4.32c-3.87,0-7.01-3.14-7.01-7.01s3.14-7.01,7.01-7.01,7.01,3.14,7.01,7.01-3.14,7.01-7.01,7.01Z"/>
      <path class="cls-4" d="M174.45,121.28l-1.07-7.31-6.68,.98c-.8-2.19-1.99-4.16-3.49-5.84l4.03-5.42-5.92-4.41-4.03,5.42c-2.04-.95-4.27-1.54-6.6-1.67l-.98-6.68-7.31,1.07,.98,6.68c-2.19,.8-4.16,1.99-5.84,3.49l-5.42-4.03-4.41,5.92,5.42,4.03c-.95,2.04-1.54,4.27-1.67,6.6l-6.68,.98,1.07,7.31,6.68-.98c.8,2.19,1.99,4.16,3.49,5.84l-4.03,5.42,5.92,4.41,4.03-5.42c2.04,.95,4.27,1.54,6.6,1.67l.98,6.68,7.31-1.07-.98-6.68c2.19-.8,4.16-1.99,5.84-3.49l5.42,4.03,4.41-5.92-5.42-4.03c.95-2.04,1.54-4.27,1.67-6.6l6.68-.98Zm-23.44,9.43c-5.26,.77-10.15-2.87-10.92-8.14-.77-5.26,2.87-10.15,8.14-10.92,5.26-.77,10.15,2.87,10.92,8.14,.77,5.26-2.87,10.15-8.14,10.92Z"/>
      <path class="cls-1" d="M109.83,123.24l-.6-4.12-3.76,.55c-.45-1.23-1.12-2.35-1.97-3.29l2.27-3.05-3.34-2.49-2.27,3.05c-1.15-.54-2.41-.87-3.72-.94l-.55-3.76-4.12,.6,.55,3.76c-1.23,.45-2.35,1.12-3.29,1.97l-3.05-2.27-2.49,3.34,3.05,2.27c-.54,1.15-.87,2.41-.94,3.72l-3.76,.55,.6,4.12,3.76-.55c.45,1.23,1.12,2.35,1.97,3.29l-2.27,3.05,3.34,2.49,2.27-3.05c1.15,.54,2.41,.87,3.72,.94l.55,3.76,4.12-.6-.55-3.76c1.23-.45,2.35-1.12,3.29-1.97l3.05,2.27,2.49-3.34-3.05-2.27c.54-1.15,.87-2.41,.94-3.72l3.76-.55Zm-13.21,5.31c-2.97,.43-5.72-1.62-6.16-4.59-.43-2.97,1.62-5.72,4.59-6.16,2.97-.43,5.72,1.62,6.16,4.59,.43,2.97-1.62,5.72-4.59,6.16Z"/>
      <path class="cls-1" d="M134.86,89.32l-.48-3.3-3.01,.44c-.36-.99-.9-1.88-1.58-2.64l1.82-2.44-2.67-1.99-1.82,2.44c-.92-.43-1.93-.69-2.98-.75l-.44-3.01-3.3,.48,.44,3.01c-.99,.36-1.88,.9-2.64,1.58l-2.44-1.82-1.99,2.67,2.44,1.82c-.43,.92-.69,1.93-.75,2.98l-3.01,.44,.48,3.3,3.01-.44c.36,.99,.9,1.88,1.58,2.64l-1.82,2.44,2.67,1.99,1.82-2.44c.92,.43,1.93,.69,2.98,.75l.44,3.01,3.3-.48-.44-3.01c.99-.36,1.88-.9,2.64-1.58l2.44,1.82,1.99-2.67-2.44-1.82c.43-.92,.69-1.93,.75-2.98l3.01-.44Zm-10.58,4.25c-2.37,.35-4.58-1.3-4.93-3.67-.35-2.37,1.3-4.58,3.67-4.93,2.37-.35,4.58,1.3,4.93,3.67,.35,2.37-1.3,4.58-3.67,4.93Z"/>
      <path class="cls-4" d="M91.98,155.4l-.48-3.3-3.01,.44c-.36-.99-.9-1.88-1.58-2.64l1.82-2.44-2.67-1.99-1.82,2.44c-.92-.43-1.93-.69-2.98-.75l-.44-3.01-3.3,.48,.44,3.01c-.99,.36-1.88,.9-2.64,1.58l-2.44-1.82-1.99,2.67,2.44,1.82c-.43,.92-.69,1.93-.75,2.98l-3.01,.44,.48,3.3,3.01-.44c.36,.99,.9,1.88,1.58,2.64l-1.82,2.44,2.67,1.99,1.82-2.44c.92,.43,1.93,.69,2.98,.75l.44,3.01,3.3-.48-.44-3.01c.99-.36,1.88-.9,2.64-1.58l2.44,1.82,1.99-2.67-2.44-1.82c.43-.92,.69-1.93,.75-2.98l3.01-.44Zm-10.58,4.25c-2.37,.35-4.58-1.3-4.93-3.67-.35-2.37,1.3-4.58,3.67-4.93,2.37-.35,4.58,1.3,4.93,3.67,.35,2.37-1.3,4.58-3.67,4.93Z"/>
      <path class="cls-1" d="M135.99,157.26l-.48-3.3-3.01,.44c-.36-.99-.9-1.88-1.58-2.64l1.82-2.44-2.67-1.99-1.82,2.44c-.92-.43-1.93-.69-2.98-.75l-.44-3.01-3.3,.48,.44,3.01c-.99,.36-1.88,.9-2.64,1.58l-2.44-1.82-1.99,2.67,2.44,1.82c-.43,.92-.69,1.93-.75,2.98l-3.01,.44,.48,3.3,3.01-.44c.36,.99,.9,1.88,1.58,2.64l-1.82,2.44,2.67,1.99,1.82-2.44c.92,.43,1.93,.69,2.98,.75l.44,3.01,3.3-.48-.44-3.01c.99-.36,1.88-.9,2.64-1.58l2.44,1.82,1.99-2.67-2.44-1.82c.43-.92,.69-1.93,.75-2.98l3.01-.44Zm-10.58,4.25c-2.37,.35-4.58-1.3-4.93-3.67-.35-2.37,1.3-4.58,3.67-4.93,2.37-.35,4.58,1.3,4.93,3.67,.35,2.37-1.3,4.58-3.67,4.93Z"/>
    </g>
  </g>
</svg>