<?xml version="1.0" encoding="UTF-8"?>
<svg id="Layer_2" data-name="Layer 2" xmlns="http://www.w3.org/2000/svg" xmlns:xlink="http://www.w3.org/1999/xlink" viewBox="0 0 409.59 416.82">
  <defs>
    <style>
      .cls-1, .cls-2 {
        fill: none;
      }

      .cls-3 {
        clip-path: url(#clippath);
      }

      .cls-4 {
        fill: #ed7523;
      }

      .cls-5 {
        fill: #ffdcc5;
      }

      .cls-6 {
        fill: #fff5ee;
      }

      .cls-7 {
        fill: #ffc095;
      }

      .cls-8 {
        fill: #fda158;
      }

      .cls-9 {
        fill: #512507;
      }

      .cls-10 {
        opacity: .5;
      }

      .cls-2 {
        stroke: #000;
        stroke-miterlimit: 10;
        stroke-width: 1.32px;
      }
    </style>
    <clipPath id="clippath">
      <rect class="cls-1" width="409.59" height="416.82"/>
    </clipPath>
  </defs>
  <g id="Layer_1-2" data-name="Layer 1">
    <g class="cls-3">
      <g>
        <path class="cls-7" d="M154.57,425.65c4.53,27.02,25.42,118.44,34.41,172.45,16.42,1.4,24.3-.49,28.48-1.45-.82-18.83-2.44-63.88-2.25-83.63,.31-33.39,1.88-77.41-12.82-101.57l-49.42,3.89c.3,2.61,.57,4.73,.82,6.25,.24,1.45,.51,2.8,.78,4.07Z"/>
        <path class="cls-8" d="M63.82,596.51c13.4,3.32,23.1,2.99,27.7,2.48,3.73-21.71,9.62-69.47,14.92-91.86,8.22-34.8,16.27-82.66,10.68-99.73l-48.61-12.21c-.16,1.54-4.12,148.01-4.68,201.32Z"/>
        <path class="cls-8" d="M257.29,345.36h0c-.98-9.61-2.1-16.62-2.1-16.62l-54.31,13.29-46.14,10.51c-17.1,3.81-37.76,8.4-55.98,12.51-20.44,4.64-34.01,20.17-29.53,40.64l5.12,24.83c28.59-.39,163-13.28,174.49-19.08,12.99-6.56,16.9-29.75,8.44-66.08Z"/>
        <path class="cls-7" d="M338.37,345.36h0c-.98-9.61-5.66-19.91-5.66-19.91l-50.75,16.58-46.14,10.51c-17.1,3.81-37.76,8.4-55.98,12.51-20.44,4.64-34.01,20.17-29.53,40.64l5.12,24.83c28.59-.39,148.08-4.55,174.5-19.08,12.75-7.01,16.9-29.75,8.44-66.08Z"/>
        <path class="cls-6" d="M186.35,267.52s24.12-10.9,30.76,.03c3.63,5.98,1.12,17.1-7.11,21.76-8.23,4.66-54.72,24.33-98.6,35.29,0,0-1.88-6.1-4.9-12.52,0,0,19.68-8.17,39.25-21.91,19.57-13.74,40.58-22.66,40.58-22.66h0Z"/>
        <path class="cls-6" d="M192.39,192.19l-20.67,82.58s2.14,20.88,23.22,10.63c21.08-10.25,35.05-76.03,35.05-76.03l-37.6-17.17Z"/>
        <path class="cls-9" d="M227.36,238.37c-2.56-.62-5-1.29-7.35-2-2.41-.71-4.71-1.44-6.88-2.21-19.65-6.73-30.26-14.82-30.26-14.82,6.18-26.85,13.62-44.88,20.23-56.76,.18-.29,.35-.56,.5-.88,.18-.29,.35-.59,.53-.88,3.56-5.91,8.68-10.88,14.38-14.97,.59-.41,1.15-.79,1.74-1.21l2.44,43.11,.41,4.44,4.26,46.17Z"/>
        <path d="M227.36,238.37c-2.56-.62-5-1.29-7.35-2-2.41-.71-4.71-1.44-6.88-2.21,4.12-29.04,7.85-47.29,7.85-47.29l2.12,5.32,4.26,46.17Z"/>
        <path class="cls-9" d="M349.41,163.82c-.5,12.76-2.74,33.26-4.68,53.85-.62,6.53-1.21,13.09-1.71,19.41-.35,3.94-6.29,24.97-6.53,28.73-1.06,18-9.88,31.47-1.53,58.88,2,6.56,2.5,9.94,2.5,12.65,0,1.88-2.44,3.85-3.41,4.38-3.5,2.03-10.38,3.44-18.73,4.47h-.03c-16.44,2-38.61,2.38-52,2.38-17.97,0-44.94-2.85-48.35-7.38-3.12-4.15-.24-10.18,1.24-18.5,6.62-37.56,4.26-57.14,3.85-84.26,0-.68-.03-1.35-.03-2.06-.68-41.82-3.44-77.61-1.5-90.52,.59-.41,1.15-.79,1.74-1.21,2.85-1.94,5.65-3.68,8.35-5.21,.24-.12,.53-.29,.82-.47,.82-.47,1.68-.91,2.47-1.35,.29-.18,.62-.32,.94-.47,6.09-2.97,14.97-6.15,20.06-7.91,.65-.21,1.24-.41,1.74-.56,4.79-.29,10-.35,15.62-.21,4.88,.15,12.35,.79,20.47,1.85h.03c9.18,1.18,19.2,2.91,27.17,5.09,0,0,.09,.03,.15,.06,1.5,.47,11.23,4.12,21.38,14.97,3.38,3.59,6.85,8,9.97,13.38Z"/>
        <path d="M334.97,324.69c2,6.56,2.5,9.94,2.5,12.65,0,1.88-2.44,3.85-3.41,4.38-3.5,2.03-10.38,3.44-18.73,4.47,3.44-.41,9.38-5.87,9.38-10.79,0-3.45-4.47-26.73-3.23-41.76,1.24-15,3.68-38.88-.97-57.99-4.68-19.12-9.06-44.26-9.06-44.26l26.2,15.82s3.38,4.74,7.09,10.47c-.62,6.53-1.21,13.09-1.71,19.41-.35,3.94-16.41,60.2-8.06,87.61Z"/>
        <g>
          <path class="cls-9" d="M219.69,53.3s2.27,27.41,11.35,29.25c9.09,1.84,6.86-9.8,6.86-9.8l-1.27-13.01-16.94-6.43Z"/>
          <path class="cls-6" d="M261.6,152.62c-17.79-2.12-11.15-19.41-8.71-23.38,.65-.21,3.71-1.15,3.94-1.29,.03-.03,.06-.03,.06-.03,.59-.47,1.03-1.18,1.38-2.06,1.73-4.56,.94-13.65,.88-14.23v-1.68c.29-1.09,.59-2.12,.82-3.09l9.35-7.35,19.79-15.56s-5.26,26.03-1.03,42.44c.32,1.24,.97,2.97,2.62,3.94,0,.03,.03,0,.03,0,.53,.35,1.18,.59,1.97,.71,4.85,2.29-1.91,25.06-31.11,21.59Z"/>
          <path class="cls-5" d="M277.28,100.49s-.17,17.37-19.02,25.36c1.75-4.53,.95-13.63,.89-14.21l7.9-6.2,10.23-4.95Z"/>
          <path class="cls-6" d="M224.04,57.2s4.11,56.86,19.47,61.69c0,0,19.56,1.84,33.61-17.05,4.05-5.44,9.16-6.67,10.83-13.24,2.71-10.68,6.54-30.37,1.66-42.24-6.95-16.9-64.9-30.32-65.56,10.83Z"/>
          <path class="cls-9" d="M289.83,36.98c-.25-10.33-10.71-14.19-10.71-14.19-10.41-4.87-32.04-2.77-54.34,2.21-5.23,1.17-11.79-2.04-15.44,.49-4.41,3.06-.02,17.05-.02,17.05,8.6,26.05,40.25,17.58,49.77,14.36,2.26,6.71,1.97,16.03,7.61,20.84,3.21,2.74,8.8,2.82,14.48,1.87,.7,1.33,3.32,2.5,3.86,4.32,1.79,6.09,1.53,15.61,1.48,22.96l2.68-1.31c.35-1.99,28.11-67.75,.63-68.6Z"/>
          <g>
            <path class="cls-2" d="M239.79,76.35c.8,4.72-1.53,9.06-5.2,9.68-3.68,.63-7.31-2.7-8.11-7.42-.8-4.72,1.53-9.06,5.2-9.68,3.68-.63,7.31,2.7,8.11,7.42Z"/>
            <path class="cls-2" d="M258.34,72.88c.8,4.72-1.53,9.06-5.2,9.68-3.68,.63-7.31-2.7-8.11-7.42-.8-4.72,1.53-9.06,5.2-9.68,3.68-.63,7.31,2.7,8.11,7.42Z"/>
            <path class="cls-2" d="M239.79,76.35s.81-1.32,5.08-.95"/>
            <line class="cls-2" x1="258.5" y1="74.01" x2="274.36" y2="71.48"/>
          </g>
          <path class="cls-6" d="M275.53,91.61c10.92,4.18,14.33-22.7,3.96-23.89-7.87-.9-8.19,10.07-8.19,10.07,0,0-2.01,11.43,4.23,13.82Z"/>
          <g class="cls-10">
            <path class="cls-5" d="M279.13,71.77c-3.09,3.5-2.97,7.7-2.49,11.95,.32,2.24,.25,2.26-.9,.27-2.21-4.01-1.57-10.69,3.39-12.22h0Z"/>
            <path class="cls-5" d="M280.83,76.88c-2.27,.34-4.02,2.06-4.4,4.26,0,0-1.8-.64-1.8-.64,1.07-2.33,3.68-3.96,6.2-3.62h0Z"/>
          </g>
        </g>
        <path class="cls-6" d="M380.53,278.4v.03c-4.8,5.57-23.02,9.63-31.78,1.92-2.75-2.45-5.86-8.92-8.92-16.94-7.77-20.51-15.13-51.2-15.13-51.2l40.76-20.83s5.24,23.51,9.76,45.86c0,0,.04,.23,.12,.62,1.47,7.16,2.84,14.2,3.91,20.24,.04,.17,.06,.31,.08,.48,1.08,7.21,1.77,14.73,1.18,19.82Z"/>
        <path class="cls-9" d="M309.31,183.66c3.94,16.37,16.31,47.39,16.31,47.39,8.67,1.44,20.29-.16,29.92-3.62,11.11-3.99,19.05-12.38,19.05-12.38,0,0-8.21-23.06-15.57-39.63-6.61-14.87-10.58-20.43-13.44-23.37-4.31-4.51-11.26-9.68-16.18-12.04l-20.09,43.65Z"/>
        <path class="cls-9" d="M360.86,194.35l-23.92-10.32-18.85-48.56s3.45,1.05,8,2.89h.02c.09,.04,.28,.11,.61,.24,.11,.04,.24,.09,.35,.15,4.07,1.9,19.83,11.2,30.74,44.96,.09,.28,.17,.57,.26,.85,1.16,3.89,2.01,7.02,2.47,8.64,.04,.15,.09,.31,.13,.48,.07,.22,.11,.46,.17,.68Z"/>
        <g>
          <path class="cls-6" d="M380.53,278.4v.03c-.35,2.99-1.17,5.13-2.65,5.89-.23,.15-3.58,2.14-3.82,2.29-4.98,3.05-14.02,8.23-25.27,13.06-27.27,11.78-66.88,25.44-88.23,31.7,0,0-2.11-6.03-5.4-12.32,0,0,19.32-8.97,38.3-23.51,19.01-14.51,46.36-32.14,46.36-32.14l6.91-8.12s24.55-22.59,28.49-18.05c0,0,.04,.23,.12,.62,.59,2.36,2.53,11.02,3.91,20.24,.04,.17,.06,.31,.08,.48,1.08,7.21,1.77,14.73,1.18,19.82Z"/>
          <path class="cls-6" d="M257.99,317.69s-4.8,2.89-9.69,1.86c-2.71-.57-3.8-1.68-5.8-2.03-2-.35-7.33-1.01-9.97-2.3-2.64-1.29-3.67-1.44-3.57,1.21,.09,2.65,5.3,4.94,6.71,5.67,1.41,.73,3.18,3.08,3.37,3.38,.19,.29-8.67,4.93-11.06,3.99,0,0-.71,2.13-.31,3.33,.4,1.19,2.23,1.61,2.37,2.21,.14,.6-.42,1.82-.02,2.77,.39,.95,2.02,.95,2.68,2.5,.66,1.54-.07,1.57,.41,3.18,.48,1.61,2.54,1.9,2.93,2.73s.18,1.8,1.05,2.38c.86,.57,8.84-1.99,11.75-3.23,2.91-1.25,10.69-12.44,19.29-16.26l-10.14-11.39Z"/>
        </g>
        <path class="cls-4" d="M298.74,367.66h-62.01v-6.07h62.01c1.68,0,3.03,1.36,3.03,3.03h0c0,1.68-1.36,3.03-3.03,3.03Z"/>
        <path class="cls-4" d="M265.19,367.66H109.93c-1.86,0-3.49-1.24-3.99-3.03l-31.78-114.39c-.7-2.53,1.2-5.04,3.83-5.04H228.13c3.5,0,6.57,2.33,7.5,5.7l31.66,113.98c.39,1.4-.66,2.78-2.11,2.78Z"/>
        <path class="cls-5" d="M259.57,367.66H104.31c-1.86,0-3.49-1.24-3.99-3.03l-31.78-114.39c-.7-2.53,1.2-5.04,3.83-5.04H222.51c3.5,0,6.57,2.33,7.5,5.7l31.66,113.98c.39,1.4-.66,2.78-2.11,2.78Z"/>
      </g>
    </g>
  </g>
</svg>