<?xml version="1.0" encoding="UTF-8"?>
<svg id="Layer_2" data-name="Layer 2" xmlns="http://www.w3.org/2000/svg" viewBox="0 0 253.55 184.94">
  <defs>
    <style>
      .cls-1 {
        fill: #ff9c39;
      }

      .cls-2 {
        fill: #fff;
      }

      .cls-3 {
        fill: #ffdec2;
      }

      .cls-4 {
        fill: #f2c8aa;
      }

      .cls-5 {
        fill: #73727a;
      }

      .cls-6 {
        fill: none;
        stroke: #fff;
        stroke-linecap: round;
        stroke-linejoin: round;
        stroke-width: 1.71px;
      }
    </style>
  </defs>
  <g id="Layer_1-2" data-name="Layer 1">
    <g>
      <rect class="cls-2" x="9.55" y="29.24" width="42.18" height="37.84" rx="5.85" ry="5.85"/>
      <g>
        <circle class="cls-1" cx="9.9" cy="29.24" r="9.9" transform="translate(-17.77 15.56) rotate(-45)"/>
        <polyline class="cls-6" points="5.49 29.73 9.2 32.44 13.61 26.84"/>
      </g>
      <path class="cls-5" d="M39.48,45.79l-1.47-.26c-.17-.64-.43-1.25-.76-1.83l.85-1.22c.31-.45,.26-1.06-.13-1.44l-.88-.88c-.39-.38-1-.42-1.44-.1l-1.22,.85c-.57-.33-1.19-.58-1.83-.76l-.25-1.5c-.09-.53-.55-.92-1.09-.93h-1.27c-.55,0-1.02,.39-1.11,.93l-.26,1.46c-.64,.17-1.25,.43-1.83,.76l-1.21-.82c-.45-.31-1.06-.26-1.44,.13l-.88,.88c-.39,.39-.44,1-.13,1.44l.85,1.22c-.33,.57-.58,1.19-.76,1.83l-1.46,.26c-.54,.09-.93,.56-.93,1.11v1.24c0,.55,.39,1.02,.93,1.11l1.46,.26c.17,.64,.43,1.25,.76,1.83l-.85,1.22c-.31,.45-.26,1.06,.13,1.44l.88,.88c.39,.39,1,.44,1.44,.13l1.22-.85c.57,.33,1.19,.58,1.83,.76l.26,1.46c.09,.54,.56,.93,1.11,.93h1.26c.55,0,1.02-.39,1.11-.93l.26-1.46c.64-.17,1.25-.43,1.83-.76l1.19,.84c.45,.31,1.06,.26,1.44-.13l.88-.88c.39-.39,.44-1,.13-1.44l-.85-1.23c.33-.57,.58-1.19,.76-1.83l1.47-.26c.54-.09,.93-.56,.93-1.11v-1.24c0-.55-.4-1.01-.93-1.11Zm-8.84,5.08c-1.85,0-3.35-1.5-3.35-3.35,0-1.85,1.5-3.35,3.35-3.35,1.85,0,3.35,1.5,3.35,3.35v.02c-.01,1.84-1.51,3.33-3.35,3.33Z"/>
      <g>
        <g>
          <g>
            <g>
              <g>
                <path class="cls-5" d="M103.67,178.08c0,3.79,3.07,6.87,6.87,6.87H246.67c3.79,0,6.87-3.07,6.87-6.87V55.21H103.67v122.87Z"/>
                <path class="cls-5" d="M246.68,16.28H110.55c-3.79,0-6.87,3.07-6.87,6.87V55.25H253.55V23.15c0-3.79-3.07-6.87-6.87-6.87Z"/>
              </g>
              <g>
                <path class="cls-2" d="M92.89,178.08c0,3.79,3.07,6.87,6.87,6.87H235.89c3.79,0,6.87-3.07,6.87-6.87V55.21H92.89v122.87Z"/>
                <path class="cls-1" d="M235.89,16.25H99.76c-3.79,0-6.87,3.07-6.87,6.87V55.21H242.75V23.11c0-3.79-3.07-6.87-6.87-6.87Z"/>
              </g>
            </g>
            <g>
              <g>
                <circle class="cls-5" cx="134.52" cy="36.67" r="7.89"/>
                <path class="cls-2" d="M132.85,32.45h0c-2.26,0-4.1-1.84-4.1-4.1V11.21c0-1.98,1.34-3.81,3.28-4.18,2.62-.51,4.92,1.49,4.92,4.02v5.2h6.94v-4.81c0-5.88-4.42-11.02-10.29-11.41-6.43-.43-11.8,4.68-11.8,11.02V27.99c0,5.76,4.26,10.82,10,11.35,.61,.06,1.22,.06,1.81,.02,4.37-.3,4.01-6.92-.37-6.92h-.39Z"/>
              </g>
              <g>
                <circle class="cls-5" cx="197.4" cy="36.67" r="7.89"/>
                <path class="cls-2" d="M195.73,32.45h0c-2.26,0-4.1-1.84-4.1-4.1V11.21c0-1.98,1.34-3.81,3.28-4.18,2.62-.51,4.92,1.49,4.92,4.02v5.2h6.94v-4.81c0-5.88-4.42-11.02-10.29-11.41-6.43-.43-11.8,4.68-11.8,11.02V27.99c0,5.76,4.26,10.82,10,11.35,.61,.06,1.22,.06,1.81,.02,4.37-.3,4.01-6.92-.37-6.92h-.39Z"/>
              </g>
            </g>
          </g>
          <g>
            <g>
              <rect class="cls-3" x="115.4" y="73.79" width="22.42" height="22.42"/>
              <rect class="cls-3" x="115.4" y="106.8" width="22.42" height="22.42"/>
              <rect class="cls-3" x="115.4" y="139.8" width="22.42" height="22.42"/>
            </g>
            <g>
              <rect class="cls-1" x="153.44" y="73.79" width="22.42" height="22.42"/>
              <rect class="cls-3" x="153.44" y="106.8" width="22.42" height="22.42"/>
              <rect class="cls-3" x="153.44" y="139.8" width="22.42" height="22.42"/>
            </g>
            <g>
              <rect class="cls-1" x="191.47" y="73.79" width="22.42" height="22.42"/>
              <rect class="cls-1" x="191.47" y="106.8" width="22.42" height="22.42"/>
              <rect class="cls-3" x="191.47" y="139.8" width="22.42" height="22.42"/>
            </g>
          </g>
        </g>
        <g>
          <g>
            <rect class="cls-1" x="71.33" y="77.73" width="15.13" height="9.96"/>
            <rect class="cls-5" x="64.92" y="74.24" width="27.95" height="6.08"/>
          </g>
          <g>
            <circle class="cls-5" cx="78.72" cy="134.54" r="50.4" transform="translate(-70.65 179.14) rotate(-76.3)"/>
            <circle class="cls-2" cx="78.72" cy="134.54" r="41.39" transform="translate(-70.16 180.73) rotate(-76.9)"/>
            <g>
              <g>
                <g>
                  <g>
                    <path class="cls-4" d="M55.33,112.25c-.27,0-.53-.1-.74-.3l-1.73-1.73c-.41-.41-.41-1.07,0-1.47,.41-.41,1.07-.41,1.47,0l1.73,1.73c.41,.41,.41,1.07,0,1.47-.2,.2-.47,.3-.74,.3Z"/>
                    <path class="cls-4" d="M104.24,161.15c-.27,0-.53-.1-.74-.3l-1.73-1.73c-.41-.41-.41-1.07,0-1.47,.41-.41,1.07-.41,1.47,0l1.73,1.73c.41,.41,.41,1.07,0,1.47-.2,.2-.47,.3-.74,.3Z"/>
                  </g>
                  <g>
                    <path class="cls-4" d="M53.6,161.15c-.27,0-.53-.1-.74-.3-.41-.41-.41-1.07,0-1.47l1.73-1.73c.41-.41,1.07-.41,1.47,0,.41,.41,.41,1.07,0,1.47l-1.73,1.73c-.2,.2-.47,.3-.74,.3Z"/>
                    <path class="cls-4" d="M102.51,112.25c-.27,0-.53-.1-.74-.3-.41-.41-.41-1.07,0-1.47l1.73-1.73c.41-.41,1.07-.41,1.47,0,.41,.41,.41,1.07,0,1.47l-1.73,1.73c-.2,.2-.47,.3-.74,.3Z"/>
                  </g>
                </g>
                <g>
                  <circle class="cls-5" cx="78.89" cy="99.89" r="2.38"/>
                  <circle class="cls-5" cx="78.89" cy="169.22" r="2.38"/>
                </g>
                <g>
                  <path class="cls-5" d="M44.22,132.17c1.32,0,2.38,1.07,2.38,2.38s-1.07,2.38-2.38,2.38-2.38-1.07-2.38-2.38,1.07-2.38,2.38-2.38Z"/>
                  <path class="cls-5" d="M113.55,132.17c1.32,0,2.38,1.07,2.38,2.38s-1.07,2.38-2.38,2.38-2.38-1.07-2.38-2.38,1.07-2.38,2.38-2.38Z"/>
                </g>
              </g>
              <path class="cls-1" d="M93.7,113.07l-17.01,19.94c-.52,.53-.83,1.27-.77,2.08,.12,1.48,1.41,2.58,2.88,2.46,1.12-.09,2.02-.85,2.34-1.85l13.15-22.2c.23-.38-.3-.76-.59-.42Z"/>
            </g>
          </g>
        </g>
      </g>
    </g>
  </g>
</svg>